roboto-mono_medium-italic.sfdir
StartChar: exclam
Encoding: 33 33 1040
Width: 1202
Flags: W
LayerCount: 2
Back
Fore
SplineSet
677 493 m 1,0,-1
 456 493 l 1,1,-1
 616 1456 l 1,2,-1
 852 1456 l 1,3,-1
 677 493 l 1,0,-1
366 115 m 256,4,5
 366 145 366 145 376.5 170.5 c 128,-1,6
 387 196 387 196 405 214.5 c 128,-1,7
 423 233 423 233 448.5 243.5 c 128,-1,8
 474 254 474 254 504 255 c 0,9,10
 533 256 533 256 558 246.5 c 128,-1,11
 583 237 583 237 601.5 219.5 c 128,-1,12
 620 202 620 202 630.5 177.5 c 128,-1,13
 641 153 641 153 641 123 c 256,14,15
 641 93 641 93 630.5 68 c 128,-1,16
 620 43 620 43 601 25 c 128,-1,17
 582 7 582 7 557 -3.5 c 128,-1,18
 532 -14 532 -14 502 -14 c 0,19,20
 473 -15 473 -15 448 -6 c 128,-1,21
 423 3 423 3 405 20 c 128,-1,22
 387 37 387 37 376.5 61 c 128,-1,23
 366 85 366 85 366 115 c 256,4,5
EndSplineSet
EndChar
StartChar: quotedbl
Encoding: 34 34 4
Width: 1202
Flags: W
LayerCount: 2
Back
Fore
SplineSet
609 1419 m 1,0,-1
 524 1030 l 1,1,-1
 369 1030 l 1,2,-1
 449 1536 l 1,3,-1
 627 1536 l 1,4,-1
 609 1419 l 1,0,-1
988 1419 m 1,5,-1
 904 1030 l 1,6,-1
 748 1030 l 1,7,-1
 828 1536 l 1,8,-1
 1007 1536 l 1,9,-1
 988 1419 l 1,5,-1
EndSplineSet
EndChar
StartChar: numbersign
Encoding: 35 35 5
Width: 1202
Flags: W
LayerCount: 2
Back
Fore
SplineSet
619 410 m 1,0,-1
 405 410 l 1,1,-1
 260 0 l 1,2,-1
 93 0 l 1,3,-1
 239 410 l 1,4,-1
 16 410 l 1,5,-1
 44 567 l 1,6,-1
 294 567 l 1,7,-1
 406 881 l 1,8,-1
 170 881 l 1,9,-1
 198 1040 l 1,10,-1
 462 1040 l 1,11,-1
 611 1456 l 1,12,-1
 777 1456 l 1,13,-1
 628 1040 l 1,14,-1
 842 1040 l 1,15,-1
 991 1456 l 1,16,-1
 1159 1456 l 1,17,-1
 1011 1040 l 1,18,-1
 1209 1040 l 1,19,-1
 1181 881 l 1,20,-1
 954 881 l 1,21,-1
 842 567 l 1,22,-1
 1054 567 l 1,23,-1
 1026 410 l 1,24,-1
 787 410 l 1,25,-1
 641 0 l 1,26,-1
 474 0 l 1,27,-1
 619 410 l 1,0,-1
461 567 m 1,28,-1
 675 567 l 1,29,-1
 786 881 l 1,30,-1
 572 881 l 1,31,-1
 461 567 l 1,28,-1
EndSplineSet
EndChar
StartChar: dollar
Encoding: 36 36 6
Width: 1202
Flags: W
LayerCount: 2
Back
Fore
SplineSet
818 387 m 0,0,1
 824 436 824 436 809.5 473.5 c 128,-1,2
 795 511 795 511 767.5 539 c 128,-1,3
 740 567 740 567 702 587.5 c 128,-1,4
 664 608 664 608 623 625 c 0,5,6
 547 656 547 656 479.5 694.5 c 128,-1,7
 412 733 412 733 362.5 785.5 c 128,-1,8
 313 838 313 838 287 906.5 c 128,-1,9
 261 975 261 975 267 1066 c 0,10,11
 273 1156 273 1156 308.5 1227.5 c 128,-1,12
 344 1299 344 1299 401 1350 c 128,-1,13
 458 1401 458 1401 533 1432 c 128,-1,14
 608 1463 608 1463 694 1473 c 1,15,-1
 733 1691 l 1,16,-1
 889 1691 l 1,17,-1
 849 1469 l 1,18,19
 936 1452 936 1452 995 1407.5 c 128,-1,20
 1054 1363 1054 1363 1088.5 1301 c 128,-1,21
 1123 1239 1123 1239 1136 1162.5 c 128,-1,22
 1149 1086 1149 1086 1144 1005 c 1,23,-1
 911 1005 l 1,24,25
 914 1051 914 1051 908.5 1099 c 128,-1,26
 903 1147 903 1147 884 1186.5 c 128,-1,27
 865 1226 865 1226 830 1251 c 128,-1,28
 795 1276 795 1276 738 1278 c 0,29,30
 689 1279 689 1279 647.5 1264.5 c 128,-1,31
 606 1250 606 1250 575 1222.5 c 128,-1,32
 544 1195 544 1195 524.5 1155.5 c 128,-1,33
 505 1116 505 1116 500 1068 c 0,34,35
 494 1017 494 1017 508.5 980 c 128,-1,36
 523 943 523 943 551.5 915.5 c 128,-1,37
 580 888 580 888 618.5 867.5 c 128,-1,38
 657 847 657 847 699 830 c 0,39,40
 775 798 775 798 841.5 759.5 c 128,-1,41
 908 721 908 721 956.5 668.5 c 128,-1,42
 1005 616 1005 616 1030.5 547.5 c 128,-1,43
 1056 479 1056 479 1050 389 c 0,44,45
 1044 295 1044 295 1007 223.5 c 128,-1,46
 970 152 970 152 910.5 101.5 c 128,-1,47
 851 51 851 51 773 22 c 128,-1,48
 695 -7 695 -7 607 -16 c 1,49,-1
 572 -210 l 1,50,-1
 416 -210 l 1,51,-1
 452 -15 l 1,52,53
 360 -1 360 -1 294 38.5 c 128,-1,54
 228 78 228 78 186 138 c 128,-1,55
 144 198 144 198 125.5 275.5 c 128,-1,56
 107 353 107 353 112 442 c 1,57,-1
 345 442 l 1,58,59
 342 388 342 388 351 340.5 c 128,-1,60
 360 293 360 293 384 256.5 c 128,-1,61
 408 220 408 220 448.5 198.5 c 128,-1,62
 489 177 489 177 549 176 c 0,63,64
 599 175 599 175 645 188 c 128,-1,65
 691 201 691 201 727.5 228 c 128,-1,66
 764 255 764 255 788 294.5 c 128,-1,67
 812 334 812 334 818 387 c 0,0,1
EndSplineSet
EndChar
StartChar: percent
Encoding: 37 37 7
Width: 1202
Flags: W
LayerCount: 2
Back
Fore
SplineSet
136 1195 m 2,0,1
 143 1256 143 1256 167.5 1308.5 c 128,-1,2
 192 1361 192 1361 231.5 1399 c 128,-1,3
 271 1437 271 1437 324 1458 c 128,-1,4
 377 1479 377 1479 441 1478 c 0,5,6
 502 1476 502 1476 548.5 1454 c 128,-1,7
 595 1432 595 1432 625.5 1394 c 128,-1,8
 656 1356 656 1356 669.5 1305 c 128,-1,9
 683 1254 683 1254 679 1196 c 2,10,-1
 672 1119 l 2,11,12
 665 1058 665 1058 640.5 1006.5 c 128,-1,13
 616 955 616 955 577 917.5 c 128,-1,14
 538 880 538 880 485.5 859 c 128,-1,15
 433 838 433 838 370 839 c 0,16,17
 309 840 309 840 262.5 862.5 c 128,-1,18
 216 885 216 885 185 922.5 c 128,-1,19
 154 960 154 960 139.5 1010.5 c 128,-1,20
 125 1061 125 1061 129 1119 c 2,21,-1
 136 1195 l 2,0,1
298 1116 m 2,22,23
 297 1093 297 1093 300 1069 c 128,-1,24
 303 1045 303 1045 312.5 1025.5 c 128,-1,25
 322 1006 322 1006 340 993.5 c 128,-1,26
 358 981 358 981 387 981 c 256,27,28
 416 981 416 981 437.5 993 c 128,-1,29
 459 1005 459 1005 473.5 1024 c 128,-1,30
 488 1043 488 1043 496 1067.5 c 128,-1,31
 504 1092 504 1092 507 1118 c 2,32,-1
 514 1197 l 2,33,34
 515 1221 515 1221 512.5 1245 c 128,-1,35
 510 1269 510 1269 500 1289 c 128,-1,36
 490 1309 490 1309 472 1321.5 c 128,-1,37
 454 1334 454 1334 425 1334 c 256,38,39
 396 1334 396 1334 374.5 1322 c 128,-1,40
 353 1310 353 1310 338.5 1291 c 128,-1,41
 324 1272 324 1272 315.5 1247 c 128,-1,42
 307 1222 307 1222 304 1197 c 2,43,-1
 298 1116 l 2,22,23
561 336 m 2,44,45
 568 397 568 397 592.5 449 c 128,-1,46
 617 501 617 501 657 539 c 128,-1,47
 697 577 697 577 750 598 c 128,-1,48
 803 619 803 619 866 618 c 0,49,50
 927 616 927 616 973.5 594 c 128,-1,51
 1020 572 1020 572 1050.5 534 c 128,-1,52
 1081 496 1081 496 1095 445.5 c 128,-1,53
 1109 395 1109 395 1105 337 c 2,54,-1
 1097 259 l 2,55,56
 1090 198 1090 198 1066 146.5 c 128,-1,57
 1042 95 1042 95 1003 57.5 c 128,-1,58
 964 20 964 20 911 -1 c 128,-1,59
 858 -22 858 -22 795 -21 c 0,60,61
 734 -20 734 -20 687.5 2 c 128,-1,62
 641 24 641 24 610 61.5 c 128,-1,63
 579 99 579 99 565 149.5 c 128,-1,64
 551 200 551 200 555 259 c 2,65,-1
 561 336 l 2,44,45
722 257 m 2,66,67
 720 234 720 234 723.5 209.5 c 128,-1,68
 727 185 727 185 736.5 165.5 c 128,-1,69
 746 146 746 146 764 133.5 c 128,-1,70
 782 121 782 121 811 121 c 0,71,72
 841 121 841 121 862.5 132.5 c 128,-1,73
 884 144 884 144 898.5 163 c 128,-1,74
 913 182 913 182 920.5 207 c 128,-1,75
 928 232 928 232 931 258 c 2,76,-1
 938 338 l 2,77,78
 939 362 939 362 936.5 386 c 128,-1,79
 934 410 934 410 924.5 429.5 c 128,-1,80
 915 449 915 449 897.5 461.5 c 128,-1,81
 880 474 880 474 851 474 c 256,82,83
 822 474 822 474 800.5 462.5 c 128,-1,84
 779 451 779 451 764 431.5 c 128,-1,85
 749 412 749 412 740 387.5 c 128,-1,86
 731 363 731 363 728 338 c 2,87,-1
 722 257 l 2,66,67
334 197 m 1,88,-1
 214 264 l 1,89,-1
 934 1287 l 1,90,-1
 1053 1220 l 1,91,-1
 334 197 l 1,88,-1
EndSplineSet
EndChar
StartChar: ampersand
Encoding: 38 38 8
Width: 1202
Flags: W
LayerCount: 2
Back
Fore
SplineSet
50 366 m 0,0,1
 55 439 55 439 83.5 499.5 c 128,-1,2
 112 560 112 560 156 609.5 c 128,-1,3
 200 659 200 659 255.5 700.5 c 128,-1,4
 311 742 311 742 370 778 c 1,5,6
 352 817 352 817 336.5 856.5 c 128,-1,7
 321 896 321 896 309.5 936.5 c 128,-1,8
 298 977 298 977 293 1018.5 c 128,-1,9
 288 1060 288 1060 291 1104 c 0,10,11
 298 1188 298 1188 330.5 1257.5 c 128,-1,12
 363 1327 363 1327 416.5 1376.5 c 128,-1,13
 470 1426 470 1426 541.5 1452.5 c 128,-1,14
 613 1479 613 1479 699 1477 c 0,15,16
 764 1475 764 1475 818 1449.5 c 128,-1,17
 872 1424 872 1424 909.5 1381 c 128,-1,18
 947 1338 947 1338 966.5 1281 c 128,-1,19
 986 1224 986 1224 982 1160 c 0,20,21
 978 1103 978 1103 956 1056 c 128,-1,22
 934 1009 934 1009 900.5 969.5 c 128,-1,23
 867 930 867 930 825 896 c 128,-1,24
 783 862 783 862 740 831 c 2,25,-1
 635 753 l 1,26,-1
 837 408 l 1,27,28
 883 474 883 474 911 543.5 c 128,-1,29
 939 613 939 613 950 692 c 1,30,-1
 1152 693 l 1,31,32
 1140 561 1140 561 1089 446.5 c 128,-1,33
 1038 332 1038 332 944 238 c 1,34,-1
 1080 0 l 1,35,-1
 822 0 l 1,36,-1
 772 90 l 1,37,38
 692 38 692 38 606.5 8 c 128,-1,39
 521 -22 521 -22 424 -20 c 0,40,41
 340 -19 340 -19 269 9 c 128,-1,42
 198 37 198 37 147 87.5 c 128,-1,43
 96 138 96 138 70 208.5 c 128,-1,44
 44 279 44 279 50 366 c 0,0,1
443 171 m 0,45,46
 506 169 506 169 564 191 c 128,-1,47
 622 213 622 213 676 244 c 1,48,-1
 464 624 l 1,49,-1
 446 610 l 2,50,51
 418 588 418 588 391.5 562 c 128,-1,52
 365 536 365 536 343.5 506 c 128,-1,53
 322 476 322 476 307 442.5 c 128,-1,54
 292 409 292 409 287 373 c 0,55,56
 282 332 282 332 289.5 296 c 128,-1,57
 297 260 297 260 316.5 232.5 c 128,-1,58
 336 205 336 205 367.5 188.5 c 128,-1,59
 399 172 399 172 443 171 c 0,45,46
504 1105 m 0,60,61
 498 1052 498 1052 512.5 1002.5 c 128,-1,62
 527 953 527 953 548 905 c 1,63,-1
 660 985 l 2,64,65
 704 1017 704 1017 734.5 1056.5 c 128,-1,66
 765 1096 765 1096 770 1152 c 0,67,68
 772 1175 772 1175 768 1198.5 c 128,-1,69
 764 1222 764 1222 753.5 1241 c 128,-1,70
 743 1260 743 1260 725.5 1272 c 128,-1,71
 708 1284 708 1284 681 1285 c 0,72,73
 643 1286 643 1286 612.5 1271 c 128,-1,74
 582 1256 582 1256 559.5 1230.5 c 128,-1,75
 537 1205 537 1205 522.5 1172 c 128,-1,76
 508 1139 508 1139 504 1105 c 0,60,61
EndSplineSet
EndChar
StartChar: quotesingle
Encoding: 39 39 9
Width: 1202
Flags: W
LayerCount: 2
Back
Fore
SplineSet
771 1402 m 1,0,-1
 688 1022 l 1,1,-1
 524 1022 l 1,2,-1
 605 1536 l 1,3,-1
 792 1536 l 1,4,-1
 771 1402 l 1,0,-1
EndSplineSet
EndChar
StartChar: parenleft
Encoding: 40 40 10
Width: 1202
Flags: W
LayerCount: 2
Back
Fore
SplineSet
336 588 m 2,0,1
 350 686 350 686 376 789 c 128,-1,2
 402 892 402 892 441 993.5 c 128,-1,3
 480 1095 480 1095 532 1191 c 128,-1,4
 584 1287 584 1287 650 1370.5 c 128,-1,5
 716 1454 716 1454 797 1521.5 c 128,-1,6
 878 1589 878 1589 974 1633 c 1,7,-1
 1008 1490 l 1,8,9
 902 1410 902 1410 824.5 1307.5 c 128,-1,10
 747 1205 747 1205 693 1088.5 c 128,-1,11
 639 972 639 972 605 846 c 128,-1,12
 571 720 571 720 552 593 c 2,13,-1
 549 573 l 2,14,15
 539 504 539 504 532.5 424.5 c 128,-1,16
 526 345 526 345 526 262 c 128,-1,17
 526 179 526 179 535 95.5 c 128,-1,18
 544 12 544 12 566.5 -65 c 128,-1,19
 589 -142 589 -142 627 -210 c 128,-1,20
 665 -278 665 -278 723 -330 c 1,21,-1
 665 -463 l 1,22,23
 583 -412 583 -412 524 -339 c 128,-1,24
 465 -266 465 -266 424 -179.5 c 128,-1,25
 383 -93 383 -93 360 3 c 128,-1,26
 337 99 337 99 327 196.5 c 128,-1,27
 317 294 317 294 319.5 389.5 c 128,-1,28
 322 485 322 485 334 571 c 2,29,-1
 336 588 l 2,0,1
EndSplineSet
EndChar
StartChar: parenright
Encoding: 41 41 11
Width: 1202
Flags: W
LayerCount: 2
Back
Fore
SplineSet
839 580 m 2,0,1
 825 482 825 482 798.5 379 c 128,-1,2
 772 276 772 276 732.5 174.5 c 128,-1,3
 693 73 693 73 640 -23 c 128,-1,4
 587 -119 587 -119 520 -202.5 c 128,-1,5
 453 -286 453 -286 371.5 -353.5 c 128,-1,6
 290 -421 290 -421 194 -464 c 1,7,-1
 160 -328 l 1,8,9
 266 -247 266 -247 343.5 -144 c 128,-1,10
 421 -41 421 -41 475.5 76.5 c 128,-1,11
 530 194 530 194 564 320.5 c 128,-1,12
 598 447 598 447 617 575 c 2,13,-1
 620 595 l 2,14,15
 629 662 629 662 636 741 c 128,-1,16
 643 820 643 820 643 903.5 c 128,-1,17
 643 987 643 987 633.5 1071.5 c 128,-1,18
 624 1156 624 1156 602 1233.5 c 128,-1,19
 580 1311 580 1311 542 1379 c 128,-1,20
 504 1447 504 1447 447 1498 c 1,21,-1
 502 1632 l 1,22,23
 584 1581 584 1581 644 1509 c 128,-1,24
 704 1437 704 1437 745.5 1350.5 c 128,-1,25
 787 1264 787 1264 811.5 1167.5 c 128,-1,26
 836 1071 836 1071 846.5 973 c 128,-1,27
 857 875 857 875 854.5 779 c 128,-1,28
 852 683 852 683 841 597 c 2,29,-1
 839 580 l 2,0,1
EndSplineSet
EndChar
StartChar: asterisk
Encoding: 42 42 12
Width: 1202
Flags: W
LayerCount: 2
Back
Fore
SplineSet
525 649 m 1,0,-1
 169 744 l 1,1,-1
 257 933 l 1,2,-1
 595 771 l 1,3,-1
 631 1203 l 1,4,-1
 831 1203 l 1,5,-1
 731 776 l 1,6,-1
 1105 929 l 1,7,-1
 1134 724 l 1,8,-1
 740 634 l 1,9,-1
 945 305 l 1,10,-1
 771 188 l 1,11,-1
 625 558 l 1,12,-1
 369 203 l 1,13,-1
 215 326 l 1,14,-1
 525 649 l 1,0,-1
EndSplineSet
EndChar
StartChar: plus
Encoding: 43 43 13
Width: 1202
Flags: W
LayerCount: 2
Back
Fore
SplineSet
739 800 m 1,0,-1
 1110 800 l 1,1,-1
 1070 575 l 1,2,-1
 700 575 l 1,3,-1
 625 146 l 1,4,-1
 398 146 l 1,5,-1
 473 575 l 1,6,-1
 101 575 l 1,7,-1
 140 800 l 1,8,-1
 511 800 l 1,9,-1
 582 1206 l 1,10,-1
 810 1206 l 1,11,-1
 739 800 l 1,0,-1
EndSplineSet
EndChar
StartChar: comma
Encoding: 44 44 14
Width: 1202
Flags: W
LayerCount: 2
Back
Fore
SplineSet
565 34 m 2,0,1
 545 -87 545 -87 480.5 -192.5 c 128,-1,2
 416 -298 416 -298 321 -376 c 1,3,-1
 188 -302 l 1,4,5
 241 -226 241 -226 277 -146 c 128,-1,6
 313 -66 313 -66 330 25 c 2,7,-1
 366 234 l 1,8,-1
 599 234 l 1,9,-1
 565 34 l 2,0,1
EndSplineSet
EndChar
StartChar: hyphen
Encoding: 45 45 15
Width: 1202
Flags: W
LayerCount: 2
Back
Fore
SplineSet
1009 542 m 1,0,-1
 231 542 l 1,1,-1
 265 735 l 1,2,-1
 1043 735 l 1,3,-1
 1009 542 l 1,0,-1
EndSplineSet
EndChar
StartChar: period
Encoding: 46 46 16
Width: 1202
Flags: W
LayerCount: 2
Back
Fore
SplineSet
362 137 m 0,0,1
 362 174 362 174 375 206 c 128,-1,2
 388 238 388 238 411 261.5 c 128,-1,3
 434 285 434 285 465.5 298.5 c 128,-1,4
 497 312 497 312 535 312 c 0,5,6
 571 312 571 312 601.5 300.5 c 128,-1,7
 632 289 632 289 653.5 267 c 128,-1,8
 675 245 675 245 687.5 215 c 128,-1,9
 700 185 700 185 700 149 c 0,10,11
 700 111 700 111 686.5 80 c 128,-1,12
 673 49 673 49 650 26.5 c 128,-1,13
 627 4 627 4 595 -8.5 c 128,-1,14
 563 -21 563 -21 526 -21 c 0,15,16
 491 -21 491 -21 461 -10 c 128,-1,17
 431 1 431 1 409 21.5 c 128,-1,18
 387 42 387 42 374.5 71.5 c 128,-1,19
 362 101 362 101 362 137 c 0,0,1
EndSplineSet
EndChar
StartChar: zero
Encoding: 48 48 18
Width: 1202
Flags: W
LayerCount: 2
Back
Fore
SplineSet
1053 555 m 2,0,1
 1036 442 1036 442 996.5 337 c 128,-1,2
 957 232 957 232 891 151.5 c 128,-1,3
 825 71 825 71 730 23.5 c 128,-1,4
 635 -24 635 -24 508 -21 c 0,5,6
 387 -18 387 -18 308.5 33 c 128,-1,7
 230 84 230 84 186.5 165 c 128,-1,8
 143 246 143 246 131.5 348 c 128,-1,9
 120 450 120 450 133 554 c 2,10,-1
 187 902 l 2,11,12
 204 1014 204 1014 243.5 1119 c 128,-1,13
 283 1224 283 1224 349.5 1304.5 c 128,-1,14
 416 1385 416 1385 510.5 1432.5 c 128,-1,15
 605 1480 605 1480 732 1477 c 0,16,17
 853 1474 853 1474 932 1423 c 128,-1,18
 1011 1372 1011 1372 1054.5 1291 c 128,-1,19
 1098 1210 1098 1210 1109 1108.5 c 128,-1,20
 1120 1007 1120 1007 1107 902 c 2,21,-1
 1053 555 l 2,0,1
380 654 m 1,22,-1
 886 995 l 1,23,24
 890 1045 890 1045 886.5 1096 c 128,-1,25
 883 1147 883 1147 865 1188 c 128,-1,26
 847 1229 847 1229 811 1256 c 128,-1,27
 775 1283 775 1283 714 1285 c 0,28,29
 641 1288 641 1288 590.5 1258 c 128,-1,30
 540 1228 540 1228 507 1179 c 128,-1,31
 474 1130 474 1130 455.5 1068.5 c 128,-1,32
 437 1007 437 1007 428 946 c 2,33,-1
 380 654 l 1,22,-1
858 795 m 1,34,-1
 352 454 l 1,35,36
 349 404 349 404 353 354.5 c 128,-1,37
 357 305 357 305 376 264.5 c 128,-1,38
 395 224 395 224 430.5 198 c 128,-1,39
 466 172 466 172 526 170 c 0,40,41
 599 167 599 167 649.5 197.5 c 128,-1,42
 700 228 700 228 733.5 277.5 c 128,-1,43
 767 327 767 327 785 389 c 128,-1,44
 803 451 803 451 812 512 c 2,45,-1
 858 795 l 1,34,-1
EndSplineSet
EndChar
StartChar: one
Encoding: 49 49 19
Width: 1202
Flags: W
LayerCount: 2
Back
Fore
SplineSet
675 0 m 1,0,-1
 440 0 l 1,1,-1
 640 1156 l 1,2,-1
 255 1021 l 1,3,-1
 294 1239 l 1,4,-1
 902 1456 l 1,5,-1
 921 1456 l 1,6,-1
 675 0 l 1,0,-1
EndSplineSet
EndChar
StartChar: two
Encoding: 50 50 20
Width: 1202
Flags: W
LayerCount: 2
Back
Fore
SplineSet
957 0 m 1,0,-1
 7 0 l 1,1,-1
 35 173 l 1,2,-1
 567 683 l 2,3,4
 605 720 605 720 648 762 c 128,-1,5
 691 804 691 804 729.5 851 c 128,-1,6
 768 898 768 898 795.5 950 c 128,-1,7
 823 1002 823 1002 830 1058 c 0,8,9
 836 1102 836 1102 827.5 1142 c 128,-1,10
 819 1182 819 1182 797 1212.5 c 128,-1,11
 775 1243 775 1243 740 1261.5 c 128,-1,12
 705 1280 705 1280 658 1281 c 0,13,14
 594 1283 594 1283 545 1264 c 128,-1,15
 496 1245 496 1245 460.5 1209 c 128,-1,16
 425 1173 425 1173 404 1123 c 128,-1,17
 383 1073 383 1073 375 1014 c 1,18,-1
 144 1013 l 1,19,20
 153 1117 153 1117 198.5 1203.5 c 128,-1,21
 244 1290 244 1290 316 1351 c 128,-1,22
 388 1412 388 1412 481 1445 c 128,-1,23
 574 1478 574 1478 678 1476 c 0,24,25
 768 1474 768 1474 842.5 1444.5 c 128,-1,26
 917 1415 917 1415 969.5 1362 c 128,-1,27
 1022 1309 1022 1309 1048 1234 c 128,-1,28
 1074 1159 1074 1159 1066 1067 c 0,29,30
 1059 986 1059 986 1023.5 913.5 c 128,-1,31
 988 841 988 841 937 776.5 c 128,-1,32
 886 712 886 712 826 654.5 c 128,-1,33
 766 597 766 597 710 545 c 2,34,-1
 334 191 l 1,35,-1
 988 191 l 1,36,-1
 957 0 l 1,0,-1
EndSplineSet
EndChar
StartChar: three
Encoding: 51 51 21
Width: 1202
Flags: W
LayerCount: 2
Back
Fore
SplineSet
433 836 m 1,0,-1
 561 834 l 2,1,2
 617 835 617 835 666.5 850 c 128,-1,3
 716 865 716 865 755 894.5 c 128,-1,4
 794 924 794 924 819 968 c 128,-1,5
 844 1012 844 1012 851 1070 c 0,6,7
 857 1117 857 1117 848.5 1156 c 128,-1,8
 840 1195 840 1195 818 1223.5 c 128,-1,9
 796 1252 796 1252 760.5 1268 c 128,-1,10
 725 1284 725 1284 676 1285 c 256,11,12
 627 1286 627 1286 584.5 1271.5 c 128,-1,13
 542 1257 542 1257 509.5 1229.5 c 128,-1,14
 477 1202 477 1202 455 1163.5 c 128,-1,15
 433 1125 433 1125 424 1077 c 1,16,-1
 192 1076 l 1,17,18
 201 1171 201 1171 245 1246 c 128,-1,19
 289 1321 289 1321 357.5 1372.5 c 128,-1,20
 426 1424 426 1424 511.5 1451 c 128,-1,21
 597 1478 597 1478 689 1476 c 0,22,23
 780 1474 780 1474 856.5 1446.5 c 128,-1,24
 933 1419 933 1419 987 1367 c 128,-1,25
 1041 1315 1041 1315 1068 1240 c 128,-1,26
 1095 1165 1095 1165 1087 1070 c 0,27,28
 1082 1011 1082 1011 1058.5 961.5 c 128,-1,29
 1035 912 1035 912 999.5 871 c 128,-1,30
 964 830 964 830 918 798 c 128,-1,31
 872 766 872 766 822 742 c 1,32,33
 871 719 871 719 905 685 c 128,-1,34
 939 651 939 651 959.5 608.5 c 128,-1,35
 980 566 980 566 987.5 517 c 128,-1,36
 995 468 995 468 991 416 c 0,37,38
 982 311 982 311 936.5 229 c 128,-1,39
 891 147 891 147 819 91 c 128,-1,40
 747 35 747 35 655 6.5 c 128,-1,41
 563 -22 563 -22 463 -20 c 0,42,43
 371 -18 371 -18 294 11 c 128,-1,44
 217 40 217 40 162 92.5 c 128,-1,45
 107 145 107 145 78 220 c 128,-1,46
 49 295 49 295 53 390 c 1,47,-1
 286 389 l 1,48,49
 281 293 281 293 332 233.5 c 128,-1,50
 383 174 383 174 482 171 c 0,51,52
 539 169 539 169 587 186 c 128,-1,53
 635 203 635 203 671.5 235.5 c 128,-1,54
 708 268 708 268 731.5 313.5 c 128,-1,55
 755 359 755 359 761 415 c 0,56,57
 774 527 774 527 717 585.5 c 128,-1,58
 660 644 660 644 551 647 c 2,59,-1
 399 648 l 1,60,-1
 433 836 l 1,0,-1
EndSplineSet
EndChar
StartChar: four
Encoding: 52 52 22
Width: 1202
Flags: W
LayerCount: 2
Back
Fore
SplineSet
901 517 m 1,0,-1
 1079 517 l 1,1,-1
 1045 324 l 1,2,-1
 868 324 l 1,3,-1
 811 0 l 1,4,-1
 578 0 l 1,5,-1
 635 324 l 1,6,-1
 22 324 l 1,7,-1
 43 480 l 1,8,-1
 817 1456 l 1,9,-1
 1064 1456 l 1,10,-1
 901 517 l 1,0,-1
296 517 m 1,11,-1
 668 517 l 1,12,-1
 783 1140 l 1,13,-1
 749 1090 l 1,14,-1
 296 517 l 1,11,-1
EndSplineSet
EndChar
StartChar: five
Encoding: 53 53 23
Width: 1202
Flags: W
LayerCount: 2
Back
Fore
SplineSet
209 725 m 1,0,-1
 413 1456 l 1,1,-1
 1171 1456 l 1,2,-1
 1133 1242 l 1,3,-1
 572 1242 l 1,4,-1
 467 896 l 1,5,6
 518 925 518 925 574 940 c 128,-1,7
 630 955 630 955 689 954 c 0,8,9
 792 953 792 953 864 912 c 128,-1,10
 936 871 936 871 979 803.5 c 128,-1,11
 1022 736 1022 736 1038 649.5 c 128,-1,12
 1054 563 1054 563 1045 471 c 0,13,14
 1034 364 1034 364 992 273 c 128,-1,15
 950 182 950 182 881 116 c 128,-1,16
 812 50 812 50 719.5 13.5 c 128,-1,17
 627 -23 627 -23 517 -20 c 0,18,19
 425 -18 425 -18 350 12.5 c 128,-1,20
 275 43 275 43 221.5 97 c 128,-1,21
 168 151 168 151 138 226.5 c 128,-1,22
 108 302 108 302 107 393 c 1,23,-1
 331 393 l 1,24,25
 333 346 333 346 346.5 306 c 128,-1,26
 360 266 360 266 384.5 236 c 128,-1,27
 409 206 409 206 446.5 188.5 c 128,-1,28
 484 171 484 171 534 170 c 0,29,30
 600 168 600 168 649 194.5 c 128,-1,31
 698 221 698 221 732 264.5 c 128,-1,32
 766 308 766 308 785.5 364.5 c 128,-1,33
 805 421 805 421 811 479 c 0,34,35
 817 532 817 532 809.5 582 c 128,-1,36
 802 632 802 632 778.5 671 c 128,-1,37
 755 710 755 710 715 734 c 128,-1,38
 675 758 675 758 615 760 c 0,39,40
 550 762 550 762 499 739.5 c 128,-1,41
 448 717 448 717 400 676 c 1,42,-1
 209 725 l 1,0,-1
EndSplineSet
EndChar
StartChar: six
Encoding: 54 54 24
Width: 1202
Flags: W
LayerCount: 2
Back
Fore
SplineSet
971 1463 m 1,0,-1
 950 1258 l 1,1,-1
 937 1259 l 1,2,3
 827 1260 827 1260 739 1229 c 128,-1,4
 651 1198 651 1198 583 1141 c 128,-1,5
 515 1084 515 1084 465 1003.5 c 128,-1,6
 415 923 415 923 382 824 c 1,7,8
 443 887 443 887 519.5 925.5 c 128,-1,9
 596 964 596 964 686 963 c 0,10,11
 785 961 785 961 854 918.5 c 128,-1,12
 923 876 923 876 964.5 808.5 c 128,-1,13
 1006 741 1006 741 1022 656 c 128,-1,14
 1038 571 1038 571 1030 484 c 0,15,16
 1020 379 1020 379 979 286.5 c 128,-1,17
 938 194 938 194 870.5 125 c 128,-1,18
 803 56 803 56 711.5 16.5 c 128,-1,19
 620 -23 620 -23 511 -20 c 0,20,21
 395 -17 395 -17 314 34 c 128,-1,22
 233 85 233 85 184.5 166 c 128,-1,23
 136 247 136 247 118 347.5 c 128,-1,24
 100 448 100 448 112 550 c 2,25,-1
 124 643 l 2,26,27
 147 812 147 812 209 961 c 128,-1,28
 271 1110 271 1110 372.5 1221.5 c 128,-1,29
 474 1333 474 1333 615.5 1397.5 c 128,-1,30
 757 1462 757 1462 940 1463 c 2,31,-1
 971 1463 l 1,0,-1
618 771 m 0,32,33
 574 772 574 772 535 759 c 128,-1,34
 496 746 496 746 462.5 722.5 c 128,-1,35
 429 699 429 699 401.5 667 c 128,-1,36
 374 635 374 635 353 599 c 1,37,-1
 344 529 l 2,38,39
 341 496 341 496 340.5 457.5 c 128,-1,40
 340 419 340 419 345 379.5 c 128,-1,41
 350 340 350 340 362 303.5 c 128,-1,42
 374 267 374 267 395 238 c 128,-1,43
 416 209 416 209 447.5 191 c 128,-1,44
 479 173 479 173 523 172 c 0,45,46
 586 170 586 170 634.5 196.5 c 128,-1,47
 683 223 683 223 717.5 267 c 128,-1,48
 752 311 752 311 772 366 c 128,-1,49
 792 421 792 421 797 477 c 0,50,51
 802 525 802 525 796 576 c 128,-1,52
 790 627 790 627 770 669.5 c 128,-1,53
 750 712 750 712 713 740.5 c 128,-1,54
 676 769 676 769 618 771 c 0,32,33
EndSplineSet
EndChar
StartChar: eight
Encoding: 56 56 26
Width: 1202
Flags: W
LayerCount: 2
Back
Fore
SplineSet
1113 1080 m 0,0,1
 1108 1020 1108 1020 1087 970 c 128,-1,2
 1066 920 1066 920 1032.5 878.5 c 128,-1,3
 999 837 999 837 954 803.5 c 128,-1,4
 909 770 909 770 858 745 c 1,5,6
 947 688 947 688 990 598.5 c 128,-1,7
 1033 509 1033 509 1025 404 c 0,8,9
 1017 302 1017 302 972.5 222 c 128,-1,10
 928 142 928 142 858 87.5 c 128,-1,11
 788 33 788 33 698 5.5 c 128,-1,12
 608 -22 608 -22 511 -20 c 0,13,14
 421 -18 421 -18 343 10 c 128,-1,15
 265 38 265 38 209.5 90.5 c 128,-1,16
 154 143 154 143 125 217.5 c 128,-1,17
 96 292 96 292 104 387 c 0,18,19
 109 454 109 454 133 510 c 128,-1,20
 157 566 157 566 195 612 c 128,-1,21
 233 658 233 658 283.5 693.5 c 128,-1,22
 334 729 334 729 393 755 c 1,23,24
 318 809 318 809 282.5 890 c 128,-1,25
 247 971 247 971 254 1063 c 0,26,27
 261 1160 261 1160 301 1237.5 c 128,-1,28
 341 1315 341 1315 405.5 1369 c 128,-1,29
 470 1423 470 1423 554 1451 c 128,-1,30
 638 1479 638 1479 733 1477 c 0,31,32
 820 1475 820 1475 893 1446.5 c 128,-1,33
 966 1418 966 1418 1017.5 1366.5 c 128,-1,34
 1069 1315 1069 1315 1094.5 1242.5 c 128,-1,35
 1120 1170 1120 1170 1113 1080 c 0,0,1
795 417 m 0,36,37
 800 464 800 464 790.5 506.5 c 128,-1,38
 781 549 781 549 757.5 581 c 128,-1,39
 734 613 734 613 696.5 632.5 c 128,-1,40
 659 652 659 652 609 653 c 0,41,42
 553 654 553 654 506 634.5 c 128,-1,43
 459 615 459 615 424 580.5 c 128,-1,44
 389 546 389 546 367.5 499.5 c 128,-1,45
 346 453 346 453 340 400 c 0,46,47
 335 351 335 351 344.5 309.5 c 128,-1,48
 354 268 354 268 377.5 237.5 c 128,-1,49
 401 207 401 207 438.5 189 c 128,-1,50
 476 171 476 171 527 170 c 0,51,52
 582 169 582 169 628.5 187.5 c 128,-1,53
 675 206 675 206 710 239 c 128,-1,54
 745 272 745 272 767 318 c 128,-1,55
 789 364 789 364 795 417 c 0,36,37
878 1072 m 0,56,57
 882 1113 882 1113 874 1151 c 128,-1,58
 866 1189 866 1189 846 1218.5 c 128,-1,59
 826 1248 826 1248 793.5 1265.5 c 128,-1,60
 761 1283 761 1283 716 1284 c 0,61,62
 666 1285 666 1285 625.5 1267 c 128,-1,63
 585 1249 585 1249 555 1218 c 128,-1,64
 525 1187 525 1187 507 1145 c 128,-1,65
 489 1103 489 1103 484 1056 c 0,66,67
 480 1014 480 1014 487.5 976 c 128,-1,68
 495 938 495 938 515 908.5 c 128,-1,69
 535 879 535 879 567.5 861.5 c 128,-1,70
 600 844 600 844 645 843 c 0,71,72
 694 842 694 842 735 860 c 128,-1,73
 776 878 776 878 806 909.5 c 128,-1,74
 836 941 836 941 854.5 983 c 128,-1,75
 873 1025 873 1025 878 1072 c 0,56,57
EndSplineSet
EndChar
StartChar: nine
Encoding: 57 57 27
Width: 1202
Flags: W
LayerCount: 2
Back
Fore
SplineSet
269 197 m 2,0,1
 377 196 377 196 463.5 221.5 c 128,-1,2
 550 247 550 247 616.5 298 c 128,-1,3
 683 349 683 349 731 424.5 c 128,-1,4
 779 500 779 500 811 600 c 1,5,6
 752 540 752 540 680 509.5 c 128,-1,7
 608 479 608 479 523 481 c 0,8,9
 424 482 424 482 354 524.5 c 128,-1,10
 284 567 284 567 242 634.5 c 128,-1,11
 200 702 200 702 184 787.5 c 128,-1,12
 168 873 168 873 176 961 c 0,13,14
 186 1065 186 1065 226.5 1159.5 c 128,-1,15
 267 1254 267 1254 334.5 1325.5 c 128,-1,16
 402 1397 402 1397 493 1438 c 128,-1,17
 584 1479 584 1479 694 1476 c 0,18,19
 774 1474 774 1474 836 1448.5 c 128,-1,20
 898 1423 898 1423 943.5 1380 c 128,-1,21
 989 1337 989 1337 1019 1279.5 c 128,-1,22
 1049 1222 1049 1222 1065 1157 c 128,-1,23
 1081 1092 1081 1092 1084.5 1022 c 128,-1,24
 1088 952 1088 952 1080 884 c 2,25,-1
 1070 806 l 2,26,27
 1046 633 1046 633 986 485 c 128,-1,28
 926 337 926 337 826 228 c 128,-1,29
 726 119 726 119 584.5 56.5 c 128,-1,30
 443 -6 443 -6 257 -7 c 2,31,-1
 233 -7 l 1,32,-1
 255 197 l 1,33,-1
 269 197 l 2,0,1
584 668 m 0,34,35
 627 667 627 667 665.5 680.5 c 128,-1,36
 704 694 704 694 737 718 c 128,-1,37
 770 742 770 742 796.5 774 c 128,-1,38
 823 806 823 806 843 842 c 1,39,-1
 853 923 l 2,40,41
 856 955 856 955 857 993.5 c 128,-1,42
 858 1032 858 1032 853 1071.5 c 128,-1,43
 848 1111 848 1111 836.5 1148.5 c 128,-1,44
 825 1186 825 1186 804.5 1215.5 c 128,-1,45
 784 1245 784 1245 753 1263 c 128,-1,46
 722 1281 722 1281 679 1283 c 0,47,48
 616 1285 616 1285 567.5 1256 c 128,-1,49
 519 1227 519 1227 485.5 1181 c 128,-1,50
 452 1135 452 1135 433 1078.5 c 128,-1,51
 414 1022 414 1022 408 968 c 0,52,53
 405 937 405 937 406 902.5 c 128,-1,54
 407 868 407 868 413.5 835 c 128,-1,55
 420 802 420 802 433 772 c 128,-1,56
 446 742 446 742 466.5 719.5 c 128,-1,57
 487 697 487 697 516 683 c 128,-1,58
 545 669 545 669 584 668 c 0,34,35
EndSplineSet
EndChar
StartChar: less
Encoding: 60 60 30
Width: 1202
Flags: W
LayerCount: 2
Back
Fore
SplineSet
468 656 m 1,0,-1
 391 630 l 1,1,-1
 439 611 l 1,2,-1
 965 403 l 1,3,-1
 925 172 l 1,4,-1
 148 545 l 1,5,-1
 181 735 l 1,6,-1
 1087 1107 l 1,7,-1
 1051 863 l 1,8,-1
 468 656 l 1,0,-1
EndSplineSet
EndChar
StartChar: equal
Encoding: 61 61 31
Width: 1202
Flags: W
LayerCount: 2
Back
Fore
SplineSet
1078 746 m 1,0,-1
 185 746 l 1,1,-1
 220 945 l 1,2,-1
 1114 945 l 1,3,-1
 1078 746 l 1,0,-1
1005 322 m 1,4,-1
 111 322 l 1,5,-1
 146 521 l 1,6,-1
 1040 521 l 1,7,-1
 1005 322 l 1,4,-1
EndSplineSet
EndChar
StartChar: greater
Encoding: 62 62 32
Width: 1202
Flags: W
LayerCount: 2
Back
Fore
SplineSet
210 871 m 1,0,-1
 250 1098 l 1,1,-1
 1053 726 l 1,2,-1
 1020 535 l 1,3,-1
 87 162 l 1,4,-1
 131 408 l 1,5,-1
 738 617 l 1,6,-1
 815 640 l 1,7,-1
 767 658 l 1,8,-1
 210 871 l 1,0,-1
EndSplineSet
EndChar
StartChar: question
Encoding: 63 63 33
Width: 1202
Flags: W
LayerCount: 2
Back
Fore
SplineSet
469 424 m 1,0,1
 473 485 473 485 483.5 533 c 128,-1,2
 494 581 494 581 513.5 621.5 c 128,-1,3
 533 662 533 662 565 698.5 c 128,-1,4
 597 735 597 735 645 774 c 0,5,6
 682 804 682 804 722.5 838.5 c 128,-1,7
 763 873 763 873 798.5 912.5 c 128,-1,8
 834 952 834 952 859.5 996.5 c 128,-1,9
 885 1041 885 1041 892 1091 c 0,10,11
 905 1181 905 1181 859.5 1229 c 128,-1,12
 814 1277 814 1277 726 1279 c 0,13,14
 681 1280 681 1280 641.5 1268 c 128,-1,15
 602 1256 602 1256 571.5 1232.5 c 128,-1,16
 541 1209 541 1209 520.5 1174.5 c 128,-1,17
 500 1140 500 1140 491 1096 c 1,18,-1
 258 1095 l 1,19,20
 268 1190 268 1190 310.5 1262.5 c 128,-1,21
 353 1335 353 1335 418.5 1383 c 128,-1,22
 484 1431 484 1431 567 1455 c 128,-1,23
 650 1479 650 1479 742 1477 c 0,24,25
 829 1475 829 1475 904 1451 c 128,-1,26
 979 1427 979 1427 1032 1380 c 128,-1,27
 1085 1333 1085 1333 1112.5 1263 c 128,-1,28
 1140 1193 1140 1193 1132 1100 c 0,29,30
 1126 1022 1126 1022 1093.5 959.5 c 128,-1,31
 1061 897 1061 897 1014 843.5 c 128,-1,32
 967 790 967 790 910.5 743.5 c 128,-1,33
 854 697 854 697 799 652 c 0,34,35
 770 628 770 628 749.5 603.5 c 128,-1,36
 729 579 729 579 715.5 551.5 c 128,-1,37
 702 524 702 524 694 493 c 128,-1,38
 686 462 686 462 681 426 c 1,39,-1
 469 424 l 1,0,1
374 115 m 0,40,41
 374 145 374 145 384.5 171 c 128,-1,42
 395 197 395 197 413 215.5 c 128,-1,43
 431 234 431 234 456.5 245 c 128,-1,44
 482 256 482 256 512 257 c 256,45,46
 542 258 542 258 567 248.5 c 128,-1,47
 592 239 592 239 610.5 221.5 c 128,-1,48
 629 204 629 204 639.5 179 c 128,-1,49
 650 154 650 154 650 124 c 256,50,51
 650 94 650 94 639 69 c 128,-1,52
 628 44 628 44 609 26 c 128,-1,53
 590 8 590 8 565 -2.5 c 128,-1,54
 540 -13 540 -13 510 -13 c 0,55,56
 481 -14 481 -14 456 -5 c 128,-1,57
 431 4 431 4 413 21 c 128,-1,58
 395 38 395 38 384.5 62 c 128,-1,59
 374 86 374 86 374 115 c 0,40,41
EndSplineSet
EndChar
StartChar: at
Encoding: 64 64 34
Width: 1202
Flags: W
LayerCount: 2
Back
Fore
SplineSet
1167 814 m 0,0,1
 1160 769 1160 769 1148.5 713.5 c 128,-1,2
 1137 658 1137 658 1118.5 602 c 128,-1,3
 1100 546 1100 546 1073.5 493.5 c 128,-1,4
 1047 441 1047 441 1010.5 400.5 c 128,-1,5
 974 360 974 360 927.5 336 c 128,-1,6
 881 312 881 312 822 313 c 0,7,8
 768 315 768 315 731 342 c 128,-1,9
 694 369 694 369 679 420 c 1,10,11
 661 399 661 399 640.5 380 c 128,-1,12
 620 361 620 361 597.5 346.5 c 128,-1,13
 575 332 575 332 549 323.5 c 128,-1,14
 523 315 523 315 494 315 c 0,15,16
 450 315 450 315 420 333.5 c 128,-1,17
 390 352 390 352 371.5 381.5 c 128,-1,18
 353 411 353 411 344.5 449.5 c 128,-1,19
 336 488 336 488 334 527.5 c 128,-1,20
 332 567 332 567 335 605.5 c 128,-1,21
 338 644 338 644 343 674 c 0,22,23
 351 726 351 726 367 781.5 c 128,-1,24
 383 837 383 837 406.5 890 c 128,-1,25
 430 943 430 943 462.5 990.5 c 128,-1,26
 495 1038 495 1038 537 1073.5 c 128,-1,27
 579 1109 579 1109 630.5 1129 c 128,-1,28
 682 1149 682 1149 744 1148 c 0,29,30
 801 1146 801 1146 848 1126 c 128,-1,31
 895 1106 895 1106 933 1063 c 1,32,-1
 814 547 l 2,33,34
 812 532 812 532 809.5 514.5 c 128,-1,35
 807 497 807 497 809.5 482 c 128,-1,36
 812 467 812 467 821 456.5 c 128,-1,37
 830 446 830 446 851 445 c 0,38,39
 886 443 886 443 912.5 463.5 c 128,-1,40
 939 484 939 484 959 517 c 128,-1,41
 979 550 979 550 992 591.5 c 128,-1,42
 1005 633 1005 633 1014 674 c 128,-1,43
 1023 715 1023 715 1028 751 c 128,-1,44
 1033 787 1033 787 1036 810 c 0,45,46
 1043 865 1043 865 1045 922.5 c 128,-1,47
 1047 980 1047 980 1040 1034.5 c 128,-1,48
 1033 1089 1033 1089 1015 1138 c 128,-1,49
 997 1187 997 1187 964.5 1223.5 c 128,-1,50
 932 1260 932 1260 883 1282.5 c 128,-1,51
 834 1305 834 1305 765 1307 c 0,52,53
 682 1309 682 1309 612.5 1283 c 128,-1,54
 543 1257 543 1257 486 1210 c 128,-1,55
 429 1163 429 1163 384 1100 c 128,-1,56
 339 1037 339 1037 305.5 966.5 c 128,-1,57
 272 896 272 896 249.5 822 c 128,-1,58
 227 748 227 748 216 679 c 0,59,60
 206 620 206 620 202 557 c 128,-1,61
 198 494 198 494 204.5 434 c 128,-1,62
 211 374 211 374 229 320.5 c 128,-1,63
 247 267 247 267 282 227 c 128,-1,64
 317 187 317 187 370 163 c 128,-1,65
 423 139 423 139 499 138 c 0,66,67
 562 137 562 137 621.5 153 c 128,-1,68
 681 169 681 169 737 196 c 1,69,-1
 759 65 l 1,70,71
 702 26 702 26 633.5 8.5 c 128,-1,72
 565 -9 565 -9 496 -7 c 0,73,74
 398 -6 398 -6 324.5 22.5 c 128,-1,75
 251 51 251 51 199.5 100 c 128,-1,76
 148 149 148 149 116 215 c 128,-1,77
 84 281 84 281 69.5 357 c 128,-1,78
 55 433 55 433 55.5 515.5 c 128,-1,79
 56 598 56 598 69 680 c 0,80,81
 82 767 82 767 112 858.5 c 128,-1,82
 142 950 142 950 186.5 1036 c 128,-1,83
 231 1122 231 1122 291 1198.5 c 128,-1,84
 351 1275 351 1275 424.5 1332 c 128,-1,85
 498 1389 498 1389 585.5 1420.5 c 128,-1,86
 673 1452 673 1452 773 1450 c 0,87,88
 859 1448 859 1448 925 1420.5 c 128,-1,89
 991 1393 991 1393 1038 1346 c 128,-1,90
 1085 1299 1085 1299 1115 1237.5 c 128,-1,91
 1145 1176 1145 1176 1160 1106 c 128,-1,92
 1175 1036 1175 1036 1176 961 c 128,-1,93
 1177 886 1177 886 1167 814 c 0,0,1
495 674 m 0,94,95
 492 657 492 657 487.5 623 c 128,-1,96
 483 589 483 589 484.5 554 c 128,-1,97
 486 519 486 519 497.5 492 c 128,-1,98
 509 465 509 465 539 463 c 0,99,100
 560 462 560 462 578.5 468.5 c 128,-1,101
 597 475 597 475 613 486 c 128,-1,102
 629 497 629 497 643 511 c 128,-1,103
 657 525 657 525 670 540 c 1,104,-1
 671 548 l 1,105,-1
 788 1003 l 1,106,107
 779 1005 779 1005 770.5 1007 c 128,-1,108
 762 1009 762 1009 753 1009 c 0,109,110
 689 1011 689 1011 644 978 c 128,-1,111
 599 945 599 945 568.5 894 c 128,-1,112
 538 843 538 843 520.5 783.5 c 128,-1,113
 503 724 503 724 495 674 c 0,94,95
EndSplineSet
EndChar
StartChar: A
Encoding: 65 65 35
Width: 1202
Flags: W
LayerCount: 2
Back
Fore
SplineSet
787 338 m 1,0,-1
 347 338 l 1,1,-1
 191 0 l 1,2,-1
 -58 0 l 1,3,-1
 654 1456 l 1,4,-1
 860 1456 l 1,5,-1
 1057 0 l 1,6,-1
 823 0 l 1,7,-1
 787 338 l 1,0,-1
442 543 m 1,8,-1
 764 543 l 1,9,-1
 704 1111 l 1,10,-1
 442 543 l 1,8,-1
EndSplineSet
Substitution2: "'smcp' Lowercase to Small Capitals lookup 0 subtable" A.smcp
EndChar
StartChar: B
Encoding: 66 66 36
Width: 1202
Flags: W
LayerCount: 2
Back
Fore
SplineSet
39 0 m 1,0,-1
 292 1456 l 1,1,-1
 730 1455 l 2,2,3
 818 1453 818 1453 900 1429.5 c 128,-1,4
 982 1406 982 1406 1043 1359.5 c 128,-1,5
 1104 1313 1104 1313 1137.5 1241 c 128,-1,6
 1171 1169 1171 1169 1163 1070 c 0,7,8
 1158 1010 1158 1010 1135.5 961 c 128,-1,9
 1113 912 1113 912 1077.5 873.5 c 128,-1,10
 1042 835 1042 835 995.5 805 c 128,-1,11
 949 775 949 775 897 753 c 1,12,13
 948 734 948 734 985 701 c 128,-1,14
 1022 668 1022 668 1045 625.5 c 128,-1,15
 1068 583 1068 583 1077.5 533.5 c 128,-1,16
 1087 484 1087 484 1084 432 c 0,17,18
 1076 323 1076 323 1027.5 241.5 c 128,-1,19
 979 160 979 160 903.5 106 c 128,-1,20
 828 52 828 52 733 25.5 c 128,-1,21
 638 -1 638 -1 537 0 c 2,22,-1
 39 0 l 1,0,-1
389 660 m 1,23,-1
 308 196 l 1,24,-1
 550 194 l 2,25,26
 605 195 605 195 656 211 c 128,-1,27
 707 227 707 227 747.5 257 c 128,-1,28
 788 287 788 287 815.5 331 c 128,-1,29
 843 375 843 375 851 432 c 0,30,31
 857 481 857 481 847.5 522 c 128,-1,32
 838 563 838 563 814 592.5 c 128,-1,33
 790 622 790 622 752 639.5 c 128,-1,34
 714 657 714 657 665 659 c 2,35,-1
 389 660 l 1,23,-1
420 843 m 1,36,-1
 632 841 l 2,37,38
 683 842 683 842 732.5 855.5 c 128,-1,39
 782 869 782 869 822 896 c 128,-1,40
 862 923 862 923 889.5 963.5 c 128,-1,41
 917 1004 917 1004 925 1059 c 0,42,43
 932 1110 932 1110 919 1146.5 c 128,-1,44
 906 1183 906 1183 878 1207 c 128,-1,45
 850 1231 850 1231 810.5 1243 c 128,-1,46
 771 1255 771 1255 725 1257 c 2,47,-1
 493 1258 l 1,48,-1
 420 843 l 1,36,-1
EndSplineSet
Substitution2: "'smcp' Lowercase to Small Capitals lookup 0 subtable" B.smcp
EndChar
StartChar: C
Encoding: 67 67 37
Width: 1202
Flags: W
LayerCount: 2
Back
Fore
SplineSet
1062 449 m 1,0,1
 1044 344 1044 344 996.5 256.5 c 128,-1,2
 949 169 949 169 877 106.5 c 128,-1,3
 805 44 805 44 712 10 c 128,-1,4
 619 -24 619 -24 511 -21 c 0,5,6
 423 -19 423 -19 355 9 c 128,-1,7
 287 37 287 37 237.5 84 c 128,-1,8
 188 131 188 131 155.5 193.5 c 128,-1,9
 123 256 123 256 106.5 327.5 c 128,-1,10
 90 399 90 399 87.5 476 c 128,-1,11
 85 553 85 553 95 628 c 2,12,-1
 125 827 l 2,13,14
 138 907 138 907 163 987 c 128,-1,15
 188 1067 188 1067 226 1140 c 128,-1,16
 264 1213 264 1213 314.5 1275.5 c 128,-1,17
 365 1338 365 1338 429 1383.5 c 128,-1,18
 493 1429 493 1429 570.5 1454 c 128,-1,19
 648 1479 648 1479 739 1477 c 0,20,21
 847 1475 847 1475 926.5 1437.5 c 128,-1,22
 1006 1400 1006 1400 1059 1335.5 c 128,-1,23
 1112 1271 1112 1271 1139.5 1184.5 c 128,-1,24
 1167 1098 1167 1098 1170 997 c 1,25,-1
 937 997 l 1,26,27
 936 1052 936 1052 926 1103 c 128,-1,28
 916 1154 916 1154 892 1193 c 128,-1,29
 868 1232 868 1232 826.5 1256.5 c 128,-1,30
 785 1281 785 1281 722 1283 c 0,31,32
 661 1285 661 1285 613.5 1265.5 c 128,-1,33
 566 1246 566 1246 528.5 1212 c 128,-1,34
 491 1178 491 1178 463.5 1132 c 128,-1,35
 436 1086 436 1086 416 1035 c 128,-1,36
 396 984 396 984 383.5 931 c 128,-1,37
 371 878 371 878 363 829 c 2,38,-1
 332 627 l 2,39,40
 326 585 326 585 322.5 536 c 128,-1,41
 319 487 319 487 321.5 437 c 128,-1,42
 324 387 324 387 335 340.5 c 128,-1,43
 346 294 346 294 369.5 257 c 128,-1,44
 393 220 393 220 431 197 c 128,-1,45
 469 174 469 174 527 172 c 0,46,47
 592 170 592 170 643 190.5 c 128,-1,48
 694 211 694 211 731.5 248.5 c 128,-1,49
 769 286 769 286 794 336.5 c 128,-1,50
 819 387 819 387 833 446 c 1,51,-1
 1062 449 l 1,0,1
EndSplineSet
Substitution2: "'smcp' Lowercase to Small Capitals lookup 0 subtable" C.smcp
EndChar
StartChar: D
Encoding: 68 68 38
Width: 1202
Flags: W
LayerCount: 2
Back
Fore
SplineSet
28 0 m 1,0,-1
 281 1456 l 1,1,-1
 614 1455 l 2,2,3
 758 1452 758 1452 864 1397 c 128,-1,4
 970 1342 970 1342 1036 1250 c 128,-1,5
 1102 1158 1102 1158 1127.5 1037.5 c 128,-1,6
 1153 917 1153 917 1136 782 c 2,7,-1
 1121 672 l 2,8,9
 1099 530 1099 530 1038.5 407 c 128,-1,10
 978 284 978 284 884.5 193.5 c 128,-1,11
 791 103 791 103 667 51.5 c 128,-1,12
 543 0 543 0 394 0 c 2,13,-1
 28 0 l 1,0,-1
485 1262 m 1,14,-1
 300 193 l 1,15,-1
 403 192 l 2,16,17
 509 192 509 192 591.5 230.5 c 128,-1,18
 674 269 674 269 733.5 334.5 c 128,-1,19
 793 400 793 400 830 487 c 128,-1,20
 867 574 867 574 882 672 c 2,21,-1
 899 785 l 2,22,23
 910 869 910 869 903 952.5 c 128,-1,24
 896 1036 896 1036 863 1103 c 128,-1,25
 830 1170 830 1170 767.5 1213.5 c 128,-1,26
 705 1257 705 1257 605 1261 c 2,27,-1
 485 1262 l 1,14,-1
EndSplineSet
Substitution2: "'smcp' Lowercase to Small Capitals lookup 0 subtable" D.smcp
EndChar
StartChar: E
Encoding: 69 69 39
Width: 1202
Flags: W
LayerCount: 2
Back
Fore
SplineSet
982 653 m 1,0,-1
 401 653 l 1,1,-1
 322 196 l 1,2,-1
 1002 196 l 1,3,-1
 968 0 l 1,4,-1
 53 0 l 1,5,-1
 305 1456 l 1,6,-1
 1214 1456 l 1,7,-1
 1179 1258 l 1,8,-1
 506 1258 l 1,9,-1
 434 847 l 1,10,-1
 1016 847 l 1,11,-1
 982 653 l 1,0,-1
EndSplineSet
Substitution2: "'smcp' Lowercase to Small Capitals lookup 0 subtable" E.smcp
EndChar
StartChar: G
Encoding: 71 71 41
Width: 1202
Flags: W
LayerCount: 2
Back
Fore
SplineSet
1028 182 m 1,0,1
 981 129 981 129 923 90.5 c 128,-1,2
 865 52 865 52 800 27 c 128,-1,3
 735 2 735 2 665 -9.5 c 128,-1,4
 595 -21 595 -21 526 -19 c 0,5,6
 438 -17 438 -17 369 11 c 128,-1,7
 300 39 300 39 249 86.5 c 128,-1,8
 198 134 198 134 164 197.5 c 128,-1,9
 130 261 130 261 112 333 c 128,-1,10
 94 405 94 405 90.5 483 c 128,-1,11
 87 561 87 561 97 637 c 2,12,-1
 125 817 l 2,13,14
 138 897 138 897 162.5 977.5 c 128,-1,15
 187 1058 187 1058 225 1131.5 c 128,-1,16
 263 1205 263 1205 313.5 1268.5 c 128,-1,17
 364 1332 364 1332 428 1378.5 c 128,-1,18
 492 1425 492 1425 569.5 1451 c 128,-1,19
 647 1477 647 1477 739 1476 c 0,20,21
 842 1474 842 1474 921 1440.5 c 128,-1,22
 1000 1407 1000 1407 1053.5 1347.5 c 128,-1,23
 1107 1288 1107 1288 1136 1205.5 c 128,-1,24
 1165 1123 1165 1123 1168 1024 c 1,25,-1
 939 1024 l 1,26,27
 936 1076 936 1076 924 1122 c 128,-1,28
 912 1168 912 1168 887 1202.5 c 128,-1,29
 862 1237 862 1237 822.5 1257.5 c 128,-1,30
 783 1278 783 1278 725 1280 c 0,31,32
 666 1282 666 1282 618 1261.5 c 128,-1,33
 570 1241 570 1241 532 1206 c 128,-1,34
 494 1171 494 1171 465.5 1124 c 128,-1,35
 437 1077 437 1077 416 1025 c 128,-1,36
 395 973 395 973 381.5 920 c 128,-1,37
 368 867 368 867 361 819 c 2,38,-1
 332 636 l 2,39,40
 326 593 326 593 324 543 c 128,-1,41
 322 493 322 493 326.5 443 c 128,-1,42
 331 393 331 393 344 346 c 128,-1,43
 357 299 357 299 383 262.5 c 128,-1,44
 409 226 409 226 448.5 203 c 128,-1,45
 488 180 488 180 546 177 c 0,46,47
 615 174 615 174 681 192 c 128,-1,48
 747 210 747 210 798 258 c 1,49,-1
 853 550 l 1,50,-1
 598 550 l 1,51,-1
 631 737 l 1,52,-1
 1115 737 l 1,53,-1
 1028 182 l 1,0,1
EndSplineSet
Substitution2: "'smcp' Lowercase to Small Capitals lookup 0 subtable" G.smcp
EndChar
StartChar: H
Encoding: 72 72 42
Width: 1202
Flags: W
LayerCount: 2
Back
Fore
SplineSet
956 0 m 1,0,-1
 728 0 l 1,1,-1
 841 650 l 1,2,-1
 362 650 l 1,3,-1
 249 0 l 1,4,-1
 21 0 l 1,5,-1
 274 1456 l 1,6,-1
 502 1456 l 1,7,-1
 396 847 l 1,8,-1
 874 847 l 1,9,-1
 980 1456 l 1,10,-1
 1209 1456 l 1,11,-1
 956 0 l 1,0,-1
EndSplineSet
Substitution2: "'smcp' Lowercase to Small Capitals lookup 0 subtable" H.smcp
EndChar
StartChar: J
Encoding: 74 74 44
Width: 1202
Flags: W
LayerCount: 2
Back
Fore
SplineSet
955 1456 m 1,0,-1
 1192 1456 l 1,1,-1
 1021 445 l 2,2,3
 1006 343 1006 343 958 257 c 128,-1,4
 910 171 910 171 838 109 c 128,-1,5
 766 47 766 47 674 12.5 c 128,-1,6
 582 -22 582 -22 479 -20 c 0,7,8
 378 -18 378 -18 301 15 c 128,-1,9
 224 48 224 48 171.5 107 c 128,-1,10
 119 166 119 166 92.5 247 c 128,-1,11
 66 328 66 328 67 426 c 1,12,-1
 303 425 l 1,13,14
 301 374 301 374 310.5 329.5 c 128,-1,15
 320 285 320 285 343 251.5 c 128,-1,16
 366 218 366 218 404 197.5 c 128,-1,17
 442 177 442 177 498 176 c 0,18,19
 556 174 556 174 604.5 196 c 128,-1,20
 653 218 653 218 689.5 255.5 c 128,-1,21
 726 293 726 293 749.5 342.5 c 128,-1,22
 773 392 773 392 782 445 c 2,23,-1
 955 1456 l 1,0,-1
EndSplineSet
Substitution2: "'smcp' Lowercase to Small Capitals lookup 0 subtable" J.smcp
EndChar
StartChar: L
Encoding: 76 76 46
Width: 1202
Flags: W
LayerCount: 2
Back
Fore
SplineSet
330 196 m 1,0,-1
 1004 196 l 1,1,-1
 970 0 l 1,2,-1
 62 0 l 1,3,-1
 315 1456 l 1,4,-1
 549 1456 l 1,5,-1
 330 196 l 1,0,-1
EndSplineSet
Substitution2: "'smcp' Lowercase to Small Capitals lookup 0 subtable" L.smcp
EndChar
StartChar: M
Encoding: 77 77 47
Width: 1202
Flags: W
LayerCount: 2
Back
Fore
SplineSet
566 1456 m 1,0,-1
 631 830 l 1,1,-1
 934 1456 l 1,2,-1
 1228 1456 l 1,3,-1
 975 0 l 1,4,-1
 755 0 l 1,5,-1
 843 510 l 1,6,-1
 963 1119 l 1,7,-1
 632 440 l 1,8,-1
 509 440 l 1,9,-1
 428 1123 l 1,10,-1
 332 490 l 1,11,-1
 247 0 l 1,12,-1
 26 0 l 1,13,-1
 279 1456 l 1,14,-1
 566 1456 l 1,0,-1
EndSplineSet
Substitution2: "'smcp' Lowercase to Small Capitals lookup 0 subtable" M.smcp
EndChar
StartChar: O
Encoding: 79 79 49
Width: 1202
Flags: W
LayerCount: 2
Back
Fore
SplineSet
1110 635 m 2,0,1
 1097 556 1097 556 1072.5 476 c 128,-1,2
 1048 396 1048 396 1011 322.5 c 128,-1,3
 974 249 974 249 924 185.5 c 128,-1,4
 874 122 874 122 810 75.5 c 128,-1,5
 746 29 746 29 669 3.5 c 128,-1,6
 592 -22 592 -22 501 -20 c 0,7,8
 414 -18 414 -18 347.5 11 c 128,-1,9
 281 40 281 40 232.5 88.5 c 128,-1,10
 184 137 184 137 153 200.5 c 128,-1,11
 122 264 122 264 106 336 c 128,-1,12
 90 408 90 408 88 484.5 c 128,-1,13
 86 561 86 561 96 634 c 2,14,-1
 125 820 l 2,15,16
 137 898 137 898 161.5 978 c 128,-1,17
 186 1058 186 1058 222.5 1131.5 c 128,-1,18
 259 1205 259 1205 308 1269 c 128,-1,19
 357 1333 357 1333 420 1379.5 c 128,-1,20
 483 1426 483 1426 559 1452 c 128,-1,21
 635 1478 635 1478 726 1476 c 0,22,23
 813 1474 813 1474 880.5 1445 c 128,-1,24
 948 1416 948 1416 997.5 1368 c 128,-1,25
 1047 1320 1047 1320 1079 1256 c 128,-1,26
 1111 1192 1111 1192 1127.5 1119.5 c 128,-1,27
 1144 1047 1144 1047 1146.5 970.5 c 128,-1,28
 1149 894 1149 894 1139 820 c 2,29,-1
 1110 635 l 2,0,1
904 823 m 2,30,31
 909 863 909 863 912.5 911.5 c 128,-1,32
 916 960 916 960 912.5 1009.5 c 128,-1,33
 909 1059 909 1059 897.5 1105.5 c 128,-1,34
 886 1152 886 1152 862.5 1188.5 c 128,-1,35
 839 1225 839 1225 801.5 1248 c 128,-1,36
 764 1271 764 1271 708 1273 c 0,37,38
 649 1275 649 1275 602.5 1255.5 c 128,-1,39
 556 1236 556 1236 520 1201.5 c 128,-1,40
 484 1167 484 1167 457.5 1121 c 128,-1,41
 431 1075 431 1075 412 1024 c 128,-1,42
 393 973 393 973 380.5 921 c 128,-1,43
 368 869 368 869 360 822 c 2,44,-1
 331 633 l 2,45,46
 325 594 325 594 321.5 545.5 c 128,-1,47
 318 497 318 497 320.5 447.5 c 128,-1,48
 323 398 323 398 334 351 c 128,-1,49
 345 304 345 304 367.5 267 c 128,-1,50
 390 230 390 230 427 206.5 c 128,-1,51
 464 183 464 183 520 181 c 0,52,53
 579 179 579 179 626.5 198.5 c 128,-1,54
 674 218 674 218 710.5 252.5 c 128,-1,55
 747 287 747 287 774.5 333.5 c 128,-1,56
 802 380 802 380 822 431 c 128,-1,57
 842 482 842 482 854.5 534.5 c 128,-1,58
 867 587 867 587 875 634 c 2,59,-1
 904 823 l 2,30,31
EndSplineSet
Substitution2: "'smcp' Lowercase to Small Capitals lookup 0 subtable" O.smcp
EndChar
StartChar: P
Encoding: 80 80 50
Width: 1202
Flags: W
LayerCount: 2
Back
Fore
SplineSet
389 558 m 1,0,-1
 292 0 l 1,1,-1
 57 0 l 1,2,-1
 310 1456 l 1,3,-1
 770 1455 l 2,4,5
 867 1452 867 1452 948 1420 c 128,-1,6
 1029 1388 1029 1388 1086 1330 c 128,-1,7
 1143 1272 1143 1272 1172 1191.5 c 128,-1,8
 1201 1111 1201 1111 1192 1011 c 0,9,10
 1183 901 1183 901 1134.5 817 c 128,-1,11
 1086 733 1086 733 1010.5 675 c 128,-1,12
 935 617 935 617 839 587 c 128,-1,13
 743 557 743 557 640 557 c 2,14,-1
 389 558 l 1,0,-1
422 752 m 1,15,-1
 651 750 l 2,16,17
 709 750 709 750 761.5 768.5 c 128,-1,18
 814 787 814 787 855 820.5 c 128,-1,19
 896 854 896 854 922.5 901.5 c 128,-1,20
 949 949 949 949 956 1009 c 0,21,22
 962 1060 962 1060 952.5 1105 c 128,-1,23
 943 1150 943 1150 918.5 1183.5 c 128,-1,24
 894 1217 894 1217 854.5 1237.5 c 128,-1,25
 815 1258 815 1258 761 1261 c 2,26,-1
 511 1262 l 1,27,-1
 422 752 l 1,15,-1
EndSplineSet
Substitution2: "'smcp' Lowercase to Small Capitals lookup 0 subtable" P.smcp
EndChar
StartChar: Q
Encoding: 81 81 51
Width: 1202
Flags: W
LayerCount: 2
Back
Fore
SplineSet
1118 623 m 2,0,1
 1106 547 1106 547 1083 474.5 c 128,-1,2
 1060 402 1060 402 1025 335.5 c 128,-1,3
 990 269 990 269 942 210.5 c 128,-1,4
 894 152 894 152 833 104 c 1,5,-1
 1036 -115 l 1,6,-1
 867 -251 l 1,7,-1
 637 -3 l 1,8,9
 603 -10 603 -10 569.5 -14.5 c 128,-1,10
 536 -19 536 -19 501 -18 c 0,11,12
 416 -17 416 -17 350 11 c 128,-1,13
 284 39 284 39 235.5 86 c 128,-1,14
 187 133 187 133 154.5 195.5 c 128,-1,15
 122 258 122 258 104.5 329 c 128,-1,16
 87 400 87 400 84 475 c 128,-1,17
 81 550 81 550 91 622 c 2,18,-1
 120 808 l 2,19,20
 133 888 133 888 157.5 969 c 128,-1,21
 182 1050 182 1050 219 1125 c 128,-1,22
 256 1200 256 1200 305.5 1265 c 128,-1,23
 355 1330 355 1330 418.5 1377.5 c 128,-1,24
 482 1425 482 1425 559.5 1451.5 c 128,-1,25
 637 1478 637 1478 730 1476 c 0,26,27
 819 1474 819 1474 887.5 1444.5 c 128,-1,28
 956 1415 956 1415 1005.5 1365.5 c 128,-1,29
 1055 1316 1055 1316 1087 1251 c 128,-1,30
 1119 1186 1119 1186 1136 1112.5 c 128,-1,31
 1153 1039 1153 1039 1155 961 c 128,-1,32
 1157 883 1157 883 1147 808 c 2,33,-1
 1118 623 l 2,0,1
911 812 m 2,34,35
 917 854 917 854 920.5 903.5 c 128,-1,36
 924 953 924 953 921 1003.5 c 128,-1,37
 918 1054 918 1054 906.5 1101.5 c 128,-1,38
 895 1149 895 1149 871 1186.5 c 128,-1,39
 847 1224 847 1224 808 1247.5 c 128,-1,40
 769 1271 769 1271 711 1273 c 0,41,42
 650 1275 650 1275 602 1255 c 128,-1,43
 554 1235 554 1235 517.5 1199.5 c 128,-1,44
 481 1164 481 1164 454 1117 c 128,-1,45
 427 1070 427 1070 407.5 1017.5 c 128,-1,46
 388 965 388 965 376 911.5 c 128,-1,47
 364 858 364 858 356 810 c 2,48,-1
 327 621 l 2,49,50
 321 581 321 581 318 533.5 c 128,-1,51
 315 486 315 486 318.5 437.5 c 128,-1,52
 322 389 322 389 334 344 c 128,-1,53
 346 299 346 299 369.5 263.5 c 128,-1,54
 393 228 393 228 430.5 205.5 c 128,-1,55
 468 183 468 183 523 181 c 0,56,57
 581 179 581 179 628.5 197.5 c 128,-1,58
 676 216 676 216 713 249.5 c 128,-1,59
 750 283 750 283 778 327.5 c 128,-1,60
 806 372 806 372 826.5 421.5 c 128,-1,61
 847 471 847 471 860 522.5 c 128,-1,62
 873 574 873 574 881 622 c 2,63,-1
 911 812 l 2,34,35
EndSplineSet
Substitution2: "'smcp' Lowercase to Small Capitals lookup 0 subtable" Q.smcp
EndChar
StartChar: R
Encoding: 82 82 52
Width: 1202
Flags: W
LayerCount: 2
Back
Fore
SplineSet
617 568 m 1,0,-1
 377 568 l 1,1,-1
 278 0 l 1,2,-1
 44 0 l 1,3,-1
 296 1456 l 1,4,-1
 731 1455 l 2,5,6
 829 1453 829 1453 912.5 1424.5 c 128,-1,7
 996 1396 996 1396 1055.5 1342 c 128,-1,8
 1115 1288 1115 1288 1145.5 1208.5 c 128,-1,9
 1176 1129 1176 1129 1167 1025 c 0,10,11
 1161 950 1161 950 1134.5 887.5 c 128,-1,12
 1108 825 1108 825 1066 775.5 c 128,-1,13
 1024 726 1024 726 967 687.5 c 128,-1,14
 910 649 910 649 842 622 c 1,15,-1
 1037 13 l 1,16,-1
 1036 0 l 1,17,-1
 787 0 l 1,18,-1
 617 568 l 1,0,-1
410 762 m 1,19,-1
 615 760 l 2,20,21
 674 760 674 760 728 777 c 128,-1,22
 782 794 782 794 824.5 827 c 128,-1,23
 867 860 867 860 894.5 907.5 c 128,-1,24
 922 955 922 955 930 1017 c 0,25,26
 944 1127 944 1127 887.5 1191.5 c 128,-1,27
 831 1256 831 1256 722 1261 c 1,28,-1
 497 1262 l 1,29,-1
 410 762 l 1,19,-1
EndSplineSet
Substitution2: "'smcp' Lowercase to Small Capitals lookup 0 subtable" R.smcp
EndChar
StartChar: T
Encoding: 84 84 54
Width: 1202
Flags: W
LayerCount: 2
Back
Fore
SplineSet
1259 1258 m 1,0,-1
 826 1258 l 1,1,-1
 608 0 l 1,2,-1
 375 0 l 1,3,-1
 593 1258 l 1,4,-1
 162 1258 l 1,5,-1
 197 1456 l 1,6,-1
 1294 1456 l 1,7,-1
 1259 1258 l 1,0,-1
EndSplineSet
Substitution2: "'smcp' Lowercase to Small Capitals lookup 0 subtable" T.smcp
EndChar
StartChar: U
Encoding: 85 85 55
Width: 1202
Flags: W
LayerCount: 2
Back
Fore
SplineSet
1213 1456 m 1,0,-1
 1048 483 l 2,1,2
 1032 376 1032 376 987 283.5 c 128,-1,3
 942 191 942 191 871.5 122.5 c 128,-1,4
 801 54 801 54 707.5 16 c 128,-1,5
 614 -22 614 -22 501 -20 c 0,6,7
 396 -18 396 -18 317.5 23.5 c 128,-1,8
 239 65 239 65 189 133.5 c 128,-1,9
 139 202 139 202 118 291.5 c 128,-1,10
 97 381 97 381 108 480 c 1,11,-1
 276 1456 l 1,12,-1
 506 1456 l 1,13,-1
 342 480 l 2,14,15
 336 430 336 430 340.5 377 c 128,-1,16
 345 324 345 324 364.5 280 c 128,-1,17
 384 236 384 236 422 207 c 128,-1,18
 460 178 460 178 521 176 c 0,19,20
 587 173 587 173 637.5 199 c 128,-1,21
 688 225 688 225 724 268.5 c 128,-1,22
 760 312 760 312 782.5 368 c 128,-1,23
 805 424 805 424 814 482 c 2,24,-1
 982 1456 l 1,25,-1
 1213 1456 l 1,0,-1
EndSplineSet
Substitution2: "'smcp' Lowercase to Small Capitals lookup 0 subtable" U.smcp
EndChar
StartChar: V
Encoding: 86 86 56
Width: 1202
Flags: W
LayerCount: 2
Back
Fore
SplineSet
554 368 m 1,0,-1
 1018 1456 l 1,1,-1
 1280 1456 l 1,2,-1
 615 0 l 1,3,-1
 392 0 l 1,4,-1
 184 1456 l 1,5,-1
 433 1456 l 1,6,-1
 554 368 l 1,0,-1
EndSplineSet
Substitution2: "'smcp' Lowercase to Small Capitals lookup 0 subtable" V.smcp
EndChar
StartChar: W
Encoding: 87 87 57
Width: 1202
Flags: W
LayerCount: 2
Back
Fore
SplineSet
824 507 m 1,0,-1
 1074 1456 l 1,1,-1
 1295 1456 l 1,2,-1
 887 0 l 1,3,-1
 663 0 l 1,4,-1
 661 964 l 1,5,-1
 358 0 l 1,6,-1
 134 0 l 1,7,-1
 181 1456 l 1,8,-1
 397 1456 l 1,9,-1
 350 514 l 1,10,-1
 641 1456 l 1,11,-1
 824 1456 l 1,12,-1
 824 507 l 1,0,-1
EndSplineSet
Substitution2: "'smcp' Lowercase to Small Capitals lookup 0 subtable" W.smcp
EndChar
StartChar: X
Encoding: 88 88 58
Width: 1202
Flags: W
LayerCount: 2
Back
Fore
SplineSet
649 915 m 1,0,-1
 1005 1456 l 1,1,-1
 1292 1456 l 1,2,-1
 769 724 l 1,3,-1
 1063 0 l 1,4,-1
 800 0 l 1,5,-1
 607 550 l 1,6,-1
 242 0 l 1,7,-1
 -46 0 l 1,8,-1
 489 744 l 1,9,-1
 204 1456 l 1,10,-1
 467 1456 l 1,11,-1
 649 915 l 1,0,-1
EndSplineSet
Substitution2: "'smcp' Lowercase to Small Capitals lookup 0 subtable" X.smcp
EndChar
StartChar: Y
Encoding: 89 89 59
Width: 1202
Flags: W
LayerCount: 2
Back
Fore
SplineSet
620 762 m 1,0,-1
 1035 1456 l 1,1,-1
 1306 1456 l 1,2,-1
 696 511 l 1,3,-1
 606 0 l 1,4,-1
 378 0 l 1,5,-1
 471 541 l 1,6,-1
 197 1456 l 1,7,-1
 448 1456 l 1,8,-1
 620 762 l 1,0,-1
EndSplineSet
Substitution2: "'smcp' Lowercase to Small Capitals lookup 0 subtable" Y.smcp
EndChar
StartChar: bracketleft
Encoding: 91 91 61
Width: 1202
Flags: W
LayerCount: 2
Back
Fore
SplineSet
951 1489 m 1,0,-1
 764 1489 l 1,1,-1
 510 -136 l 1,2,-1
 698 -136 l 1,3,-1
 668 -323 l 1,4,-1
 253 -323 l 1,5,-1
 566 1677 l 1,6,-1
 981 1677 l 1,7,-1
 951 1489 l 1,0,-1
EndSplineSet
EndChar
StartChar: bracketright
Encoding: 93 93 63
Width: 1202
Flags: W
LayerCount: 2
Back
Fore
SplineSet
556 1677 m 1,0,-1
 972 1677 l 1,1,-1
 660 -323 l 1,2,-1
 243 -323 l 1,3,-1
 273 -136 l 1,4,-1
 462 -136 l 1,5,-1
 716 1489 l 1,6,-1
 526 1489 l 1,7,-1
 556 1677 l 1,0,-1
EndSplineSet
EndChar
StartChar: asciicircum
Encoding: 94 94 64
Width: 1202
Flags: W
LayerCount: 2
Back
Fore
SplineSet
432 683 m 1,0,-1
 222 683 l 1,1,-1
 666 1456 l 1,2,-1
 831 1456 l 1,3,-1
 1006 683 l 1,4,-1
 816 683 l 1,5,-1
 718 1151 l 1,6,-1
 715 1222 l 1,7,-1
 678 1132 l 1,8,-1
 432 683 l 1,0,-1
EndSplineSet
EndChar
StartChar: underscore
Encoding: 95 95 65
Width: 1202
Flags: W
LayerCount: 2
Back
Fore
SplineSet
900 -188 m 1,0,-1
 8 -188 l 1,1,-1
 41 0 l 1,2,-1
 933 0 l 1,3,-1
 900 -188 l 1,0,-1
EndSplineSet
EndChar
StartChar: a
Encoding: 97 97 67
Width: 1202
Flags: W
LayerCount: 2
Back
Fore
SplineSet
726 0 m 1,0,1
 718 26 718 26 717 52 c 128,-1,2
 716 78 716 78 717 105 c 1,3,4
 651 46 651 46 573.5 12.5 c 128,-1,5
 496 -21 496 -21 406 -19 c 0,6,7
 338 -18 338 -18 277 4 c 128,-1,8
 216 26 216 26 171 66.5 c 128,-1,9
 126 107 126 107 101 164.5 c 128,-1,10
 76 222 76 222 80 295 c 0,11,12
 84 366 84 366 108.5 421 c 128,-1,13
 133 476 133 476 172 516.5 c 128,-1,14
 211 557 211 557 262.5 585 c 128,-1,15
 314 613 314 613 372 630.5 c 128,-1,16
 430 648 430 648 491.5 655 c 128,-1,17
 553 662 553 662 614 662 c 2,18,-1
 791 661 l 1,19,-1
 803 734 l 2,20,21
 809 778 809 778 798.5 812.5 c 128,-1,22
 788 847 788 847 764 870.5 c 128,-1,23
 740 894 740 894 705 906.5 c 128,-1,24
 670 919 670 919 627 920 c 0,25,26
 589 921 589 921 555 912.5 c 128,-1,27
 521 904 521 904 493 885.5 c 128,-1,28
 465 867 465 867 446 839 c 128,-1,29
 427 811 427 811 419 772 c 1,30,-1
 186 771 l 1,31,32
 193 857 193 857 238 920 c 128,-1,33
 283 983 283 983 350 1024 c 128,-1,34
 417 1065 417 1065 497 1084.5 c 128,-1,35
 577 1104 577 1104 654 1103 c 0,36,37
 738 1101 738 1101 811.5 1076.5 c 128,-1,38
 885 1052 885 1052 938 1005 c 128,-1,39
 991 958 991 958 1018.5 889 c 128,-1,40
 1046 820 1046 820 1037 730 c 1,41,-1
 958 247 l 2,42,43
 949 190 949 190 946 132 c 128,-1,44
 943 74 943 74 961 18 c 1,45,-1
 959 0 l 1,46,-1
 726 0 l 1,0,1
464 172 m 0,47,48
 544 170 544 170 614 206 c 128,-1,49
 684 242 684 242 733 305 c 1,50,-1
 770 509 l 1,51,-1
 635 510 l 2,52,53
 586 510 586 510 533 502 c 128,-1,54
 480 494 480 494 434 473.5 c 128,-1,55
 388 453 388 453 356 416 c 128,-1,56
 324 379 324 379 317 321 c 0,57,58
 312 284 312 284 321.5 256.5 c 128,-1,59
 331 229 331 229 351 210.5 c 128,-1,60
 371 192 371 192 400 182.5 c 128,-1,61
 429 173 429 173 464 172 c 0,47,48
EndSplineSet
Substitution2: "'smcp' Lowercase to Small Capitals lookup 0 subtable" A.smcp
EndChar
StartChar: b
Encoding: 98 98 68
Width: 1202
Flags: W
LayerCount: 2
Back
Fore
SplineSet
1061 535 m 2,0,1
 1053 468 1053 468 1035 400.5 c 128,-1,2
 1017 333 1017 333 988 270.5 c 128,-1,3
 959 208 959 208 919.5 154 c 128,-1,4
 880 100 880 100 828 60.5 c 128,-1,5
 776 21 776 21 712 -1 c 128,-1,6
 648 -23 648 -23 571 -21 c 0,7,8
 487 -19 487 -19 417 14.5 c 128,-1,9
 347 48 347 48 299 117 c 1,10,-1
 262 0 l 1,11,-1
 49 0 l 1,12,-1
 315 1536 l 1,13,-1
 549 1536 l 1,14,-1
 443 978 l 1,15,16
 502 1040 502 1040 573 1072 c 128,-1,17
 644 1104 644 1104 730 1102 c 0,18,19
 804 1100 804 1100 859.5 1076 c 128,-1,20
 915 1052 915 1052 954 1011.5 c 128,-1,21
 993 971 993 971 1017.5 917.5 c 128,-1,22
 1042 864 1042 864 1054.5 804 c 128,-1,23
 1067 744 1067 744 1068.5 680.5 c 128,-1,24
 1070 617 1070 617 1064 556 c 2,25,-1
 1061 535 l 2,0,1
831 557 m 2,26,27
 835 592 835 592 836.5 631.5 c 128,-1,28
 838 671 838 671 834 709 c 128,-1,29
 830 747 830 747 819 782.5 c 128,-1,30
 808 818 808 818 787 845 c 128,-1,31
 766 872 766 872 734 888.5 c 128,-1,32
 702 905 702 905 655 907 c 0,33,34
 575 909 575 909 516.5 869.5 c 128,-1,35
 458 830 458 830 415 766 c 1,36,-1
 337 317 l 1,37,38
 360 250 360 250 408 213 c 128,-1,39
 456 176 456 176 528 174 c 0,40,41
 603 172 603 172 656.5 204.5 c 128,-1,42
 710 237 710 237 745.5 289.5 c 128,-1,43
 781 342 781 342 800.5 407 c 128,-1,44
 820 472 820 472 828 535 c 2,45,-1
 831 557 l 2,26,27
EndSplineSet
Substitution2: "'smcp' Lowercase to Small Capitals lookup 0 subtable" B.smcp
EndChar
StartChar: d
Encoding: 100 100 70
Width: 1202
Flags: W
LayerCount: 2
Back
Fore
SplineSet
110 543 m 2,0,1
 118 610 118 610 137 678 c 128,-1,2
 156 746 156 746 185.5 809 c 128,-1,3
 215 872 215 872 255.5 926 c 128,-1,4
 296 980 296 980 348.5 1020 c 128,-1,5
 401 1060 401 1060 466 1082 c 128,-1,6
 531 1104 531 1104 608 1102 c 256,7,8
 685 1100 685 1100 750 1071 c 128,-1,9
 815 1042 815 1042 863 983 c 1,10,-1
 966 1536 l 1,11,-1
 1200 1536 l 1,12,-1
 934 0 l 1,13,-1
 724 0 l 1,14,-1
 739 110 l 1,15,16
 679 46 679 46 606 12 c 128,-1,17
 533 -22 533 -22 443 -20 c 0,18,19
 372 -18 372 -18 318 6.5 c 128,-1,20
 264 31 264 31 224.5 71.5 c 128,-1,21
 185 112 185 112 159.5 165.5 c 128,-1,22
 134 219 134 219 120.5 278.5 c 128,-1,23
 107 338 107 338 104.5 400 c 128,-1,24
 102 462 102 462 108 521 c 2,25,-1
 110 543 l 2,0,1
341 521 m 2,26,27
 336 469 336 469 337.5 409.5 c 128,-1,28
 339 350 339 350 356.5 298.5 c 128,-1,29
 374 247 374 247 412 212.5 c 128,-1,30
 450 178 450 178 518 176 c 0,31,32
 595 174 595 174 652 210 c 128,-1,33
 709 246 709 246 752 306 c 1,34,-1
 835 778 l 1,35,36
 811 840 811 840 764 872.5 c 128,-1,37
 717 905 717 905 651 907 c 0,38,39
 576 909 576 909 521 876 c 128,-1,40
 466 843 466 843 429.5 790 c 128,-1,41
 393 737 393 737 372 671 c 128,-1,42
 351 605 351 605 344 542 c 2,43,-1
 341 521 l 2,26,27
EndSplineSet
Substitution2: "'smcp' Lowercase to Small Capitals lookup 0 subtable" D.smcp
EndChar
StartChar: e
Encoding: 101 101 71
Width: 1202
Flags: W
LayerCount: 2
Back
Fore
SplineSet
547 -20 m 0,0,1
 437 -18 437 -18 350 23.5 c 128,-1,2
 263 65 263 65 205.5 135 c 128,-1,3
 148 205 148 205 121 298.5 c 128,-1,4
 94 392 94 392 104 499 c 2,5,-1
 109 541 l 2,6,7
 117 614 117 614 141 685 c 128,-1,8
 165 756 165 756 202.5 819 c 128,-1,9
 240 882 240 882 290 934.5 c 128,-1,10
 340 987 340 987 401.5 1025 c 128,-1,11
 463 1063 463 1063 533.5 1083.5 c 128,-1,12
 604 1104 604 1104 683 1102 c 0,13,14
 797 1099 797 1099 876.5 1054 c 128,-1,15
 956 1009 956 1009 1003.5 935 c 128,-1,16
 1051 861 1051 861 1067.5 765.5 c 128,-1,17
 1084 670 1084 670 1071 567 c 2,18,-1
 1056 466 l 1,19,-1
 334 466 l 1,20,21
 329 408 329 408 342.5 355.5 c 128,-1,22
 356 303 356 303 386.5 262.5 c 128,-1,23
 417 222 417 222 463.5 197.5 c 128,-1,24
 510 173 510 173 572 172 c 0,25,26
 660 169 660 169 737.5 205 c 128,-1,27
 815 241 815 241 875 304 c 1,28,-1
 992 182 l 1,29,30
 955 129 955 129 904.5 90.5 c 128,-1,31
 854 52 854 52 795 27 c 128,-1,32
 736 2 736 2 672.5 -9.5 c 128,-1,33
 609 -21 609 -21 547 -20 c 0,0,1
665 910 m 0,34,35
 605 912 605 912 557 889 c 128,-1,36
 509 866 509 866 471.5 828 c 128,-1,37
 434 790 434 790 406 741 c 128,-1,38
 378 692 378 692 359 642 c 1,39,-1
 851 641 l 1,40,-1
 855 662 l 2,41,42
 862 711 862 711 853 755 c 128,-1,43
 844 799 844 799 819 833 c 128,-1,44
 794 867 794 867 755 887.5 c 128,-1,45
 716 908 716 908 665 910 c 0,34,35
EndSplineSet
Substitution2: "'smcp' Lowercase to Small Capitals lookup 0 subtable" E.smcp
EndChar
StartChar: f
Encoding: 102 102 72
Width: 1202
Flags: W
LayerCount: 2
Back
Fore
SplineSet
310 0 m 1,0,-1
 467 904 l 1,1,-1
 184 904 l 1,2,-1
 215 1082 l 1,3,-1
 493 1082 l 1,4,-1
 504 1149 l 2,5,6
 520 1251 520 1251 562.5 1332 c 128,-1,7
 605 1413 605 1413 670 1469 c 128,-1,8
 735 1525 735 1525 821.5 1554 c 128,-1,9
 908 1583 908 1583 1012 1582 c 0,10,11
 1078 1581 1078 1581 1142 1570 c 128,-1,12
 1206 1559 1206 1559 1270 1546 c 1,13,-1
 1228 1356 l 1,14,15
 1180 1370 1180 1370 1130 1378 c 128,-1,16
 1080 1386 1080 1386 1029 1387 c 0,17,18
 909 1388 909 1388 835 1328 c 128,-1,19
 761 1268 761 1268 738 1150 c 2,20,-1
 725 1081 l 1,21,-1
 1122 1082 l 1,22,-1
 1090 904 l 1,23,-1
 701 904 l 1,24,-1
 544 0 l 1,25,-1
 310 0 l 1,0,-1
EndSplineSet
Substitution2: "'smcp' Lowercase to Small Capitals lookup 0 subtable" F.smcp
EndChar
StartChar: g
Encoding: 103 103 73
Width: 1202
Flags: W
LayerCount: 2
Back
Fore
SplineSet
111 542 m 2,0,1
 119 610 119 610 138.5 678.5 c 128,-1,2
 158 747 158 747 188 810 c 128,-1,3
 218 873 218 873 259 927 c 128,-1,4
 300 981 300 981 353.5 1020.5 c 128,-1,5
 407 1060 407 1060 472 1082 c 128,-1,6
 537 1104 537 1104 615 1102 c 0,7,8
 696 1100 696 1100 764.5 1069.5 c 128,-1,9
 833 1039 833 1039 881 973 c 1,10,-1
 916 1082 l 1,11,-1
 1129 1082 l 1,12,-1
 950 29 l 2,13,14
 935 -77 935 -77 888.5 -162.5 c 128,-1,15
 842 -248 842 -248 771 -307.5 c 128,-1,16
 700 -367 700 -367 607.5 -398 c 128,-1,17
 515 -429 515 -429 408 -427 c 0,18,19
 354 -426 354 -426 301 -414 c 128,-1,20
 248 -402 248 -402 199.5 -379.5 c 128,-1,21
 151 -357 151 -357 108.5 -324 c 128,-1,22
 66 -291 66 -291 34 -248 c 1,23,-1
 158 -102 l 1,24,25
 204 -165 204 -165 266.5 -200.5 c 128,-1,26
 329 -236 329 -236 408 -238 c 0,27,28
 470 -240 470 -240 522 -222 c 128,-1,29
 574 -204 574 -204 614 -169.5 c 128,-1,30
 654 -135 654 -135 681 -86.5 c 128,-1,31
 708 -38 708 -38 720 22 c 2,32,-1
 735 96 l 1,33,34
 675 39 675 39 604.5 9 c 128,-1,35
 534 -21 534 -21 450 -19 c 0,36,37
 379 -18 379 -18 324 6.5 c 128,-1,38
 269 31 269 31 229 71 c 128,-1,39
 189 111 189 111 163 164 c 128,-1,40
 137 217 137 217 123 276.5 c 128,-1,41
 109 336 109 336 106 398.5 c 128,-1,42
 103 461 103 461 109 521 c 2,43,-1
 111 542 l 2,0,1
343 521 m 2,44,45
 337 468 337 468 339.5 408.5 c 128,-1,46
 342 349 342 349 360.5 298 c 128,-1,47
 379 247 379 247 418 212.5 c 128,-1,48
 457 178 457 178 525 176 c 0,49,50
 601 174 601 174 658 208.5 c 128,-1,51
 715 243 715 243 759 302 c 1,52,-1
 843 782 l 1,53,54
 791 904 791 904 658 907 c 0,55,56
 583 909 583 909 527.5 876.5 c 128,-1,57
 472 844 472 844 434.5 790.5 c 128,-1,58
 397 737 397 737 375.5 671.5 c 128,-1,59
 354 606 354 606 346 542 c 2,60,-1
 343 521 l 2,44,45
EndSplineSet
Substitution2: "'smcp' Lowercase to Small Capitals lookup 0 subtable" G.smcp
EndChar
StartChar: h
Encoding: 104 104 74
Width: 1202
Flags: W
LayerCount: 2
Back
Fore
SplineSet
432 931 m 1,0,1
 463 969 463 969 499 1001 c 128,-1,2
 535 1033 535 1033 576 1055.5 c 128,-1,3
 617 1078 617 1078 662.5 1090.5 c 128,-1,4
 708 1103 708 1103 759 1102 c 0,5,6
 853 1100 853 1100 916.5 1063.5 c 128,-1,7
 980 1027 980 1027 1016.5 967 c 128,-1,8
 1053 907 1053 907 1064.5 829 c 128,-1,9
 1076 751 1076 751 1067 667 c 1,10,-1
 955 0 l 1,11,-1
 722 0 l 1,12,-1
 834 670 l 2,13,14
 840 718 840 718 834 760 c 128,-1,15
 828 802 828 802 808.5 834 c 128,-1,16
 789 866 789 866 754.5 884.5 c 128,-1,17
 720 903 720 903 667 905 c 0,18,19
 591 907 591 907 529.5 874 c 128,-1,20
 468 841 468 841 417 787 c 1,21,-1
 279 0 l 1,22,-1
 46 0 l 1,23,-1
 312 1536 l 1,24,-1
 546 1536 l 1,25,-1
 432 931 l 1,0,1
EndSplineSet
Substitution2: "'smcp' Lowercase to Small Capitals lookup 0 subtable" H.smcp
EndChar
StartChar: i
Encoding: 105 105 75
Width: 1202
Flags: W
LayerCount: 2
Back
Fore
SplineSet
284 1082 m 1,0,-1
 845 1082 l 1,1,-1
 692 198 l 1,2,-1
 1004 198 l 1,3,-1
 969 0 l 1,4,-1
 96 0 l 1,5,-1
 131 198 l 1,6,-1
 456 198 l 1,7,-1
 575 883 l 1,8,-1
 249 883 l 1,9,-1
 284 1082 l 1,0,-1
639 1358 m 256,10,11
 639 1387 639 1387 649 1411 c 128,-1,12
 659 1435 659 1435 677 1453 c 128,-1,13
 695 1471 695 1471 719.5 1481 c 128,-1,14
 744 1491 744 1491 773 1492 c 0,15,16
 801 1493 801 1493 825.5 1484 c 128,-1,17
 850 1475 850 1475 868.5 1458.5 c 128,-1,18
 887 1442 887 1442 897.5 1418.5 c 128,-1,19
 908 1395 908 1395 908 1366 c 256,20,21
 908 1337 908 1337 897 1312.5 c 128,-1,22
 886 1288 886 1288 868 1270 c 128,-1,23
 850 1252 850 1252 825 1242 c 128,-1,24
 800 1232 800 1232 772 1232 c 0,25,26
 744 1231 744 1231 719.5 1240 c 128,-1,27
 695 1249 695 1249 677 1265.5 c 128,-1,28
 659 1282 659 1282 649 1305.5 c 128,-1,29
 639 1329 639 1329 639 1358 c 256,10,11
EndSplineSet
Substitution2: "'smcp' Lowercase to Small Capitals lookup 0 subtable" I.smcp
EndChar
StartChar: j
Encoding: 106 106 76
Width: 1202
Flags: W
LayerCount: 2
Back
Fore
SplineSet
377 1082 m 1,0,-1
 916 1082 l 1,1,-1
 729 -17 l 2,2,3
 714 -119 714 -119 674 -198 c 128,-1,4
 634 -277 634 -277 571 -330.5 c 128,-1,5
 508 -384 508 -384 423.5 -411.5 c 128,-1,6
 339 -439 339 -439 236 -438 c 0,7,8
 137 -438 137 -438 40 -420 c 1,9,-1
 76 -226 l 1,10,11
 155 -241 155 -241 238 -241 c 0,12,13
 292 -242 292 -242 335.5 -227 c 128,-1,14
 379 -212 379 -212 411 -183 c 128,-1,15
 443 -154 443 -154 464 -112 c 128,-1,16
 485 -70 485 -70 493 -17 c 2,17,-1
 646 883 l 1,18,-1
 342 883 l 1,19,-1
 377 1082 l 1,0,-1
709 1358 m 256,20,21
 709 1387 709 1387 719 1411 c 128,-1,22
 729 1435 729 1435 747 1453 c 128,-1,23
 765 1471 765 1471 789.5 1481 c 128,-1,24
 814 1491 814 1491 843 1492 c 0,25,26
 871 1493 871 1493 895.5 1484 c 128,-1,27
 920 1475 920 1475 938 1458.5 c 128,-1,28
 956 1442 956 1442 966.5 1418.5 c 128,-1,29
 977 1395 977 1395 977 1366 c 256,30,31
 977 1337 977 1337 966.5 1312.5 c 128,-1,32
 956 1288 956 1288 938 1270.5 c 128,-1,33
 920 1253 920 1253 895.5 1243 c 128,-1,34
 871 1233 871 1233 842 1232 c 0,35,36
 814 1231 814 1231 789.5 1240 c 128,-1,37
 765 1249 765 1249 747 1265.5 c 128,-1,38
 729 1282 729 1282 719 1305.5 c 128,-1,39
 709 1329 709 1329 709 1358 c 256,20,21
EndSplineSet
Substitution2: "'smcp' Lowercase to Small Capitals lookup 0 subtable" J.smcp
EndChar
StartChar: k
Encoding: 107 107 77
Width: 1202
Flags: W
LayerCount: 2
Back
Fore
SplineSet
495 471 m 1,0,-1
 339 340 l 1,1,-1
 280 0 l 1,2,-1
 47 0 l 1,3,-1
 313 1536 l 1,4,-1
 547 1536 l 1,5,-1
 391 642 l 1,6,-1
 501 747 l 1,7,-1
 865 1082 l 1,8,-1
 1161 1081 l 1,9,-1
 668 622 l 1,10,-1
 1020 0 l 1,11,-1
 745 0 l 1,12,-1
 495 471 l 1,0,-1
EndSplineSet
Substitution2: "'smcp' Lowercase to Small Capitals lookup 0 subtable" K.smcp
EndChar
StartChar: l
Encoding: 108 108 78
Width: 1202
Flags: W
LayerCount: 2
Back
Fore
SplineSet
355 1536 m 1,0,-1
 924 1536 l 1,1,-1
 692 198 l 1,2,-1
 1012 198 l 1,3,-1
 977 0 l 1,4,-1
 88 0 l 1,5,-1
 123 198 l 1,6,-1
 456 198 l 1,7,-1
 654 1337 l 1,8,-1
 320 1337 l 1,9,-1
 355 1536 l 1,0,-1
EndSplineSet
Substitution2: "'smcp' Lowercase to Small Capitals lookup 0 subtable" L.smcp
EndChar
StartChar: m
Encoding: 109 109 79
Width: 1202
Flags: W
LayerCount: 2
Back
Fore
SplineSet
367 1083 m 1,0,-1
 345 967 l 1,1,2
 385 1028 385 1028 439 1065.5 c 128,-1,3
 493 1103 493 1103 568 1102 c 0,4,5
 628 1102 628 1102 671.5 1075.5 c 128,-1,6
 715 1049 715 1049 732 989 c 1,7,8
 773 1040 773 1040 823 1071.5 c 128,-1,9
 873 1103 873 1103 941 1101 c 0,10,11
 1005 1100 1005 1100 1045.5 1071.5 c 128,-1,12
 1086 1043 1086 1043 1107.5 998.5 c 128,-1,13
 1129 954 1129 954 1134.5 899 c 128,-1,14
 1140 844 1140 844 1135 790 c 2,15,-1
 1004 0 l 1,16,-1
 787 0 l 1,17,-1
 920 794 l 2,18,19
 922 815 922 815 921 835 c 128,-1,20
 920 855 920 855 912.5 871 c 128,-1,21
 905 887 905 887 889.5 896.5 c 128,-1,22
 874 906 874 906 849 906 c 0,23,24
 811 906 811 906 786 886.5 c 128,-1,25
 761 867 761 867 741 836 c 1,26,-1
 596 0 l 1,27,-1
 384 0 l 1,28,-1
 518 793 l 2,29,30
 520 814 520 814 519 834 c 128,-1,31
 518 854 518 854 511 870 c 128,-1,32
 504 886 504 886 489.5 896 c 128,-1,33
 475 906 475 906 450 906 c 0,34,35
 412 907 412 907 386 888 c 128,-1,36
 360 869 360 869 339 840 c 1,37,-1
 194 0 l 1,38,-1
 -23 0 l 1,39,-1
 165 1082 l 1,40,-1
 367 1083 l 1,0,-1
EndSplineSet
Substitution2: "'smcp' Lowercase to Small Capitals lookup 0 subtable" M.smcp
EndChar
StartChar: n
Encoding: 110 110 80
Width: 1202
Flags: W
LayerCount: 2
Back
Fore
SplineSet
443 1083 m 1,0,-1
 423 931 l 1,1,2
 489 1009 489 1009 573.5 1056.5 c 128,-1,3
 658 1104 658 1104 763 1102 c 0,4,5
 856 1100 856 1100 918 1064.5 c 128,-1,6
 980 1029 980 1029 1015.5 970.5 c 128,-1,7
 1051 912 1051 912 1062.5 835.5 c 128,-1,8
 1074 759 1074 759 1065 676 c 1,9,-1
 952 0 l 1,10,-1
 719 0 l 1,11,-1
 831 673 l 2,12,13
 837 723 837 723 832 765 c 128,-1,14
 827 807 827 807 808 838 c 128,-1,15
 789 869 789 869 754 887 c 128,-1,16
 719 905 719 905 664 906 c 0,17,18
 625 907 625 907 590 898 c 128,-1,19
 555 889 555 889 524.5 871.5 c 128,-1,20
 494 854 494 854 466.5 830 c 128,-1,21
 439 806 439 806 415 777 c 1,22,-1
 280 0 l 1,23,-1
 46 0 l 1,24,-1
 234 1082 l 1,25,-1
 443 1083 l 1,0,-1
EndSplineSet
Substitution2: "'smcp' Lowercase to Small Capitals lookup 0 subtable" N.smcp
EndChar
StartChar: o
Encoding: 111 111 81
Width: 1202
Flags: W
LayerCount: 2
Back
Fore
SplineSet
99 544 m 2,0,1
 113 656 113 656 157.5 758.5 c 128,-1,2
 202 861 202 861 274.5 938 c 128,-1,3
 347 1015 347 1015 445.5 1060 c 128,-1,4
 544 1105 544 1105 665 1102 c 0,5,6
 780 1099 780 1099 862.5 1052.5 c 128,-1,7
 945 1006 945 1006 995.5 930 c 128,-1,8
 1046 854 1046 854 1065.5 756.5 c 128,-1,9
 1085 659 1085 659 1074 554 c 2,10,-1
 1072 532 l 2,11,12
 1058 420 1058 420 1013 318.5 c 128,-1,13
 968 217 968 217 895.5 140.5 c 128,-1,14
 823 64 823 64 724.5 20 c 128,-1,15
 626 -24 626 -24 506 -21 c 0,16,17
 392 -18 392 -18 309.5 28 c 128,-1,18
 227 74 227 74 176 149 c 128,-1,19
 125 224 125 224 105.5 321 c 128,-1,20
 86 418 86 418 97 523 c 2,21,-1
 99 544 l 2,0,1
330 523 m 2,22,23
 326 486 326 486 325.5 446 c 128,-1,24
 325 406 325 406 331 367 c 128,-1,25
 337 328 337 328 350 293 c 128,-1,26
 363 258 363 258 386 231 c 128,-1,27
 409 204 409 204 442.5 187 c 128,-1,28
 476 170 476 170 523 169 c 0,29,30
 598 166 598 166 653.5 199 c 128,-1,31
 709 232 709 232 747 285 c 128,-1,32
 785 338 785 338 807.5 404 c 128,-1,33
 830 470 830 470 838 533 c 2,34,-1
 840 553 l 2,35,36
 846 608 846 608 843 670 c 128,-1,37
 840 732 840 732 820.5 784.5 c 128,-1,38
 801 837 801 837 759.5 872.5 c 128,-1,39
 718 908 718 908 648 910 c 0,40,41
 573 912 573 912 517 879 c 128,-1,42
 461 846 461 846 423 792.5 c 128,-1,43
 385 739 385 739 362.5 673 c 128,-1,44
 340 607 340 607 332 544 c 2,45,-1
 330 523 l 2,22,23
EndSplineSet
Substitution2: "'smcp' Lowercase to Small Capitals lookup 0 subtable" O.smcp
EndChar
StartChar: p
Encoding: 112 112 82
Width: 1202
Flags: W
LayerCount: 2
Back
Fore
SplineSet
1058 536 m 2,0,1
 1050 470 1050 470 1032 402.5 c 128,-1,2
 1014 335 1014 335 985 272.5 c 128,-1,3
 956 210 956 210 916 155.5 c 128,-1,4
 876 101 876 101 824.5 61.5 c 128,-1,5
 773 22 773 22 709 -0.5 c 128,-1,6
 645 -23 645 -23 568 -21 c 0,7,8
 490 -19 490 -19 422.5 9 c 128,-1,9
 355 37 355 37 304 97 c 1,10,-1
 208 -416 l 1,11,-1
 -25 -416 l 1,12,-1
 234 1082 l 1,13,-1
 447 1083 l 1,14,-1
 431 973 l 1,15,16
 491 1036 491 1036 564 1070 c 128,-1,17
 637 1104 637 1104 726 1102 c 0,18,19
 800 1100 800 1100 855.5 1076 c 128,-1,20
 911 1052 911 1052 950.5 1012 c 128,-1,21
 990 972 990 972 1014.5 919 c 128,-1,22
 1039 866 1039 866 1051.5 806 c 128,-1,23
 1064 746 1064 746 1065.5 682.5 c 128,-1,24
 1067 619 1067 619 1060 558 c 2,25,-1
 1058 536 l 2,0,1
827 558 m 2,26,27
 831 593 831 593 831.5 632 c 128,-1,28
 832 671 832 671 827.5 709 c 128,-1,29
 823 747 823 747 811 782.5 c 128,-1,30
 799 818 799 818 777.5 845 c 128,-1,31
 756 872 756 872 724 888.5 c 128,-1,32
 692 905 692 905 646 906 c 0,33,34
 571 908 571 908 515 874 c 128,-1,35
 459 840 459 840 416 782 c 1,36,-1
 332 295 l 1,37,38
 356 234 356 234 403 203 c 128,-1,39
 450 172 450 172 517 170 c 0,40,41
 567 168 567 168 607.5 183 c 128,-1,42
 648 198 648 198 680.5 225 c 128,-1,43
 713 252 713 252 737.5 288.5 c 128,-1,44
 762 325 762 325 779.5 366 c 128,-1,45
 797 407 797 407 807.5 451 c 128,-1,46
 818 495 818 495 824 537 c 2,47,-1
 827 558 l 2,26,27
EndSplineSet
Substitution2: "'smcp' Lowercase to Small Capitals lookup 0 subtable" P.smcp
EndChar
StartChar: q
Encoding: 113 113 83
Width: 1202
Flags: W
LayerCount: 2
Back
Fore
SplineSet
112 543 m 2,0,1
 124 646 124 646 159.5 747 c 128,-1,2
 195 848 195 848 256.5 928 c 128,-1,3
 318 1008 318 1008 406 1056.5 c 128,-1,4
 494 1105 494 1105 612 1102 c 0,5,6
 691 1100 691 1100 758.5 1069.5 c 128,-1,7
 826 1039 826 1039 875 976 c 1,8,-1
 911 1082 l 1,9,-1
 1122 1082 l 1,10,-1
 862 -416 l 1,11,-1
 628 -416 l 1,12,-1
 725 92 l 1,13,14
 667 36 667 36 597.5 7 c 128,-1,15
 528 -22 528 -22 447 -20 c 0,16,17
 375 -19 375 -19 320 5.5 c 128,-1,18
 265 30 265 30 225.5 70.5 c 128,-1,19
 186 111 186 111 160.5 164 c 128,-1,20
 135 217 135 217 121.5 277 c 128,-1,21
 108 337 108 337 105.5 399.5 c 128,-1,22
 103 462 103 462 109 522 c 2,23,-1
 112 543 l 2,0,1
342 522 m 2,24,25
 337 470 337 470 338.5 409.5 c 128,-1,26
 340 349 340 349 358 296.5 c 128,-1,27
 376 244 376 244 414.5 208.5 c 128,-1,28
 453 173 453 173 521 171 c 0,29,30
 596 169 596 169 651.5 203 c 128,-1,31
 707 237 707 237 751 294 c 1,32,-1
 838 792 l 1,33,34
 812 850 812 850 765.5 879 c 128,-1,35
 719 908 719 908 655 910 c 0,36,37
 580 912 580 912 525 879 c 128,-1,38
 470 846 470 846 432.5 792.5 c 128,-1,39
 395 739 395 739 374 673 c 128,-1,40
 353 607 353 607 345 543 c 2,41,-1
 342 522 l 2,24,25
EndSplineSet
Substitution2: "'smcp' Lowercase to Small Capitals lookup 0 subtable" Q.smcp
EndChar
StartChar: r
Encoding: 114 114 84
Width: 1202
Flags: W
LayerCount: 2
Back
Fore
SplineSet
945 1104 m 0,0,1
 995 1103 995 1103 1045 1096.5 c 128,-1,2
 1095 1090 1095 1090 1143 1074 c 1,3,-1
 1081 840 l 1,4,5
 1030 852 1030 852 979.5 859.5 c 128,-1,6
 929 867 929 867 876 868 c 0,7,8
 764 869 764 869 681.5 820.5 c 128,-1,9
 599 772 599 772 542 677 c 1,10,-1
 424 0 l 1,11,-1
 191 0 l 1,12,-1
 379 1082 l 1,13,-1
 597 1083 l 1,14,-1
 570 912 l 1,15,16
 606 955 606 955 647.5 990.5 c 128,-1,17
 689 1026 689 1026 736 1051.5 c 128,-1,18
 783 1077 783 1077 835 1090.5 c 128,-1,19
 887 1104 887 1104 945 1104 c 0,0,1
EndSplineSet
Substitution2: "'smcp' Lowercase to Small Capitals lookup 0 subtable" R.smcp
EndChar
StartChar: s
Encoding: 115 115 85
Width: 1202
Flags: W
LayerCount: 2
Back
Fore
SplineSet
787 299 m 256,0,1
 793 341 793 341 771.5 367 c 128,-1,2
 750 393 750 393 716 409 c 128,-1,3
 682 425 682 425 642.5 434 c 128,-1,4
 603 443 603 443 575 450 c 0,5,6
 534 460 534 460 490 473 c 128,-1,7
 446 486 446 486 404.5 504 c 128,-1,8
 363 522 363 522 325.5 546.5 c 128,-1,9
 288 571 288 571 261 603 c 128,-1,10
 234 635 234 635 218.5 675.5 c 128,-1,11
 203 716 203 716 206 767 c 0,12,13
 209 825 209 825 230 872.5 c 128,-1,14
 251 920 251 920 286 957.5 c 128,-1,15
 321 995 321 995 367 1023 c 128,-1,16
 413 1051 413 1051 464 1068.5 c 128,-1,17
 515 1086 515 1086 568 1094.5 c 128,-1,18
 621 1103 621 1103 672 1102 c 0,19,20
 751 1101 751 1101 825.5 1079.5 c 128,-1,21
 900 1058 900 1058 957.5 1015 c 128,-1,22
 1015 972 1015 972 1049 907.5 c 128,-1,23
 1083 843 1083 843 1082 756 c 1,24,-1
 850 757 l 1,25,26
 851 798 851 798 836 828.5 c 128,-1,27
 821 859 821 859 795.5 879.5 c 128,-1,28
 770 900 770 900 735.5 910 c 128,-1,29
 701 920 701 920 662 920 c 0,30,31
 627 920 627 920 589 913 c 128,-1,32
 551 906 551 906 518.5 889.5 c 128,-1,33
 486 873 486 873 462.5 845.5 c 128,-1,34
 439 818 439 818 433 778 c 0,35,36
 427 737 427 737 445.5 712 c 128,-1,37
 464 687 464 687 495 672 c 128,-1,38
 526 657 526 657 562.5 649 c 128,-1,39
 599 641 599 641 628 635 c 0,40,41
 671 625 671 625 717 612.5 c 128,-1,42
 763 600 763 600 807 582.5 c 128,-1,43
 851 565 851 565 890 541 c 128,-1,44
 929 517 929 517 958 484 c 128,-1,45
 987 451 987 451 1002.5 409 c 128,-1,46
 1018 367 1018 367 1016 313 c 0,47,48
 1011 221 1011 221 964 157 c 128,-1,49
 917 93 917 93 846 53 c 128,-1,50
 775 13 775 13 691 -5 c 128,-1,51
 607 -23 607 -23 529 -21 c 0,52,53
 448 -20 448 -20 370 3.5 c 128,-1,54
 292 27 292 27 231.5 72 c 128,-1,55
 171 117 171 117 134.5 184.5 c 128,-1,56
 98 252 98 252 99 342 c 1,57,-1
 325 341 l 1,58,59
 326 294 326 294 343.5 260 c 128,-1,60
 361 226 361 226 390 204 c 128,-1,61
 419 182 419 182 458 171 c 128,-1,62
 497 160 497 160 541 160 c 0,63,64
 576 160 576 160 616.5 166 c 128,-1,65
 657 172 657 172 693 187.5 c 128,-1,66
 729 203 729 203 755 230 c 128,-1,67
 781 257 781 257 787 299 c 256,0,1
EndSplineSet
Substitution2: "'smcp' Lowercase to Small Capitals lookup 0 subtable" S.smcp
EndChar
StartChar: t
Encoding: 116 116 86
Width: 1202
Flags: W
LayerCount: 2
Back
Fore
SplineSet
745 1344 m 1,0,-1
 699 1082 l 1,1,-1
 1097 1082 l 1,2,-1
 1065 904 l 1,3,-1
 669 904 l 1,4,-1
 583 384 l 2,5,6
 578 341 578 341 582 304.5 c 128,-1,7
 586 268 586 268 602 240.5 c 128,-1,8
 618 213 618 213 647.5 196.5 c 128,-1,9
 677 180 677 180 724 179 c 0,10,11
 782 177 782 177 839 187 c 128,-1,12
 896 197 896 197 953 209 c 1,13,-1
 963 42 l 1,14,15
 929 22 929 22 890 10 c 128,-1,16
 851 -2 851 -2 810 -9 c 128,-1,17
 769 -16 769 -16 728 -18.5 c 128,-1,18
 687 -21 687 -21 648 -20 c 0,19,20
 562 -19 562 -19 501 12.5 c 128,-1,21
 440 44 440 44 403.5 97 c 128,-1,22
 367 150 367 150 353.5 220.5 c 128,-1,23
 340 291 340 291 348 372 c 1,24,-1
 435 904 l 1,25,-1
 179 904 l 1,26,-1
 210 1082 l 1,27,-1
 466 1082 l 1,28,-1
 512 1344 l 1,29,-1
 745 1344 l 1,0,-1
EndSplineSet
Substitution2: "'smcp' Lowercase to Small Capitals lookup 0 subtable" T.smcp
EndChar
StartChar: u
Encoding: 117 117 87
Width: 1202
Flags: W
LayerCount: 2
Back
Fore
SplineSet
754 148 m 1,0,1
 724 110 724 110 688.5 78.5 c 128,-1,2
 653 47 653 47 613 24.5 c 128,-1,3
 573 2 573 2 528 -10 c 128,-1,4
 483 -22 483 -22 433 -21 c 0,5,6
 335 -19 335 -19 272.5 22 c 128,-1,7
 210 63 210 63 176.5 128.5 c 128,-1,8
 143 194 143 194 134.5 276 c 128,-1,9
 126 358 126 358 135 442 c 1,10,-1
 241 1082 l 1,11,-1
 475 1082 l 1,12,-1
 368 439 l 2,13,14
 363 394 363 394 362 347.5 c 128,-1,15
 361 301 361 301 373 263.5 c 128,-1,16
 385 226 385 226 415 201.5 c 128,-1,17
 445 177 445 177 502 176 c 0,18,19
 587 173 587 173 651.5 208.5 c 128,-1,20
 716 244 716 244 763 313 c 1,21,-1
 897 1082 l 1,22,-1
 1131 1082 l 1,23,-1
 944 0 l 1,24,-1
 734 0 l 1,25,-1
 754 148 l 1,0,1
EndSplineSet
Substitution2: "'smcp' Lowercase to Small Capitals lookup 0 subtable" U.smcp
EndChar
StartChar: v
Encoding: 118 118 88
Width: 1202
Flags: W
LayerCount: 2
Back
Fore
SplineSet
531 302 m 1,0,-1
 535 226 l 1,1,-1
 567 310 l 1,2,-1
 940 1082 l 1,3,-1
 1188 1082 l 1,4,-1
 608 0 l 1,5,-1
 407 0 l 1,6,-1
 161 1082 l 1,7,-1
 389 1083 l 1,8,-1
 531 302 l 1,0,-1
EndSplineSet
Substitution2: "'smcp' Lowercase to Small Capitals lookup 0 subtable" V.smcp
EndChar
StartChar: w
Encoding: 119 119 89
Width: 1202
Flags: W
LayerCount: 2
Back
Fore
SplineSet
305 356 m 1,0,-1
 297 285 l 1,1,-1
 321 356 l 1,2,-1
 598 1082 l 1,3,-1
 751 1082 l 1,4,-1
 775 348 l 1,5,-1
 772 274 l 1,6,-1
 799 364 l 1,7,-1
 1024 1082 l 1,8,-1
 1240 1082 l 1,9,-1
 847 0 l 1,10,-1
 651 0 l 1,11,-1
 620 724 l 1,12,-1
 621 741 l 1,13,-1
 615 724 l 1,14,-1
 333 0 l 1,15,-1
 137 0 l 1,16,-1
 121 1082 l 1,17,-1
 321 1083 l 1,18,-1
 305 356 l 1,0,-1
EndSplineSet
Substitution2: "'smcp' Lowercase to Small Capitals lookup 0 subtable" W.smcp
EndChar
StartChar: x
Encoding: 120 120 90
Width: 1202
Flags: W
LayerCount: 2
Back
Fore
SplineSet
621 717 m 1,0,-1
 928 1082 l 1,1,-1
 1200 1082 l 1,2,-1
 738 540 l 1,3,-1
 1030 0 l 1,4,-1
 785 0 l 1,5,-1
 584 378 l 1,6,-1
 266 0 l 1,7,-1
 -7 0 l 1,8,-1
 470 558 l 1,9,-1
 187 1082 l 1,10,-1
 432 1082 l 1,11,-1
 621 717 l 1,0,-1
EndSplineSet
Substitution2: "'smcp' Lowercase to Small Capitals lookup 0 subtable" X.smcp
EndChar
StartChar: y
Encoding: 121 121 91
Width: 1202
Flags: W
LayerCount: 2
Back
Fore
SplineSet
536 421 m 1,0,-1
 551 306 l 1,1,-1
 980 1082 l 1,2,-1
 1248 1082 l 1,3,-1
 502 -164 l 2,4,5
 470 -219 470 -219 431 -269 c 128,-1,6
 392 -319 392 -319 344.5 -357 c 128,-1,7
 297 -395 297 -395 239.5 -417 c 128,-1,8
 182 -439 182 -439 114 -439 c 0,9,10
 81 -438 81 -438 48.5 -432.5 c 128,-1,11
 16 -427 16 -427 -16 -419 c 1,12,-1
 36 -234 l 1,13,14
 58 -236 58 -236 80 -238.5 c 128,-1,15
 102 -241 102 -241 123 -240 c 0,16,17
 156 -239 156 -239 183.5 -223.5 c 128,-1,18
 211 -208 211 -208 233.5 -185 c 128,-1,19
 256 -162 256 -162 275 -134.5 c 128,-1,20
 294 -107 294 -107 311 -83 c 2,21,-1
 410 63 l 1,22,-1
 145 1082 l 1,23,-1
 393 1082 l 1,24,-1
 536 421 l 1,0,-1
EndSplineSet
Substitution2: "'smcp' Lowercase to Small Capitals lookup 0 subtable" Y.smcp
EndChar
StartChar: z
Encoding: 122 122 92
Width: 1202
Flags: W
LayerCount: 2
Back
Fore
SplineSet
385 191 m 1,0,-1
 1013 191 l 1,1,-1
 983 0 l 1,2,-1
 41 0 l 1,3,-1
 68 167 l 1,4,-1
 773 888 l 1,5,-1
 190 888 l 1,6,-1
 221 1082 l 1,7,-1
 1124 1082 l 1,8,-1
 1099 920 l 1,9,-1
 385 191 l 1,0,-1
EndSplineSet
Substitution2: "'smcp' Lowercase to Small Capitals lookup 0 subtable" Z.smcp
EndChar
StartChar: braceleft
Encoding: 123 123 93
Width: 1202
Flags: W
LayerCount: 2
Back
Fore
SplineSet
792 -359 m 1,0,1
 702 -355 702 -355 640 -311 c 128,-1,2
 578 -267 578 -267 541 -200.5 c 128,-1,3
 504 -134 504 -134 491 -53 c 128,-1,4
 478 28 478 28 487 106 c 2,5,-1
 508 270 l 2,6,7
 521 394 521 394 472.5 458.5 c 128,-1,8
 424 523 424 523 299 529 c 1,9,-1
 317 705 l 1,10,11
 450 707 450 707 527 771 c 128,-1,12
 604 835 604 835 622 969 c 2,13,-1
 644 1132 l 2,14,15
 656 1225 656 1225 688.5 1308 c 128,-1,16
 721 1391 721 1391 775 1454.5 c 128,-1,17
 829 1518 829 1518 905 1557 c 128,-1,18
 981 1596 981 1596 1081 1600 c 1,19,-1
 1095 1459 l 1,20,21
 1027 1457 1027 1457 985 1426.5 c 128,-1,22
 943 1396 943 1396 918.5 1349 c 128,-1,23
 894 1302 894 1302 882.5 1244.5 c 128,-1,24
 871 1187 871 1187 864 1132 c 2,25,-1
 843 969 l 2,26,27
 826 835 826 835 753 749.5 c 128,-1,28
 680 664 680 664 558 613 c 1,29,30
 607 587 607 587 641.5 550.5 c 128,-1,31
 676 514 676 514 697 469.5 c 128,-1,32
 718 425 718 425 725.5 374 c 128,-1,33
 733 323 733 323 728 269 c 2,34,-1
 707 105 l 2,35,36
 702 62 702 62 698.5 8 c 128,-1,37
 695 -46 695 -46 705 -94.5 c 128,-1,38
 715 -143 715 -143 743 -178 c 128,-1,39
 771 -213 771 -213 829 -219 c 1,40,-1
 792 -359 l 1,0,1
EndSplineSet
EndChar
StartChar: bar
Encoding: 124 124 94
Width: 1202
Flags: W
LayerCount: 2
Back
Fore
SplineSet
523 -410 m 1,0,-1
 359 -410 l 1,1,-1
 651 1456 l 1,2,-1
 815 1456 l 1,3,-1
 523 -410 l 1,0,-1
EndSplineSet
EndChar
StartChar: braceright
Encoding: 125 125 95
Width: 1202
Flags: W
LayerCount: 2
Back
Fore
SplineSet
186 -221 m 1,0,1
 248 -219 248 -219 289.5 -186.5 c 128,-1,2
 331 -154 331 -154 357 -106 c 128,-1,3
 383 -58 383 -58 396.5 -1.5 c 128,-1,4
 410 55 410 55 417 106 c 2,5,-1
 438 269 l 2,6,7
 455 400 455 400 526 486 c 128,-1,8
 597 572 597 572 716 623 c 1,9,10
 668 650 668 650 634.5 687.5 c 128,-1,11
 601 725 601 725 581 770 c 128,-1,12
 561 815 561 815 554.5 865.5 c 128,-1,13
 548 916 548 916 553 969 c 2,14,-1
 574 1133 l 2,15,16
 580 1180 580 1180 585.5 1234.5 c 128,-1,17
 591 1289 591 1289 583 1336.5 c 128,-1,18
 575 1384 575 1384 546 1417.5 c 128,-1,19
 517 1451 517 1451 454 1456 c 1,20,-1
 491 1596 l 1,21,22
 583 1592 583 1592 645.5 1549 c 128,-1,23
 708 1506 708 1506 744 1440 c 128,-1,24
 780 1374 780 1374 791.5 1293 c 128,-1,25
 803 1212 803 1212 794 1132 c 2,26,-1
 773 968 l 2,27,28
 767 906 767 906 775 858.5 c 128,-1,29
 783 811 783 811 808 778.5 c 128,-1,30
 833 746 833 746 876 728 c 128,-1,31
 919 710 919 710 982 707 c 1,32,-1
 964 531 l 1,33,34
 831 529 831 529 754 465.5 c 128,-1,35
 677 402 677 402 659 269 c 2,36,-1
 637 106 l 2,37,38
 625 15 625 15 592 -68 c 128,-1,39
 559 -151 559 -151 504 -215 c 128,-1,40
 449 -279 449 -279 373 -319 c 128,-1,41
 297 -359 297 -359 199 -363 c 1,42,-1
 186 -221 l 1,0,1
EndSplineSet
EndChar
StartChar: asciitilde
Encoding: 126 126 96
Width: 1202
Flags: W
LayerCount: 2
Back
Fore
SplineSet
1146 747 m 1,0,1
 1140 679 1140 679 1115.5 614 c 128,-1,2
 1091 549 1091 549 1049.5 498 c 128,-1,3
 1008 447 1008 447 949 416 c 128,-1,4
 890 385 890 385 815 386 c 0,5,6
 770 387 770 387 731 398 c 128,-1,7
 692 409 692 409 656 427.5 c 128,-1,8
 620 446 620 446 587 471 c 128,-1,9
 554 496 554 496 523 525 c 0,10,11
 505 542 505 542 484 558 c 128,-1,12
 463 574 463 574 440.5 587 c 128,-1,13
 418 600 418 600 393.5 607.5 c 128,-1,14
 369 615 369 615 343 615 c 0,15,16
 308 615 308 615 279 600.5 c 128,-1,17
 250 586 250 586 228.5 562 c 128,-1,18
 207 538 207 538 193 507 c 128,-1,19
 179 476 179 476 173 445 c 1,20,-1
 17 465 l 1,21,22
 24 533 24 533 48.5 596.5 c 128,-1,23
 73 660 73 660 114.5 709 c 128,-1,24
 156 758 156 758 214.5 787.5 c 128,-1,25
 273 817 273 817 348 816 c 0,26,27
 436 814 436 814 507.5 775.5 c 128,-1,28
 579 737 579 737 642 679 c 0,29,30
 660 662 660 662 680.5 645.5 c 128,-1,31
 701 629 701 629 723 616 c 128,-1,32
 745 603 745 603 769 595 c 128,-1,33
 793 587 793 587 820 587 c 0,34,35
 856 587 856 587 884.5 603 c 128,-1,36
 913 619 913 619 934 644.5 c 128,-1,37
 955 670 955 670 968.5 701.5 c 128,-1,38
 982 733 982 733 988 765 c 1,39,-1
 1146 747 l 1,0,1
EndSplineSet
EndChar
StartChar: exclamdown
Encoding: 161 161 97
Width: 1202
Flags: W
LayerCount: 2
Back
Fore
SplineSet
495 584 m 1,0,-1
 716 584 l 1,1,-1
 557 -377 l 1,2,-1
 320 -377 l 1,3,-1
 495 584 l 1,0,-1
812 970 m 256,4,5
 812 940 812 940 801 915 c 128,-1,6
 790 890 790 890 771.5 872 c 128,-1,7
 753 854 753 854 727.5 843.5 c 128,-1,8
 702 833 702 833 672 833 c 0,9,10
 643 832 643 832 618 841 c 128,-1,11
 593 850 593 850 575 867 c 128,-1,12
 557 884 557 884 546.5 908 c 128,-1,13
 536 932 536 932 536 961 c 0,14,15
 536 991 536 991 546.5 1017 c 128,-1,16
 557 1043 557 1043 575 1062 c 128,-1,17
 593 1081 593 1081 618.5 1092 c 128,-1,18
 644 1103 644 1103 674 1104 c 256,19,20
 704 1105 704 1105 729 1095.5 c 128,-1,21
 754 1086 754 1086 772.5 1068 c 128,-1,22
 791 1050 791 1050 801.5 1025 c 128,-1,23
 812 1000 812 1000 812 970 c 256,4,5
EndSplineSet
EndChar
StartChar: cent
Encoding: 162 162 98
Width: 1202
Flags: W
LayerCount: 2
Back
Fore
SplineSet
548 169 m 0,0,1
 591 168 591 168 632.5 180.5 c 128,-1,2
 674 193 674 193 707.5 217.5 c 128,-1,3
 741 242 741 242 764.5 276.5 c 128,-1,4
 788 311 788 311 796 355 c 1,5,-1
 1016 356 l 1,6,7
 1010 277 1010 277 972.5 212 c 128,-1,8
 935 147 935 147 878 99 c 128,-1,9
 821 51 821 51 750 21.5 c 128,-1,10
 679 -8 679 -8 605 -17 c 1,11,-1
 565 -245 l 1,12,-1
 370 -245 l 1,13,-1
 412 -3 l 1,14,15
 330 20 330 20 271.5 71 c 128,-1,16
 213 122 213 122 178 191.5 c 128,-1,17
 143 261 143 261 130.5 345 c 128,-1,18
 118 429 118 429 127 519 c 2,19,-1
 131 556 l 2,20,21
 143 656 143 656 180.5 748 c 128,-1,22
 218 840 218 840 278.5 912.5 c 128,-1,23
 339 985 339 985 420.5 1033.5 c 128,-1,24
 502 1082 502 1082 602 1096 c 1,25,-1
 641 1318 l 1,26,-1
 837 1318 l 1,27,-1
 796 1089 l 1,28,29
 864 1073 864 1073 918.5 1037.5 c 128,-1,30
 973 1002 973 1002 1011 951 c 128,-1,31
 1049 900 1049 900 1067.5 835 c 128,-1,32
 1086 770 1086 770 1082 694 c 1,33,-1
 863 695 l 1,34,35
 866 739 866 739 854 777.5 c 128,-1,36
 842 816 842 816 818 845 c 128,-1,37
 794 874 794 874 758 891 c 128,-1,38
 722 908 722 908 676 910 c 0,39,40
 601 913 601 913 546 881.5 c 128,-1,41
 491 850 491 850 453 799 c 128,-1,42
 415 748 415 748 393 684 c 128,-1,43
 371 620 371 620 362 556 c 2,44,-1
 358 520 l 2,45,46
 354 483 354 483 353.5 443 c 128,-1,47
 353 403 353 403 358 364.5 c 128,-1,48
 363 326 363 326 375.5 291 c 128,-1,49
 388 256 388 256 410.5 229.5 c 128,-1,50
 433 203 433 203 466.5 186.5 c 128,-1,51
 500 170 500 170 548 169 c 0,0,1
EndSplineSet
EndChar
StartChar: sterling
Encoding: 163 163 99
Width: 1202
Flags: W
LayerCount: 2
Back
Fore
SplineSet
500 604 m 1,0,-1
 476 419 l 2,1,2
 458 287 458 287 371 190 c 1,3,-1
 1058 193 l 1,4,-1
 1024 0 l 1,5,-1
 7 0 l 1,6,-1
 41 192 l 1,7,-1
 110 190 l 1,8,9
 143 203 143 203 165.5 227 c 128,-1,10
 188 251 188 251 203 282 c 128,-1,11
 218 313 218 313 226.5 347 c 128,-1,12
 235 381 235 381 240 413 c 2,13,-1
 266 604 l 1,14,-1
 109 604 l 1,15,-1
 142 794 l 1,16,-1
 293 794 l 1,17,-1
 324 1039 l 2,18,19
 336 1138 336 1138 378.5 1219.5 c 128,-1,20
 421 1301 421 1301 487 1358.5 c 128,-1,21
 553 1416 553 1416 639.5 1447 c 128,-1,22
 726 1478 726 1478 826 1476 c 0,23,24
 916 1474 916 1474 986.5 1444.5 c 128,-1,25
 1057 1415 1057 1415 1104 1362.5 c 128,-1,26
 1151 1310 1151 1310 1174 1237.5 c 128,-1,27
 1197 1165 1197 1165 1193 1076 c 1,28,-1
 963 1077 l 1,29,30
 965 1120 965 1120 957 1157.5 c 128,-1,31
 949 1195 949 1195 928.5 1222.5 c 128,-1,32
 908 1250 908 1250 875.5 1266 c 128,-1,33
 843 1282 843 1282 796 1284 c 0,34,35
 744 1285 744 1285 702.5 1265 c 128,-1,36
 661 1245 661 1245 631 1210.5 c 128,-1,37
 601 1176 601 1176 582.5 1131.5 c 128,-1,38
 564 1087 564 1087 558 1041 c 2,39,-1
 526 794 l 1,40,-1
 829 794 l 1,41,-1
 796 604 l 1,42,-1
 500 604 l 1,0,-1
EndSplineSet
EndChar
StartChar: currency
Encoding: 164 164 100
Width: 1202
Flags: W
LayerCount: 2
Back
Fore
SplineSet
808 76 m 1,0,1
 741 31 741 31 667.5 4.5 c 128,-1,2
 594 -22 594 -22 512 -20 c 0,3,4
 438 -19 438 -19 370 5 c 128,-1,5
 302 29 302 29 245 76 c 1,6,-1
 127 -26 l 1,7,-1
 8 128 l 1,8,-1
 131 230 l 1,9,10
 112 296 112 296 105.5 364.5 c 128,-1,11
 99 433 99 433 108 502 c 0,12,13
 119 587 119 587 152 662.5 c 128,-1,14
 185 738 185 738 239 806 c 1,15,-1
 146 929 l 1,16,-1
 299 1064 l 1,17,-1
 387 949 l 1,18,19
 451 988 451 988 520.5 1011.5 c 128,-1,20
 590 1035 590 1035 667 1034 c 0,21,22
 737 1033 737 1033 802 1011 c 128,-1,23
 867 989 867 989 922 946 c 1,24,-1
 1059 1065 l 1,25,-1
 1179 910 l 1,26,-1
 1042 795 l 1,27,28
 1064 726 1064 726 1071 656.5 c 128,-1,29
 1078 587 1078 587 1069 515 c 0,30,31
 1058 435 1058 435 1028 364 c 128,-1,32
 998 293 998 293 950 228 c 1,33,-1
 1041 109 l 1,34,-1
 887 -27 l 1,35,-1
 808 76 l 1,0,1
290 499 m 0,36,37
 283 440 283 440 294.5 381 c 128,-1,38
 306 322 306 322 336 274.5 c 128,-1,39
 366 227 366 227 413.5 196.5 c 128,-1,40
 461 166 461 166 527 164 c 0,41,42
 599 162 599 162 661.5 191.5 c 128,-1,43
 724 221 724 221 771.5 271.5 c 128,-1,44
 819 322 819 322 849.5 386 c 128,-1,45
 880 450 880 450 888 517 c 0,46,47
 895 575 895 575 883.5 633.5 c 128,-1,48
 872 692 872 692 842.5 739 c 128,-1,49
 813 786 813 786 765 816.5 c 128,-1,50
 717 847 717 847 652 849 c 0,51,52
 580 851 580 851 517.5 822 c 128,-1,53
 455 793 455 793 407 743.5 c 128,-1,54
 359 694 359 694 328.5 630 c 128,-1,55
 298 566 298 566 290 499 c 0,36,37
EndSplineSet
EndChar
StartChar: yen
Encoding: 165 165 101
Width: 1202
Flags: W
LayerCount: 2
Back
Fore
SplineSet
632 815 m 1,0,-1
 1057 1456 l 1,1,-1
 1331 1456 l 1,2,-1
 821 742 l 1,3,-1
 1085 742 l 1,4,-1
 1059 595 l 1,5,-1
 713 595 l 1,6,-1
 688 452 l 1,7,-1
 1035 452 l 1,8,-1
 1009 306 l 1,9,-1
 663 306 l 1,10,-1
 610 0 l 1,11,-1
 375 0 l 1,12,-1
 429 306 l 1,13,-1
 81 306 l 1,14,-1
 107 452 l 1,15,-1
 454 452 l 1,16,-1
 479 595 l 1,17,-1
 131 595 l 1,18,-1
 157 742 l 1,19,-1
 442 742 l 1,20,-1
 178 1456 l 1,21,-1
 429 1456 l 1,22,-1
 632 815 l 1,0,-1
EndSplineSet
EndChar
StartChar: brokenbar
Encoding: 166 166 102
Width: 1202
Flags: W
LayerCount: 2
Back
Fore
SplineSet
330 -270 m 1,0,-1
 468 525 l 1,1,-1
 689 525 l 1,2,-1
 550 -270 l 1,3,-1
 330 -270 l 1,0,-1
718 698 m 1,4,-1
 497 698 l 1,5,-1
 629 1456 l 1,6,-1
 850 1456 l 1,7,-1
 718 698 l 1,4,-1
EndSplineSet
EndChar
StartChar: section
Encoding: 167 167 103
Width: 1202
Flags: W
LayerCount: 2
Back
Fore
SplineSet
1096 461 m 0,0,1
 1092 410 1092 410 1075 367.5 c 128,-1,2
 1058 325 1058 325 1030 289.5 c 128,-1,3
 1002 254 1002 254 965 226 c 128,-1,4
 928 198 928 198 884 175 c 1,5,6
 936 118 936 118 954.5 49 c 128,-1,7
 973 -20 973 -20 967 -97 c 0,8,9
 959 -201 959 -201 908.5 -274 c 128,-1,10
 858 -347 858 -347 782 -392.5 c 128,-1,11
 706 -438 706 -438 613.5 -458 c 128,-1,12
 521 -478 521 -478 429 -476 c 0,13,14
 328 -475 328 -475 241 -448.5 c 128,-1,15
 154 -422 154 -422 90.5 -370 c 128,-1,16
 27 -318 27 -318 -7.5 -238.5 c 128,-1,17
 -42 -159 -42 -159 -38 -51 c 1,18,-1
 199 -49 l 1,19,20
 196 -108 196 -108 212.5 -151.5 c 128,-1,21
 229 -195 229 -195 261 -224 c 128,-1,22
 293 -253 293 -253 339.5 -267.5 c 128,-1,23
 386 -282 386 -282 442 -283 c 0,24,25
 487 -284 487 -284 535.5 -274.5 c 128,-1,26
 584 -265 584 -265 625 -243.5 c 128,-1,27
 666 -222 666 -222 695.5 -186.5 c 128,-1,28
 725 -151 725 -151 733 -100 c 0,29,30
 741 -47 741 -47 715.5 -11 c 128,-1,31
 690 25 690 25 648.5 49.5 c 128,-1,32
 607 74 607 74 558 90 c 128,-1,33
 509 106 509 106 471 118 c 0,34,35
 393 144 393 144 318.5 176.5 c 128,-1,36
 244 209 244 209 188 257 c 128,-1,37
 132 305 132 305 100.5 372.5 c 128,-1,38
 69 440 69 440 77 535 c 0,39,40
 81 586 81 586 98.5 628.5 c 128,-1,41
 116 671 116 671 144 706 c 128,-1,42
 172 741 172 741 208.5 769.5 c 128,-1,43
 245 798 245 798 289 821 c 1,44,45
 237 879 237 879 218.5 948 c 128,-1,46
 200 1017 200 1017 207 1094 c 0,47,48
 215 1197 215 1197 266.5 1270 c 128,-1,49
 318 1343 318 1343 394.5 1389.5 c 128,-1,50
 471 1436 471 1436 563.5 1456.5 c 128,-1,51
 656 1477 656 1477 747 1476 c 0,52,53
 848 1474 848 1474 930.5 1446 c 128,-1,54
 1013 1418 1013 1418 1071 1364 c 128,-1,55
 1129 1310 1129 1310 1158.5 1230.5 c 128,-1,56
 1188 1151 1188 1151 1183 1046 c 1,57,-1
 951 1047 l 1,58,59
 954 1100 954 1100 940.5 1143 c 128,-1,60
 927 1186 927 1186 899 1216.5 c 128,-1,61
 871 1247 871 1247 829 1264.5 c 128,-1,62
 787 1282 787 1282 733 1283 c 0,63,64
 686 1284 686 1284 638 1274.5 c 128,-1,65
 590 1265 590 1265 549 1243 c 128,-1,66
 508 1221 508 1221 479 1185 c 128,-1,67
 450 1149 450 1149 442 1097 c 0,68,69
 434 1040 434 1040 457.5 1004 c 128,-1,70
 481 968 481 968 521 944 c 128,-1,71
 561 920 561 920 610 905.5 c 128,-1,72
 659 891 659 891 701 878 c 0,73,74
 779 853 779 853 853.5 820.5 c 128,-1,75
 928 788 928 788 984.5 739.5 c 128,-1,76
 1041 691 1041 691 1072.5 623.5 c 128,-1,77
 1104 556 1104 556 1096 461 c 0,0,1
603 674 m 0,78,79
 565 686 565 686 528.5 698 c 128,-1,80
 492 710 492 710 456 724 c 1,81,82
 397 698 397 698 360.5 656 c 128,-1,83
 324 614 324 614 314 549 c 0,84,85
 305 492 305 492 327 454.5 c 128,-1,86
 349 417 349 417 388 392 c 128,-1,87
 427 367 427 367 475.5 351 c 128,-1,88
 524 335 524 335 568 321 c 0,89,90
 605 309 605 309 641.5 297 c 128,-1,91
 678 285 678 285 714 271 c 1,92,93
 771 297 771 297 811.5 339 c 128,-1,94
 852 381 852 381 862 446 c 0,95,96
 868 482 868 482 858.5 510.5 c 128,-1,97
 849 539 849 539 829 561.5 c 128,-1,98
 809 584 809 584 781.5 601 c 128,-1,99
 754 618 754 618 723 631.5 c 128,-1,100
 692 645 692 645 661 655 c 128,-1,101
 630 665 630 665 603 674 c 0,78,79
EndSplineSet
EndChar
StartChar: dieresis
Encoding: 168 168 104
Width: 1202
Flags: W
LayerCount: 2
Back
Fore
SplineSet
384 1363 m 0,0,1
 385 1415 385 1415 420.5 1449 c 128,-1,2
 456 1483 456 1483 508 1485 c 0,3,4
 533 1485 533 1485 555.5 1477 c 128,-1,5
 578 1469 578 1469 594.5 1453.5 c 128,-1,6
 611 1438 611 1438 620.5 1416.5 c 128,-1,7
 630 1395 630 1395 630 1369 c 256,8,9
 630 1343 630 1343 620 1321 c 128,-1,10
 610 1299 610 1299 593 1283 c 128,-1,11
 576 1267 576 1267 553.5 1258 c 128,-1,12
 531 1249 531 1249 506 1248 c 0,13,14
 481 1248 481 1248 458.5 1256 c 128,-1,15
 436 1264 436 1264 419.5 1279 c 128,-1,16
 403 1294 403 1294 393.5 1315.5 c 128,-1,17
 384 1337 384 1337 384 1363 c 0,0,1
825 1362 m 0,18,19
 826 1414 826 1414 861.5 1447.5 c 128,-1,20
 897 1481 897 1481 948 1483 c 0,21,22
 973 1483 973 1483 995.5 1475 c 128,-1,23
 1018 1467 1018 1467 1034.5 1452 c 128,-1,24
 1051 1437 1051 1437 1060.5 1415.5 c 128,-1,25
 1070 1394 1070 1394 1070 1368 c 0,26,27
 1069 1316 1069 1316 1033.5 1282 c 128,-1,28
 998 1248 998 1248 946 1246 c 0,29,30
 921 1246 921 1246 898.5 1254 c 128,-1,31
 876 1262 876 1262 859.5 1277.5 c 128,-1,32
 843 1293 843 1293 834 1314.5 c 128,-1,33
 825 1336 825 1336 825 1362 c 0,18,19
EndSplineSet
EndChar
StartChar: copyright
Encoding: 169 169 105
Width: 1202
Flags: W
LayerCount: 2
Back
Fore
SplineSet
811 442 m 1,0,1
 805 386 805 386 784.5 342 c 128,-1,2
 764 298 764 298 731 267.5 c 128,-1,3
 698 237 698 237 652.5 221 c 128,-1,4
 607 205 607 205 549 207 c 0,5,6
 488 208 488 208 444.5 233 c 128,-1,7
 401 258 401 258 373.5 297.5 c 128,-1,8
 346 337 346 337 334.5 388.5 c 128,-1,9
 323 440 323 440 326 496 c 2,10,-1
 334 586 l 2,11,12
 340 645 340 645 361 698.5 c 128,-1,13
 382 752 382 752 418 792 c 128,-1,14
 454 832 454 832 504.5 855.5 c 128,-1,15
 555 879 555 879 619 878 c 0,16,17
 731 876 731 876 789 812.5 c 128,-1,18
 847 749 847 749 842 639 c 1,19,-1
 727 640 l 1,20,21
 728 671 728 671 723.5 696 c 128,-1,22
 719 721 719 721 706 739 c 128,-1,23
 693 757 693 757 670.5 767 c 128,-1,24
 648 777 648 777 614 777 c 0,25,26
 574 777 574 777 545 760.5 c 128,-1,27
 516 744 516 744 496 717 c 128,-1,28
 476 690 476 690 464.5 656 c 128,-1,29
 453 622 453 622 449 587 c 2,30,-1
 441 495 l 2,31,32
 439 464 439 464 442 431.5 c 128,-1,33
 445 399 445 399 457 372 c 128,-1,34
 469 345 469 345 492.5 327 c 128,-1,35
 516 309 516 309 554 308 c 0,36,37
 588 307 588 307 612.5 316.5 c 128,-1,38
 637 326 637 326 654 343.5 c 128,-1,39
 671 361 671 361 682 386 c 128,-1,40
 693 411 693 411 700 441 c 1,41,-1
 811 442 l 1,0,1
169 534 m 0,42,43
 159 449 159 449 178 367 c 128,-1,44
 197 285 197 285 242.5 220 c 128,-1,45
 288 155 288 155 358 114.5 c 128,-1,46
 428 74 428 74 521 72 c 0,47,48
 620 69 620 69 706 108.5 c 128,-1,49
 792 148 792 148 858.5 215 c 128,-1,50
 925 282 925 282 967 369.5 c 128,-1,51
 1009 457 1009 457 1020 550 c 0,52,53
 1030 635 1030 635 1010.5 716 c 128,-1,54
 991 797 991 797 946 861.5 c 128,-1,55
 901 926 901 926 831 966 c 128,-1,56
 761 1006 761 1006 670 1008 c 0,57,58
 571 1011 571 1011 484.5 972 c 128,-1,59
 398 933 398 933 331.5 867 c 128,-1,60
 265 801 265 801 222 714.5 c 128,-1,61
 179 628 179 628 169 534 c 0,42,43
78 534 m 0,62,63
 85 609 85 609 110.5 681 c 128,-1,64
 136 753 136 753 176 816.5 c 128,-1,65
 216 880 216 880 269 933.5 c 128,-1,66
 322 987 322 987 385.5 1025 c 128,-1,67
 449 1063 449 1063 521.5 1083.5 c 128,-1,68
 594 1104 594 1104 673 1102 c 0,69,70
 747 1100 747 1100 810 1078 c 128,-1,71
 873 1056 873 1056 924 1017.5 c 128,-1,72
 975 979 975 979 1013 927 c 128,-1,73
 1051 875 1051 875 1075 814.5 c 128,-1,74
 1099 754 1099 754 1108.5 686.5 c 128,-1,75
 1118 619 1118 619 1111 550 c 0,76,77
 1104 475 1104 475 1078.5 403 c 128,-1,78
 1053 331 1053 331 1013.5 267 c 128,-1,79
 974 203 974 203 921 149.5 c 128,-1,80
 868 96 868 96 804.5 58 c 128,-1,81
 741 20 741 20 668.5 -1 c 128,-1,82
 596 -22 596 -22 518 -20 c 0,83,84
 407 -17 407 -17 320.5 30.5 c 128,-1,85
 234 78 234 78 176.5 155.5 c 128,-1,86
 119 233 119 233 93 331.5 c 128,-1,87
 67 430 67 430 78 534 c 0,62,63
EndSplineSet
EndChar
StartChar: ordfeminine
Encoding: 170 170 106
Width: 1202
Flags: W
LayerCount: 2
Back
Fore
SplineSet
770 704 m 1,0,1
 764 751 764 751 767 798 c 1,2,3
 722 747 722 747 665.5 718.5 c 128,-1,4
 609 690 609 690 540 691 c 0,5,6
 490 691 490 691 449 706.5 c 128,-1,7
 408 722 408 722 379 750.5 c 128,-1,8
 350 779 350 779 335 820 c 128,-1,9
 320 861 320 861 322 912 c 0,10,11
 325 982 325 982 358.5 1028.5 c 128,-1,12
 392 1075 392 1075 443 1102 c 128,-1,13
 494 1129 494 1129 555.5 1140 c 128,-1,14
 617 1151 617 1151 676 1151 c 2,15,-1
 812 1150 l 1,16,-1
 820 1203 l 2,17,18
 823 1228 823 1228 820 1250.5 c 128,-1,19
 817 1273 817 1273 807.5 1290 c 128,-1,20
 798 1307 798 1307 779.5 1317 c 128,-1,21
 761 1327 761 1327 733 1328 c 0,22,23
 679 1330 679 1330 641 1306 c 128,-1,24
 603 1282 603 1282 589 1230 c 1,25,-1
 419 1243 l 1,26,27
 427 1304 427 1304 458 1348.5 c 128,-1,28
 489 1393 489 1393 534 1422 c 128,-1,29
 579 1451 579 1451 634 1464 c 128,-1,30
 689 1477 689 1477 746 1476 c 0,31,32
 808 1475 808 1475 856.5 1455 c 128,-1,33
 905 1435 905 1435 937 1399 c 128,-1,34
 969 1363 969 1363 983.5 1312.5 c 128,-1,35
 998 1262 998 1262 992 1200 c 2,36,-1
 943 886 l 2,37,38
 935 840 935 840 933.5 795.5 c 128,-1,39
 932 751 932 751 939 704 c 1,40,-1
 770 704 l 1,0,1
594 833 m 0,41,42
 648 832 648 832 696.5 859 c 128,-1,43
 745 886 745 886 778 926 c 1,44,-1
 796 1033 l 1,45,-1
 673 1033 l 2,46,47
 646 1032 646 1032 616.5 1025.5 c 128,-1,48
 587 1019 587 1019 562 1005 c 128,-1,49
 537 991 537 991 519.5 969 c 128,-1,50
 502 947 502 947 499 916 c 0,51,52
 496 893 496 893 503 877 c 128,-1,53
 510 861 510 861 523.5 851.5 c 128,-1,54
 537 842 537 842 555.5 837.5 c 128,-1,55
 574 833 574 833 594 833 c 0,41,42
EndSplineSet
EndChar
StartChar: logicalnot
Encoding: 172 172 108
Width: 1202
Flags: W
LayerCount: 2
Back
Fore
SplineSet
952 374 m 1,0,-1
 756 374 l 1,1,-1
 802 634 l 1,2,-1
 186 634 l 1,3,-1
 216 805 l 1,4,-1
 1027 805 l 1,5,-1
 952 374 l 1,0,-1
EndSplineSet
EndChar
StartChar: macron
Encoding: 175 175 110
AltUni2: 0002c9.ffffffff.0
Width: 1202
Flags: W
LayerCount: 2
Back
Fore
SplineSet
1069 1299 m 1,0,-1
 363 1299 l 1,1,-1
 389 1456 l 1,2,-1
 1094 1456 l 1,3,-1
 1069 1299 l 1,0,-1
EndSplineSet
EndChar
StartChar: degree
Encoding: 176 176 111
Width: 1202
Flags: W
LayerCount: 2
Back
Fore
SplineSet
453 1199 m 0,0,1
 456 1254 456 1254 479.5 1305 c 128,-1,2
 503 1356 503 1356 541 1394.5 c 128,-1,3
 579 1433 579 1433 629.5 1455.5 c 128,-1,4
 680 1478 680 1478 737 1477 c 0,5,6
 789 1476 789 1476 831 1453.5 c 128,-1,7
 873 1431 873 1431 903 1395 c 128,-1,8
 933 1359 933 1359 948 1312.5 c 128,-1,9
 963 1266 963 1266 961 1217 c 0,10,11
 958 1162 958 1162 935.5 1112 c 128,-1,12
 913 1062 913 1062 875.5 1024 c 128,-1,13
 838 986 838 986 788 964 c 128,-1,14
 738 942 738 942 682 943 c 0,15,16
 630 944 630 944 587 965 c 128,-1,17
 544 986 544 986 513 1021.5 c 128,-1,18
 482 1057 482 1057 466 1103 c 128,-1,19
 450 1149 450 1149 453 1199 c 0,0,1
589 1202 m 0,20,21
 587 1178 587 1178 593.5 1156.5 c 128,-1,22
 600 1135 600 1135 614 1119 c 128,-1,23
 628 1103 628 1103 648 1093.5 c 128,-1,24
 668 1084 668 1084 692 1084 c 0,25,26
 719 1084 719 1084 742 1095 c 128,-1,27
 765 1106 765 1106 782.5 1124 c 128,-1,28
 800 1142 800 1142 811.5 1165 c 128,-1,29
 823 1188 823 1188 826 1214 c 0,30,31
 828 1237 828 1237 822 1259 c 128,-1,32
 816 1281 816 1281 803.5 1298.5 c 128,-1,33
 791 1316 791 1316 771.5 1326.5 c 128,-1,34
 752 1337 752 1337 727 1337 c 0,35,36
 700 1337 700 1337 676 1325.5 c 128,-1,37
 652 1314 652 1314 633.5 1295 c 128,-1,38
 615 1276 615 1276 603 1252 c 128,-1,39
 591 1228 591 1228 589 1202 c 0,20,21
EndSplineSet
EndChar
StartChar: plusminus
Encoding: 177 177 112
Width: 1202
Flags: W
LayerCount: 2
Back
Fore
SplineSet
748 896 m 1,0,-1
 1083 896 l 1,1,-1
 1052 700 l 1,2,-1
 718 700 l 1,3,-1
 657 310 l 1,4,-1
 450 310 l 1,5,-1
 511 700 l 1,6,-1
 162 700 l 1,7,-1
 193 896 l 1,8,-1
 541 896 l 1,9,-1
 601 1275 l 1,10,-1
 808 1275 l 1,11,-1
 748 896 l 1,0,-1
905 1 m 1,12,-1
 82 1 l 1,13,-1
 117 194 l 1,14,-1
 940 194 l 1,15,-1
 905 1 l 1,12,-1
EndSplineSet
EndChar
StartChar: twosuperior
Encoding: 178 178 113
Width: 1202
Flags: W
LayerCount: 2
Back
Fore
SplineSet
919 667 m 1,0,-1
 325 667 l 1,1,-1
 348 799 l 1,2,-1
 661 1057 l 2,3,4
 680 1073 680 1073 702.5 1092.5 c 128,-1,5
 725 1112 725 1112 745 1134.5 c 128,-1,6
 765 1157 765 1157 780.5 1181.5 c 128,-1,7
 796 1206 796 1206 800 1233 c 0,8,9
 806 1275 806 1275 784.5 1299 c 128,-1,10
 763 1323 763 1323 721 1323 c 0,11,12
 663 1323 663 1323 629.5 1288 c 128,-1,13
 596 1253 596 1253 584 1200 c 1,14,-1
 403 1199 l 1,15,16
 409 1262 409 1262 436 1312.5 c 128,-1,17
 463 1363 463 1363 505.5 1398 c 128,-1,18
 548 1433 548 1433 603.5 1451.5 c 128,-1,19
 659 1470 659 1470 721 1469 c 0,20,21
 775 1468 775 1468 824.5 1453.5 c 128,-1,22
 874 1439 874 1439 911 1410 c 128,-1,23
 948 1381 948 1381 969 1337 c 128,-1,24
 990 1293 990 1293 987 1233 c 0,25,26
 984 1182 984 1182 961 1138.5 c 128,-1,27
 938 1095 938 1095 904 1058 c 128,-1,28
 870 1021 870 1021 829 989 c 128,-1,29
 788 957 788 957 751 929 c 2,30,-1
 593 814 l 1,31,-1
 945 814 l 1,32,-1
 919 667 l 1,0,-1
EndSplineSet
EndChar
StartChar: threesuperior
Encoding: 179 179 114
Width: 1202
Flags: W
LayerCount: 2
Back
Fore
SplineSet
590 1131 m 1,0,-1
 672 1131 l 2,1,2
 697 1132 697 1132 721 1138 c 128,-1,3
 745 1144 745 1144 765.5 1157 c 128,-1,4
 786 1170 786 1170 799.5 1189.5 c 128,-1,5
 813 1209 813 1209 817 1236 c 0,6,7
 820 1258 820 1258 814 1273.5 c 128,-1,8
 808 1289 808 1289 795 1299 c 128,-1,9
 782 1309 782 1309 764 1314 c 128,-1,10
 746 1319 746 1319 727 1319 c 0,11,12
 685 1320 685 1320 652.5 1301.5 c 128,-1,13
 620 1283 620 1283 606 1244 c 1,14,-1
 422 1243 l 1,15,16
 428 1301 428 1301 455 1344 c 128,-1,17
 482 1387 482 1387 523.5 1414.5 c 128,-1,18
 565 1442 565 1442 617 1455 c 128,-1,19
 669 1468 669 1468 723 1467 c 0,20,21
 774 1467 774 1467 824.5 1454.5 c 128,-1,22
 875 1442 875 1442 914.5 1416 c 128,-1,23
 954 1390 954 1390 978 1348.5 c 128,-1,24
 1002 1307 1002 1307 999 1248 c 0,25,26
 997 1212 997 1212 983.5 1184 c 128,-1,27
 970 1156 970 1156 948 1134 c 128,-1,28
 926 1112 926 1112 898.5 1095 c 128,-1,29
 871 1078 871 1078 841 1065 c 1,30,31
 899 1045 899 1045 928 1000.5 c 128,-1,32
 957 956 957 956 955 895 c 0,33,34
 953 830 953 830 922 784 c 128,-1,35
 891 738 891 738 843 709 c 128,-1,36
 795 680 795 680 737 667 c 128,-1,37
 679 654 679 654 623 655 c 256,38,39
 567 656 567 656 517 671 c 128,-1,40
 467 686 467 686 429.5 716 c 128,-1,41
 392 746 392 746 370 791 c 128,-1,42
 348 836 348 836 348 896 c 1,43,-1
 525 895 l 1,44,45
 527 847 527 847 558 825.5 c 128,-1,46
 589 804 589 804 635 803 c 0,47,48
 659 803 659 803 683.5 809.5 c 128,-1,49
 708 816 708 816 728 829 c 128,-1,50
 748 842 748 842 761.5 861.5 c 128,-1,51
 775 881 775 881 779 907 c 0,52,53
 783 935 783 935 775 953 c 128,-1,54
 767 971 767 971 751.5 981.5 c 128,-1,55
 736 992 736 992 714.5 996.5 c 128,-1,56
 693 1001 693 1001 669 1002 c 2,57,-1
 579 1003 l 1,58,-1
 590 1131 l 1,0,-1
EndSplineSet
EndChar
StartChar: acute
Encoding: 180 180 115
Width: 1202
Flags: W
LayerCount: 2
Back
Fore
SplineSet
690 1478 m 1,0,-1
 972 1478 l 1,1,-1
 660 1205 l 1,2,-1
 468 1205 l 1,3,-1
 690 1478 l 1,0,-1
EndSplineSet
EndChar
StartChar: mu
Encoding: 181 181 116
Width: 1202
Flags: W
LayerCount: 2
Back
Fore
SplineSet
489 1082 m 1,0,-1
 387 460 l 2,1,2
 382 416 382 416 380 366 c 128,-1,3
 378 316 378 316 389.5 274 c 128,-1,4
 401 232 401 232 430.5 203.5 c 128,-1,5
 460 175 460 175 519 173 c 0,6,7
 673 169 673 169 764 294 c 1,8,-1
 902 1082 l 1,9,-1
 1135 1082 l 1,10,-1
 948 0 l 1,11,-1
 738 0 l 1,12,-1
 752 88 l 1,13,14
 701 35 701 35 640.5 6.5 c 128,-1,15
 580 -22 580 -22 505 -21 c 0,16,17
 453 -21 453 -21 405 -8 c 128,-1,18
 357 5 357 5 315 36 c 1,19,-1
 229 -416 l 1,20,-1
 -4 -416 l 1,21,-1
 256 1082 l 1,22,-1
 489 1082 l 1,0,-1
EndSplineSet
EndChar
StartChar: paragraph
Encoding: 182 182 117
Width: 1202
Flags: W
LayerCount: 2
Back
Fore
SplineSet
658 0 m 1,0,-1
 748 520 l 1,1,-1
 681 521 l 2,2,3
 580 524 580 524 500 558.5 c 128,-1,4
 420 593 420 593 366 653.5 c 128,-1,5
 312 714 312 714 287.5 797.5 c 128,-1,6
 263 881 263 881 272 982 c 0,7,8
 282 1092 282 1092 328 1180 c 128,-1,9
 374 1268 374 1268 446.5 1329.5 c 128,-1,10
 519 1391 519 1391 614.5 1424 c 128,-1,11
 710 1457 710 1457 818 1457 c 2,12,-1
 1114 1456 l 1,13,-1
 861 0 l 1,14,-1
 658 0 l 1,0,-1
EndSplineSet
EndChar
StartChar: periodcentered
Encoding: 183 183 118
Width: 1202
Flags: W
LayerCount: 2
Back
Fore
SplineSet
501 712 m 256,0,1
 501 741 501 741 511.5 766 c 128,-1,2
 522 791 522 791 540 809.5 c 128,-1,3
 558 828 558 828 583 838.5 c 128,-1,4
 608 849 608 849 637 850 c 256,5,6
 666 851 666 851 691 841.5 c 128,-1,7
 716 832 716 832 734 815 c 128,-1,8
 752 798 752 798 762 773.5 c 128,-1,9
 772 749 772 749 772 720 c 0,10,11
 772 690 772 690 761.5 665.5 c 128,-1,12
 751 641 751 641 733 623 c 128,-1,13
 715 605 715 605 690 594.5 c 128,-1,14
 665 584 665 584 635 583 c 0,15,16
 606 582 606 582 581.5 591 c 128,-1,17
 557 600 557 600 539 617.5 c 128,-1,18
 521 635 521 635 511 659 c 128,-1,19
 501 683 501 683 501 712 c 256,0,1
EndSplineSet
EndChar
StartChar: cedilla
Encoding: 184 184 119
Width: 1202
Flags: W
LayerCount: 2
Back
Fore
SplineSet
524 3 m 1,0,-1
 504 -54 l 1,1,2
 566 -68 566 -68 597 -111 c 128,-1,3
 628 -154 628 -154 626 -217 c 0,4,5
 624 -286 624 -286 590.5 -330.5 c 128,-1,6
 557 -375 557 -375 506 -400.5 c 128,-1,7
 455 -426 455 -426 394.5 -436.5 c 128,-1,8
 334 -447 334 -447 278 -448 c 1,9,-1
 285 -311 l 1,10,11
 309 -310 309 -310 334.5 -305 c 128,-1,12
 360 -300 360 -300 381.5 -289.5 c 128,-1,13
 403 -279 403 -279 418.5 -261 c 128,-1,14
 434 -243 434 -243 439 -214 c 0,15,16
 443 -187 443 -187 430.5 -172 c 128,-1,17
 418 -157 418 -157 397.5 -149.5 c 128,-1,18
 377 -142 377 -142 353 -139.5 c 128,-1,19
 329 -137 329 -137 310 -135 c 1,20,-1
 355 1 l 1,21,-1
 524 3 l 1,0,-1
EndSplineSet
EndChar
StartChar: onesuperior
Encoding: 185 185 120
Width: 1202
Flags: W
LayerCount: 2
Back
Fore
SplineSet
761 662 m 1,0,-1
 581 662 l 1,1,-1
 680 1230 l 1,2,-1
 476 1182 l 1,3,-1
 503 1334 l 1,4,-1
 868 1449 l 1,5,-1
 891 1449 l 1,6,-1
 761 662 l 1,0,-1
EndSplineSet
EndChar
StartChar: ordmasculine
Encoding: 186 186 121
Width: 1202
Flags: W
LayerCount: 2
Back
Fore
SplineSet
348 1140 m 2,0,1
 357 1215 357 1215 389.5 1277.5 c 128,-1,2
 422 1340 422 1340 472 1385 c 128,-1,3
 522 1430 522 1430 588 1454 c 128,-1,4
 654 1478 654 1478 731 1476 c 0,5,6
 804 1474 804 1474 861 1448 c 128,-1,7
 918 1422 918 1422 956.5 1377.5 c 128,-1,8
 995 1333 995 1333 1012.5 1272.5 c 128,-1,9
 1030 1212 1030 1212 1023 1141 c 2,10,-1
 1010 1024 l 2,11,12
 1001 949 1001 949 968.5 886.5 c 128,-1,13
 936 824 936 824 886 779.5 c 128,-1,14
 836 735 836 735 770 711.5 c 128,-1,15
 704 688 704 688 628 690 c 0,16,17
 556 692 556 692 498.5 717.5 c 128,-1,18
 441 743 441 743 402.5 787.5 c 128,-1,19
 364 832 364 832 346 892.5 c 128,-1,20
 328 953 328 953 335 1024 c 2,21,-1
 348 1140 l 2,0,1
510 1021 m 2,22,23
 507 985 507 985 513 951.5 c 128,-1,24
 519 918 519 918 535 892.5 c 128,-1,25
 551 867 551 867 578 851 c 128,-1,26
 605 835 605 835 646 834 c 0,27,28
 688 833 688 833 721.5 848 c 128,-1,29
 755 863 755 863 779 889 c 128,-1,30
 803 915 803 915 817.5 949.5 c 128,-1,31
 832 984 832 984 837 1023 c 2,32,-1
 850 1142 l 2,33,34
 853 1178 853 1178 847.5 1211.5 c 128,-1,35
 842 1245 842 1245 825.5 1271 c 128,-1,36
 809 1297 809 1297 781 1312.5 c 128,-1,37
 753 1328 753 1328 713 1329 c 0,38,39
 671 1330 671 1330 637.5 1315.5 c 128,-1,40
 604 1301 604 1301 580 1275 c 128,-1,41
 556 1249 556 1249 541.5 1214.5 c 128,-1,42
 527 1180 527 1180 522 1141 c 2,43,-1
 510 1021 l 2,22,23
EndSplineSet
EndChar
StartChar: questiondown
Encoding: 191 191 126
Width: 1202
Flags: W
LayerCount: 2
Back
Fore
SplineSet
740 656 m 1,0,1
 734 594 734 594 723 547 c 128,-1,2
 712 500 712 500 692 460.5 c 128,-1,3
 672 421 672 421 640.5 385 c 128,-1,4
 609 349 609 349 562 309 c 0,5,6
 526 279 526 279 487.5 243 c 128,-1,7
 449 207 449 207 416 166.5 c 128,-1,8
 383 126 383 126 359 80.5 c 128,-1,9
 335 35 335 35 329 -14 c 0,10,11
 324 -53 324 -53 330 -86.5 c 128,-1,12
 336 -120 336 -120 354 -144 c 128,-1,13
 372 -168 372 -168 402 -182 c 128,-1,14
 432 -196 432 -196 473 -197 c 0,15,16
 517 -198 517 -198 553 -185 c 128,-1,17
 589 -172 589 -172 616 -148 c 128,-1,18
 643 -124 643 -124 661.5 -90 c 128,-1,19
 680 -56 680 -56 688 -15 c 1,20,-1
 922 -14 l 1,21,22
 912 -107 912 -107 872 -178.5 c 128,-1,23
 832 -250 832 -250 770 -298 c 128,-1,24
 708 -346 708 -346 627.5 -370.5 c 128,-1,25
 547 -395 547 -395 457 -393 c 0,26,27
 371 -391 371 -391 300 -365.5 c 128,-1,28
 229 -340 229 -340 179.5 -292 c 128,-1,29
 130 -244 130 -244 106 -174.5 c 128,-1,30
 82 -105 82 -105 90 -15 c 0,31,32
 96 60 96 60 126.5 122.5 c 128,-1,33
 157 185 157 185 202 239 c 128,-1,34
 247 293 247 293 301 340.5 c 128,-1,35
 355 388 355 388 409 433 c 0,36,37
 438 457 438 457 457.5 481.5 c 128,-1,38
 477 506 477 506 490.5 532 c 128,-1,39
 504 558 504 558 511.5 588.5 c 128,-1,40
 519 619 519 619 524 655 c 1,41,-1
 740 656 l 1,0,1
568 959 m 0,42,43
 568 1016 568 1016 600.5 1051.5 c 128,-1,44
 633 1087 633 1087 690 1089 c 0,45,46
 747 1090 747 1090 781.5 1056.5 c 128,-1,47
 816 1023 816 1023 816 967 c 0,48,49
 816 910 816 910 781.5 876.5 c 128,-1,50
 747 843 747 843 690 842 c 0,51,52
 634 840 634 840 601 871.5 c 128,-1,53
 568 903 568 903 568 959 c 0,42,43
EndSplineSet
EndChar
StartChar: AE
Encoding: 198 198 127
Width: 1202
Flags: W
LayerCount: 2
Back
Fore
SplineSet
1050 0 m 1,0,-1
 528 0 l 1,1,-1
 587 340 l 1,2,-1
 340 340 l 1,3,-1
 178 0 l 1,4,-1
 -73 0 l 1,5,-1
 685 1456 l 1,6,-1
 1282 1456 l 1,7,-1
 1247 1262 l 1,8,-1
 969 1262 l 1,9,-1
 898 850 l 1,10,-1
 1147 850 l 1,11,-1
 1112 656 l 1,12,-1
 864 656 l 1,13,-1
 784 193 l 1,14,-1
 1084 193 l 1,15,-1
 1050 0 l 1,0,-1
624 553 m 1,16,-1
 728 1150 l 1,17,-1
 441 553 l 1,18,-1
 624 553 l 1,16,-1
EndSplineSet
EndChar
StartChar: multiply
Encoding: 215 215 128
Width: 1202
Flags: W
LayerCount: 2
Back
Fore
SplineSet
122 372 m 1,0,-1
 486 696 l 1,1,-1
 234 1018 l 1,2,-1
 393 1157 l 1,3,-1
 643 836 l 1,4,-1
 1006 1157 l 1,5,-1
 1131 1000 l 1,6,-1
 767 677 l 1,7,-1
 1019 354 l 1,8,-1
 860 215 l 1,9,-1
 609 536 l 1,10,-1
 247 215 l 1,11,-1
 122 372 l 1,0,-1
EndSplineSet
EndChar
StartChar: Oslash
Encoding: 216 216 129
Width: 1202
Flags: W
LayerCount: 2
Back
Fore
SplineSet
1108 635 m 2,0,1
 1095 556 1095 556 1070.5 476 c 128,-1,2
 1046 396 1046 396 1009 322.5 c 128,-1,3
 972 249 972 249 921.5 185.5 c 128,-1,4
 871 122 871 122 808 75.5 c 128,-1,5
 745 29 745 29 667.5 3.5 c 128,-1,6
 590 -22 590 -22 499 -20 c 0,7,8
 413 -18 413 -18 347.5 9.5 c 128,-1,9
 282 37 282 37 234 85 c 1,10,-1
 102 -95 l 1,11,-1
 -74 -95 l 1,12,-1
 148 207 l 1,13,14
 125 254 125 254 111 306.5 c 128,-1,15
 97 359 97 359 91 413.5 c 128,-1,16
 85 468 85 468 85.5 524 c 128,-1,17
 86 580 86 580 94 634 c 2,18,-1
 123 820 l 2,19,20
 135 898 135 898 159.5 978 c 128,-1,21
 184 1058 184 1058 220.5 1131.5 c 128,-1,22
 257 1205 257 1205 306 1269 c 128,-1,23
 355 1333 355 1333 418 1379.5 c 128,-1,24
 481 1426 481 1426 557 1452 c 128,-1,25
 633 1478 633 1478 724 1476 c 0,26,27
 813 1474 813 1474 880.5 1444 c 128,-1,28
 948 1414 948 1414 998 1364 c 1,29,-1
 1111 1518 l 1,30,-1
 1288 1518 l 1,31,-1
 1084 1240 l 1,32,33
 1106 1193 1106 1193 1119.5 1141.5 c 128,-1,34
 1133 1090 1133 1090 1139.5 1036 c 128,-1,35
 1146 982 1146 982 1145 927.5 c 128,-1,36
 1144 873 1144 873 1137 820 c 2,37,-1
 1108 635 l 2,0,1
329 633 m 2,38,39
 323 591 323 591 319.5 541.5 c 128,-1,40
 316 492 316 492 319 440 c 1,41,-1
 864 1182 l 1,42,43
 841 1221 841 1221 802.5 1246 c 128,-1,44
 764 1271 764 1271 706 1273 c 0,45,46
 647 1275 647 1275 600.5 1255.5 c 128,-1,47
 554 1236 554 1236 518 1201.5 c 128,-1,48
 482 1167 482 1167 455.5 1121 c 128,-1,49
 429 1075 429 1075 410 1024 c 128,-1,50
 391 973 391 973 378.5 921 c 128,-1,51
 366 869 366 869 358 822 c 2,52,-1
 329 633 l 2,38,39
902 823 m 2,53,54
 907 862 907 862 910.5 909.5 c 128,-1,55
 914 957 914 957 911 1005 c 1,56,-1
 366 265 l 1,57,58
 389 228 389 228 425.5 205.5 c 128,-1,59
 462 183 462 183 518 181 c 0,60,61
 577 179 577 179 624.5 198.5 c 128,-1,62
 672 218 672 218 708.5 252.5 c 128,-1,63
 745 287 745 287 772.5 333.5 c 128,-1,64
 800 380 800 380 820 431 c 128,-1,65
 840 482 840 482 852.5 534.5 c 128,-1,66
 865 587 865 587 873 634 c 2,67,-1
 902 823 l 2,53,54
EndSplineSet
EndChar
StartChar: Thorn
Encoding: 222 222 130
Width: 1202
Flags: W
LayerCount: 2
Back
Fore
SplineSet
527 1456 m 1,0,-1
 478 1175 l 1,1,-1
 704 1174 l 2,2,3
 800 1171 800 1171 883 1142 c 128,-1,4
 966 1113 966 1113 1025.5 1059 c 128,-1,5
 1085 1005 1085 1005 1116 926 c 128,-1,6
 1147 847 1147 847 1138 745 c 0,7,8
 1128 633 1128 633 1078.5 549.5 c 128,-1,9
 1029 466 1029 466 952.5 410.5 c 128,-1,10
 876 355 876 355 779 327 c 128,-1,11
 682 299 682 299 578 299 c 2,12,-1
 327 300 l 1,13,-1
 274 0 l 1,14,-1
 40 0 l 1,15,-1
 293 1456 l 1,16,-1
 527 1456 l 1,0,-1
445 983 m 1,17,-1
 359 492 l 1,18,-1
 587 490 l 2,19,20
 646 490 646 490 700 506.5 c 128,-1,21
 754 523 754 523 796.5 555.5 c 128,-1,22
 839 588 839 588 867 635 c 128,-1,23
 895 682 895 682 903 744 c 0,24,25
 910 798 910 798 898.5 841 c 128,-1,26
 887 884 887 884 859.5 914.5 c 128,-1,27
 832 945 832 945 790.5 962.5 c 128,-1,28
 749 980 749 980 696 982 c 2,29,-1
 445 983 l 1,17,-1
EndSplineSet
EndChar
StartChar: germandbls
Encoding: 223 223 131
Width: 1202
Flags: W
LayerCount: 2
Back
Fore
SplineSet
286 0 m 1,0,-1
 53 0 l 1,1,-1
 238 1079 l 2,2,3
 252 1177 252 1177 289.5 1265.5 c 128,-1,4
 327 1354 327 1354 388.5 1421 c 128,-1,5
 450 1488 450 1488 534 1526 c 128,-1,6
 618 1564 618 1564 725 1561 c 0,7,8
 801 1559 801 1559 863.5 1534 c 128,-1,9
 926 1509 926 1509 969 1464 c 128,-1,10
 1012 1419 1012 1419 1033 1356 c 128,-1,11
 1054 1293 1054 1293 1048 1215 c 0,12,13
 1043 1155 1043 1155 1019 1106.5 c 128,-1,14
 995 1058 995 1058 965.5 1012.5 c 128,-1,15
 936 967 936 967 909.5 920.5 c 128,-1,16
 883 874 883 874 873 818 c 0,17,18
 866 776 866 776 878 737.5 c 128,-1,19
 890 699 890 699 912 661.5 c 128,-1,20
 934 624 934 624 961.5 587.5 c 128,-1,21
 989 551 989 551 1012.5 512 c 128,-1,22
 1036 473 1036 473 1051 431.5 c 128,-1,23
 1066 390 1066 390 1063 343 c 0,24,25
 1058 257 1058 257 1025.5 188.5 c 128,-1,26
 993 120 993 120 939.5 72.5 c 128,-1,27
 886 25 886 25 814 0.5 c 128,-1,28
 742 -24 742 -24 657 -23 c 0,29,30
 586 -22 586 -22 512 -8.5 c 128,-1,31
 438 5 438 5 375 42 c 1,32,-1
 442 236 l 1,33,34
 488 205 488 205 543 186 c 128,-1,35
 598 167 598 167 655 169 c 0,36,37
 729 170 729 170 775.5 216 c 128,-1,38
 822 262 822 262 833 334 c 0,39,40
 839 378 839 378 826 417.5 c 128,-1,41
 813 457 813 457 790 493.5 c 128,-1,42
 767 530 767 530 739 566 c 128,-1,43
 711 602 711 602 687.5 640.5 c 128,-1,44
 664 679 664 679 649.5 721.5 c 128,-1,45
 635 764 635 764 640 814 c 0,46,47
 643 852 643 852 656 885 c 128,-1,48
 669 918 669 918 687.5 948.5 c 128,-1,49
 706 979 706 979 726.5 1008 c 128,-1,50
 747 1037 747 1037 765.5 1067.5 c 128,-1,51
 784 1098 784 1098 798 1130.5 c 128,-1,52
 812 1163 812 1163 816 1200 c 0,53,54
 819 1229 819 1229 814.5 1259 c 128,-1,55
 810 1289 810 1289 796 1313.5 c 128,-1,56
 782 1338 782 1338 759 1354 c 128,-1,57
 736 1370 736 1370 702 1372 c 0,58,59
 644 1375 644 1375 602.5 1346.5 c 128,-1,60
 561 1318 561 1318 533.5 1273.5 c 128,-1,61
 506 1229 506 1229 490.5 1176.5 c 128,-1,62
 475 1124 475 1124 468 1078 c 2,63,-1
 286 0 l 1,0,-1
EndSplineSet
Substitution2: "'smcp' Lowercase to Small Capitals lookup 0 subtable" Germandbls.smcp
EndChar
StartChar: ae
Encoding: 230 230 132
Width: 1202
Flags: W
LayerCount: 2
Back
Fore
SplineSet
763 -19 m 0,0,1
 725 -19 725 -19 687.5 -11.5 c 128,-1,2
 650 -4 650 -4 617 11 c 128,-1,3
 584 26 584 26 556 50 c 128,-1,4
 528 74 528 74 508 108 c 1,5,6
 457 51 457 51 394.5 15 c 128,-1,7
 332 -21 332 -21 252 -20 c 0,8,9
 185 -19 185 -19 134.5 4.5 c 128,-1,10
 84 28 84 28 50.5 68.5 c 128,-1,11
 17 109 17 109 1.5 164 c 128,-1,12
 -14 219 -14 219 -10 283 c 0,13,14
 -4 380 -4 380 36.5 448.5 c 128,-1,15
 77 517 77 517 141.5 560.5 c 128,-1,16
 206 604 206 604 288.5 623.5 c 128,-1,17
 371 643 371 643 459 642 c 2,18,-1
 488 642 l 1,19,-1
 512 775 l 2,20,21
 515 796 515 796 515 819.5 c 128,-1,22
 515 843 515 843 508 863 c 128,-1,23
 501 883 501 883 486 896 c 128,-1,24
 471 909 471 909 444 910 c 0,25,26
 415 911 415 911 394 900 c 128,-1,27
 373 889 373 889 358.5 871 c 128,-1,28
 344 853 344 853 335.5 830 c 128,-1,29
 327 807 327 807 323 782 c 1,30,-1
 99 791 l 1,31,32
 106 864 106 864 134.5 922.5 c 128,-1,33
 163 981 163 981 209.5 1021.5 c 128,-1,34
 256 1062 256 1062 318 1083.5 c 128,-1,35
 380 1105 380 1105 453 1104 c 0,36,37
 515 1102 515 1102 573 1083 c 128,-1,38
 631 1064 631 1064 673 1016 c 1,39,40
 725 1058 725 1058 782.5 1080.5 c 128,-1,41
 840 1103 840 1103 907 1101 c 0,42,43
 987 1099 987 1099 1042 1065 c 128,-1,44
 1097 1031 1097 1031 1129 977 c 128,-1,45
 1161 923 1161 923 1172 854.5 c 128,-1,46
 1183 786 1183 786 1176 715 c 1,47,-1
 1138 472 l 1,48,-1
 677 472 l 1,49,-1
 665 386 l 2,50,51
 660 341 660 341 665 302.5 c 128,-1,52
 670 264 670 264 688 235.5 c 128,-1,53
 706 207 706 207 738.5 190.5 c 128,-1,54
 771 174 771 174 821 173 c 0,55,56
 875 172 875 172 921 188.5 c 128,-1,57
 967 205 967 205 1015 228 c 1,58,-1
 1049 58 l 1,59,60
 1020 35 1020 35 985 20.5 c 128,-1,61
 950 6 950 6 912.5 -3 c 128,-1,62
 875 -12 875 -12 837 -15.5 c 128,-1,63
 799 -19 799 -19 763 -19 c 0,0,1
698 641 m 1,64,-1
 949 642 l 1,65,-1
 966 765 l 2,66,67
 968 790 968 790 965.5 815.5 c 128,-1,68
 963 841 963 841 952.5 862 c 128,-1,69
 942 883 942 883 923 896.5 c 128,-1,70
 904 910 904 910 874 911 c 0,71,72
 831 912 831 912 802 893 c 128,-1,73
 773 874 773 874 754.5 843.5 c 128,-1,74
 736 813 736 813 725.5 776.5 c 128,-1,75
 715 740 715 740 709 706 c 2,76,-1
 698 641 l 1,64,-1
314 161 m 0,77,78
 343 161 343 161 368 175 c 128,-1,79
 393 189 393 189 416 205 c 1,80,-1
 470 478 l 1,81,-1
 452 478 l 2,82,83
 409 476 409 476 369.5 461.5 c 128,-1,84
 330 447 330 447 299 421 c 128,-1,85
 268 395 268 395 247.5 359 c 128,-1,86
 227 323 227 323 221 279 c 0,87,88
 215 230 215 230 238.5 195.5 c 128,-1,89
 262 161 262 161 314 161 c 0,77,78
EndSplineSet
EndChar
StartChar: eth
Encoding: 240 240 133
Width: 1202
Flags: W
LayerCount: 2
Back
Fore
SplineSet
967 1273 m 1,0,1
 1041 1121 1041 1121 1062.5 964.5 c 128,-1,2
 1084 808 1084 808 1062 641 c 2,3,-1
 1053 577 l 2,4,5
 1042 500 1042 500 1017.5 425 c 128,-1,6
 993 350 993 350 954.5 282.5 c 128,-1,7
 916 215 916 215 865 158.5 c 128,-1,8
 814 102 814 102 751 61.5 c 128,-1,9
 688 21 688 21 613.5 -1 c 128,-1,10
 539 -23 539 -23 454 -21 c 0,11,12
 353 -18 353 -18 271 20 c 128,-1,13
 189 58 189 58 132.5 122.5 c 128,-1,14
 76 187 76 187 49 273.5 c 128,-1,15
 22 360 22 360 31 460 c 0,16,17
 41 569 41 569 86 664 c 128,-1,18
 131 759 131 759 203 828.5 c 128,-1,19
 275 898 275 898 370.5 937 c 128,-1,20
 466 976 466 976 579 973 c 0,21,22
 652 971 652 971 717.5 944.5 c 128,-1,23
 783 918 783 918 837 870 c 1,24,25
 837 948 837 948 817.5 1020 c 128,-1,26
 798 1092 798 1092 756 1158 c 1,27,-1
 483 1014 l 1,28,-1
 422 1132 l 1,29,-1
 661 1256 l 1,30,31
 632 1279 632 1279 600.5 1295 c 128,-1,32
 569 1311 569 1311 534 1324 c 1,33,-1
 627 1515 l 1,34,35
 698 1494 698 1494 761 1458.5 c 128,-1,36
 824 1423 824 1423 879 1372 c 1,37,-1
 1112 1495 l 1,38,-1
 1173 1376 l 1,39,-1
 967 1273 l 1,0,1
832 677 m 1,40,41
 813 710 813 710 783 731.5 c 128,-1,42
 753 753 753 753 717.5 766 c 128,-1,43
 682 779 682 779 644 784.5 c 128,-1,44
 606 790 606 790 571 790 c 0,45,46
 505 790 505 790 451 761 c 128,-1,47
 397 732 397 732 358 685 c 128,-1,48
 319 638 319 638 295 579 c 128,-1,49
 271 520 271 520 264 460 c 0,50,51
 258 406 258 406 267.5 354.5 c 128,-1,52
 277 303 277 303 303.5 262.5 c 128,-1,53
 330 222 330 222 372.5 196.5 c 128,-1,54
 415 171 415 171 474 169 c 0,55,56
 554 166 554 166 613.5 202.5 c 128,-1,57
 673 239 673 239 715 297 c 128,-1,58
 757 355 757 355 781.5 426 c 128,-1,59
 806 497 806 497 816 564 c 2,60,-1
 828 644 l 1,61,-1
 832 677 l 1,40,41
EndSplineSet
Substitution2: "'smcp' Lowercase to Small Capitals lookup 0 subtable" Eth.smcp
EndChar
StartChar: divide
Encoding: 247 247 134
Width: 1202
Flags: W
LayerCount: 2
Back
Fore
SplineSet
1086 583 m 1,0,-1
 104 583 l 1,1,-1
 141 794 l 1,2,-1
 1123 794 l 1,3,-1
 1086 583 l 1,0,-1
553 1090 m 256,4,5
 553 1118 553 1118 563 1142 c 128,-1,6
 573 1166 573 1166 590.5 1183 c 128,-1,7
 608 1200 608 1200 632 1210 c 128,-1,8
 656 1220 656 1220 684 1221 c 0,9,10
 711 1222 711 1222 735 1213 c 128,-1,11
 759 1204 759 1204 776.5 1188 c 128,-1,12
 794 1172 794 1172 804 1149 c 128,-1,13
 814 1126 814 1126 814 1098 c 256,14,15
 814 1070 814 1070 804 1046.5 c 128,-1,16
 794 1023 794 1023 776.5 1005.5 c 128,-1,17
 759 988 759 988 735 978.5 c 128,-1,18
 711 969 711 969 683 968 c 0,19,20
 656 967 656 967 632 975.5 c 128,-1,21
 608 984 608 984 590.5 1000.5 c 128,-1,22
 573 1017 573 1017 563 1039.5 c 128,-1,23
 553 1062 553 1062 553 1090 c 256,4,5
410 275 m 256,24,25
 410 303 410 303 420 327 c 128,-1,26
 430 351 430 351 447.5 368.5 c 128,-1,27
 465 386 465 386 489 396 c 128,-1,28
 513 406 513 406 541 407 c 0,29,30
 568 408 568 408 592 399 c 128,-1,31
 616 390 616 390 633.5 373.5 c 128,-1,32
 651 357 651 357 661 334 c 128,-1,33
 671 311 671 311 671 283 c 256,34,35
 671 255 671 255 661 231 c 128,-1,36
 651 207 651 207 633.5 190 c 128,-1,37
 616 173 616 173 592 163 c 128,-1,38
 568 153 568 153 540 153 c 0,39,40
 513 152 513 152 489 160.5 c 128,-1,41
 465 169 465 169 447.5 185.5 c 128,-1,42
 430 202 430 202 420 224.5 c 128,-1,43
 410 247 410 247 410 275 c 256,24,25
EndSplineSet
EndChar
StartChar: oslash
Encoding: 248 248 135
Width: 1202
Flags: W
LayerCount: 2
Back
Fore
SplineSet
99 544 m 2,0,1
 113 656 113 656 157.5 758.5 c 128,-1,2
 202 861 202 861 274.5 938 c 128,-1,3
 347 1015 347 1015 445.5 1060 c 128,-1,4
 544 1105 544 1105 665 1102 c 0,5,6
 720 1100 720 1100 767.5 1088 c 128,-1,7
 815 1076 815 1076 855 1056 c 1,8,-1
 957 1212 l 1,9,-1
 1109 1212 l 1,10,-1
 957 978 l 1,11,12
 993 939 993 939 1018 891 c 128,-1,13
 1043 843 1043 843 1057.5 788.5 c 128,-1,14
 1072 734 1072 734 1076 674.5 c 128,-1,15
 1080 615 1080 615 1074 554 c 2,16,-1
 1072 532 l 2,17,18
 1058 420 1058 420 1013 318.5 c 128,-1,19
 968 217 968 217 895.5 140.5 c 128,-1,20
 823 64 823 64 724.5 20 c 128,-1,21
 626 -24 626 -24 506 -21 c 0,22,23
 408 -18 408 -18 331 16 c 1,24,-1
 231 -138 l 1,25,-1
 79 -138 l 1,26,-1
 226 88 l 1,27,28
 187 127 187 127 159.5 175.5 c 128,-1,29
 132 224 132 224 116 280 c 128,-1,30
 100 336 100 336 95 397.5 c 128,-1,31
 90 459 90 459 97 523 c 2,32,-1
 99 544 l 2,0,1
330 523 m 2,33,34
 323 465 323 465 326.5 401 c 128,-1,35
 330 337 330 337 353 284 c 1,36,-1
 743 883 l 1,37,38
 724 895 724 895 700.5 902 c 128,-1,39
 677 909 677 909 648 910 c 0,40,41
 573 912 573 912 517 879 c 128,-1,42
 461 846 461 846 423 792.5 c 128,-1,43
 385 739 385 739 362.5 673 c 128,-1,44
 340 607 340 607 332 544 c 2,45,-1
 330 523 l 2,33,34
840 553 m 2,46,47
 845 606 845 606 843 664 c 128,-1,48
 841 722 841 722 824 774 c 1,49,-1
 442 187 l 1,50,51
 477 170 477 170 523 169 c 0,52,53
 598 166 598 166 653.5 199 c 128,-1,54
 709 232 709 232 747 285 c 128,-1,55
 785 338 785 338 807.5 404 c 128,-1,56
 830 470 830 470 838 533 c 2,57,-1
 840 553 l 2,46,47
EndSplineSet
EndChar
StartChar: thorn
Encoding: 254 254 136
Width: 1202
Flags: W
LayerCount: 2
Back
Fore
SplineSet
1058 536 m 2,0,1
 1050 470 1050 470 1032 402.5 c 128,-1,2
 1014 335 1014 335 985 272.5 c 128,-1,3
 956 210 956 210 916.5 155.5 c 128,-1,4
 877 101 877 101 825.5 61.5 c 128,-1,5
 774 22 774 22 710.5 -0.5 c 128,-1,6
 647 -23 647 -23 570 -21 c 0,7,8
 492 -19 492 -19 423.5 9.5 c 128,-1,9
 355 38 355 38 304 98 c 1,10,-1
 208 -416 l 1,11,-1
 -25 -416 l 1,12,-1
 316 1551 l 1,13,-1
 549 1551 l 1,14,-1
 441 981 l 1,15,16
 501 1041 501 1041 572.5 1072.5 c 128,-1,17
 644 1104 644 1104 730 1102 c 0,18,19
 804 1100 804 1100 859 1076 c 128,-1,20
 914 1052 914 1052 952.5 1011.5 c 128,-1,21
 991 971 991 971 1015 917.5 c 128,-1,22
 1039 864 1039 864 1051.5 804 c 128,-1,23
 1064 744 1064 744 1065 680.5 c 128,-1,24
 1066 617 1066 617 1060 557 c 2,25,-1
 1058 536 l 2,0,1
827 558 m 2,26,27
 831 593 831 593 831.5 631.5 c 128,-1,28
 832 670 832 670 827.5 708.5 c 128,-1,29
 823 747 823 747 811.5 782 c 128,-1,30
 800 817 800 817 779 844 c 128,-1,31
 758 871 758 871 726 887.5 c 128,-1,32
 694 904 694 904 649 906 c 0,33,34
 574 908 574 908 517 873 c 128,-1,35
 460 838 460 838 416 781 c 1,36,-1
 331 298 l 1,37,38
 356 235 356 235 403.5 203.5 c 128,-1,39
 451 172 451 172 519 170 c 0,40,41
 594 168 594 168 648 201.5 c 128,-1,42
 702 235 702 235 738.5 288.5 c 128,-1,43
 775 342 775 342 795.5 408 c 128,-1,44
 816 474 816 474 824 537 c 2,45,-1
 827 558 l 2,26,27
EndSplineSet
EndChar
StartChar: Aogonek
Encoding: 260 260 549
Width: 1202
Flags: W
LayerCount: 2
Back
Fore
SplineSet
996 0 m 1,0,-1
 1002 -3 l 1,1,2
 971 -18 971 -18 939.5 -37 c 128,-1,3
 908 -56 908 -56 882 -80.5 c 128,-1,4
 856 -105 856 -105 838 -136 c 128,-1,5
 820 -167 820 -167 816 -204 c 0,6,7
 812 -233 812 -233 824 -249.5 c 128,-1,8
 836 -266 836 -266 867 -267 c 0,9,10
 890 -268 890 -268 912.5 -260.5 c 128,-1,11
 935 -253 935 -253 957 -245 c 1,12,-1
 985 -388 l 1,13,14
 945 -410 945 -410 900.5 -420 c 128,-1,15
 856 -430 856 -430 811 -429 c 0,16,17
 768 -429 768 -429 733 -415 c 128,-1,18
 698 -401 698 -401 673 -376 c 128,-1,19
 648 -351 648 -351 635 -316 c 128,-1,20
 622 -281 622 -281 624 -238 c 0,21,22
 625 -193 625 -193 642 -154 c 128,-1,23
 659 -115 659 -115 686 -81.5 c 128,-1,24
 713 -48 713 -48 748 -20.5 c 128,-1,25
 783 7 783 7 820 29 c 1,26,-1
 787 338 l 1,27,-1
 347 338 l 1,28,-1
 191 0 l 1,29,-1
 -58 0 l 1,30,-1
 654 1456 l 1,31,-1
 860 1456 l 1,32,-1
 1057 0 l 1,33,-1
 996 0 l 1,0,-1
442 543 m 1,34,-1
 764 543 l 1,35,-1
 704 1111 l 1,36,-1
 442 543 l 1,34,-1
EndSplineSet
Substitution2: "'smcp' Lowercase to Small Capitals lookup 0 subtable" Aogonek.smcp
EndChar
StartChar: aogonek
Encoding: 261 261 550
Width: 1202
Flags: W
LayerCount: 2
Back
Fore
SplineSet
905 0 m 1,0,-1
 911 -3 l 1,1,2
 880 -18 880 -18 848.5 -37 c 128,-1,3
 817 -56 817 -56 791 -80.5 c 128,-1,4
 765 -105 765 -105 747 -136 c 128,-1,5
 729 -167 729 -167 725 -204 c 0,6,7
 721 -233 721 -233 733 -249.5 c 128,-1,8
 745 -266 745 -266 776 -267 c 0,9,10
 799 -268 799 -268 821.5 -260.5 c 128,-1,11
 844 -253 844 -253 866 -245 c 1,12,-1
 894 -388 l 1,13,14
 854 -410 854 -410 809.5 -420 c 128,-1,15
 765 -430 765 -430 720 -429 c 0,16,17
 677 -429 677 -429 642 -415 c 128,-1,18
 607 -401 607 -401 582 -376 c 128,-1,19
 557 -351 557 -351 544 -316 c 128,-1,20
 531 -281 531 -281 533 -238 c 0,21,22
 534 -195 534 -195 550 -156.5 c 128,-1,23
 566 -118 566 -118 592 -85.5 c 128,-1,24
 618 -53 618 -53 651 -26 c 128,-1,25
 684 1 684 1 720 23 c 1,26,27
 717 43 717 43 716.5 63.5 c 128,-1,28
 716 84 716 84 717 105 c 1,29,30
 651 46 651 46 573.5 12.5 c 128,-1,31
 496 -21 496 -21 406 -19 c 0,32,33
 338 -18 338 -18 277 4 c 128,-1,34
 216 26 216 26 171 66.5 c 128,-1,35
 126 107 126 107 101 164.5 c 128,-1,36
 76 222 76 222 80 295 c 0,37,38
 84 366 84 366 108.5 421 c 128,-1,39
 133 476 133 476 172 516.5 c 128,-1,40
 211 557 211 557 262.5 585 c 128,-1,41
 314 613 314 613 372 630.5 c 128,-1,42
 430 648 430 648 491.5 655 c 128,-1,43
 553 662 553 662 614 662 c 2,44,-1
 791 661 l 1,45,-1
 803 734 l 2,46,47
 809 778 809 778 798.5 812.5 c 128,-1,48
 788 847 788 847 764 870.5 c 128,-1,49
 740 894 740 894 705 906.5 c 128,-1,50
 670 919 670 919 627 920 c 0,51,52
 589 921 589 921 555 912.5 c 128,-1,53
 521 904 521 904 493 885.5 c 128,-1,54
 465 867 465 867 446 839 c 128,-1,55
 427 811 427 811 419 772 c 1,56,-1
 186 771 l 1,57,58
 193 857 193 857 238 920 c 128,-1,59
 283 983 283 983 350 1024 c 128,-1,60
 417 1065 417 1065 497 1084.5 c 128,-1,61
 577 1104 577 1104 654 1103 c 0,62,63
 738 1101 738 1101 811.5 1076.5 c 128,-1,64
 885 1052 885 1052 938 1005 c 128,-1,65
 991 958 991 958 1018.5 889 c 128,-1,66
 1046 820 1046 820 1037 730 c 1,67,-1
 958 247 l 2,68,69
 949 190 949 190 946 132 c 128,-1,70
 943 74 943 74 961 18 c 1,71,-1
 959 0 l 1,72,-1
 905 0 l 1,0,-1
464 172 m 0,73,74
 544 170 544 170 614 206 c 128,-1,75
 684 242 684 242 733 305 c 1,76,-1
 770 509 l 1,77,-1
 635 510 l 2,78,79
 586 510 586 510 533 502 c 128,-1,80
 480 494 480 494 434 473.5 c 128,-1,81
 388 453 388 453 356 416 c 128,-1,82
 324 379 324 379 317 321 c 0,83,84
 312 284 312 284 321.5 256.5 c 128,-1,85
 331 229 331 229 351 210.5 c 128,-1,86
 371 192 371 192 400 182.5 c 128,-1,87
 429 173 429 173 464 172 c 0,73,74
EndSplineSet
Substitution2: "'smcp' Lowercase to Small Capitals lookup 0 subtable" Aogonek.smcp
EndChar
StartChar: Dcroat
Encoding: 272 272 485
Width: 1232
Flags: W
LayerCount: 2
Back
Fore
SplineSet
58 0 m 1,0,-1
 171 651 l 1,1,-1
 -25 651 l 1,2,-1
 5 821 l 1,3,-1
 200 821 l 1,4,-1
 311 1456 l 1,5,-1
 644 1455 l 2,6,7
 788 1452 788 1452 894 1397 c 128,-1,8
 1000 1342 1000 1342 1066 1250 c 128,-1,9
 1132 1158 1132 1158 1157.5 1037.5 c 128,-1,10
 1183 917 1183 917 1166 782 c 2,11,-1
 1151 672 l 2,12,13
 1129 530 1129 530 1068.5 407 c 128,-1,14
 1008 284 1008 284 914.5 193.5 c 128,-1,15
 821 103 821 103 697 51.5 c 128,-1,16
 573 0 573 0 424 0 c 2,17,-1
 58 0 l 1,0,-1
623 651 m 1,18,-1
 409 651 l 1,19,-1
 330 193 l 1,20,-1
 433 192 l 2,21,22
 539 192 539 192 621.5 230.5 c 128,-1,23
 704 269 704 269 763.5 334.5 c 128,-1,24
 823 400 823 400 860 487 c 128,-1,25
 897 574 897 574 912 672 c 2,26,-1
 929 785 l 2,27,28
 940 869 940 869 933 952.5 c 128,-1,29
 926 1036 926 1036 893 1103 c 128,-1,30
 860 1170 860 1170 797.5 1213.5 c 128,-1,31
 735 1257 735 1257 635 1261 c 2,32,-1
 515 1262 l 1,33,-1
 439 821 l 1,34,-1
 654 821 l 1,35,-1
 623 651 l 1,18,-1
EndSplineSet
Substitution2: "'smcp' Lowercase to Small Capitals lookup 0 subtable" Dcroat.smcp
EndChar
StartChar: dcroat
Encoding: 273 273 995
Width: 1232
Flags: W
LayerCount: 2
Back
Fore
SplineSet
1323 1224 m 1,0,-1
 1146 1224 l 1,1,-1
 934 0 l 1,2,-1
 724 0 l 1,3,-1
 739 110 l 1,4,5
 679 46 679 46 606 12 c 128,-1,6
 533 -22 533 -22 443 -20 c 0,7,8
 372 -18 372 -18 318 6.5 c 128,-1,9
 264 31 264 31 224.5 71.5 c 128,-1,10
 185 112 185 112 159.5 165.5 c 128,-1,11
 134 219 134 219 120.5 278.5 c 128,-1,12
 107 338 107 338 104.5 400 c 128,-1,13
 102 462 102 462 108 521 c 2,14,-1
 110 543 l 2,15,16
 118 610 118 610 137 678 c 128,-1,17
 156 746 156 746 185.5 809 c 128,-1,18
 215 872 215 872 255.5 926 c 128,-1,19
 296 980 296 980 348.5 1020 c 128,-1,20
 401 1060 401 1060 466 1082 c 128,-1,21
 531 1104 531 1104 608 1102 c 256,22,23
 685 1100 685 1100 750 1071 c 128,-1,24
 815 1042 815 1042 863 983 c 1,25,-1
 908 1224 l 1,26,-1
 675 1224 l 1,27,-1
 705 1394 l 1,28,-1
 939 1394 l 1,29,-1
 966 1536 l 1,30,-1
 1200 1536 l 1,31,-1
 1175 1394 l 1,32,-1
 1354 1394 l 1,33,-1
 1323 1224 l 1,0,-1
341 521 m 2,34,35
 336 469 336 469 337.5 409.5 c 128,-1,36
 339 350 339 350 356.5 298.5 c 128,-1,37
 374 247 374 247 412 212.5 c 128,-1,38
 450 178 450 178 518 176 c 0,39,40
 595 174 595 174 652 210 c 128,-1,41
 709 246 709 246 752 306 c 1,42,-1
 835 778 l 1,43,44
 811 840 811 840 764 872.5 c 128,-1,45
 717 905 717 905 651 907 c 0,46,47
 576 909 576 909 521 876 c 128,-1,48
 466 843 466 843 429.5 790 c 128,-1,49
 393 737 393 737 372 671 c 128,-1,50
 351 605 351 605 344 542 c 2,51,-1
 341 521 l 2,34,35
EndSplineSet
Substitution2: "'smcp' Lowercase to Small Capitals lookup 0 subtable" Dcroat.smcp
EndChar
StartChar: Eogonek
Encoding: 280 280 567
Width: 1202
Flags: W
LayerCount: 2
Back
Fore
SplineSet
982 653 m 1,0,-1
 401 653 l 1,1,-1
 322 196 l 1,2,-1
 1002 196 l 1,3,-1
 968 0 l 1,4,-1
 863 0 l 1,5,-1
 869 -3 l 1,6,7
 838 -18 838 -18 806.5 -37 c 128,-1,8
 775 -56 775 -56 749 -80.5 c 128,-1,9
 723 -105 723 -105 705 -136 c 128,-1,10
 687 -167 687 -167 683 -204 c 0,11,12
 679 -233 679 -233 691 -249.5 c 128,-1,13
 703 -266 703 -266 734 -267 c 0,14,15
 757 -268 757 -268 779.5 -260.5 c 128,-1,16
 802 -253 802 -253 824 -245 c 1,17,-1
 852 -388 l 1,18,19
 812 -410 812 -410 767.5 -420 c 128,-1,20
 723 -430 723 -430 678 -429 c 0,21,22
 635 -429 635 -429 600 -415 c 128,-1,23
 565 -401 565 -401 540 -376 c 128,-1,24
 515 -351 515 -351 502 -316 c 128,-1,25
 489 -281 489 -281 491 -238 c 0,26,27
 492 -200 492 -200 504.5 -166 c 128,-1,28
 517 -132 517 -132 537.5 -102 c 128,-1,29
 558 -72 558 -72 585.5 -46.5 c 128,-1,30
 613 -21 613 -21 643 0 c 1,31,-1
 53 0 l 1,32,-1
 305 1456 l 1,33,-1
 1214 1456 l 1,34,-1
 1179 1258 l 1,35,-1
 506 1258 l 1,36,-1
 434 847 l 1,37,-1
 1016 847 l 1,38,-1
 982 653 l 1,0,-1
EndSplineSet
Substitution2: "'smcp' Lowercase to Small Capitals lookup 0 subtable" Eogonek.smcp
EndChar
StartChar: eogonek
Encoding: 281 281 568
Width: 1202
Flags: W
LayerCount: 2
Back
Fore
SplineSet
992 182 m 1,0,1
 944 114 944 114 874.5 70 c 128,-1,2
 805 26 805 26 725 3 c 1,3,4
 697 -12 697 -12 670 -30.5 c 128,-1,5
 643 -49 643 -49 621 -72 c 128,-1,6
 599 -95 599 -95 584 -123 c 128,-1,7
 569 -151 569 -151 566 -185 c 0,8,9
 562 -214 562 -214 574 -230.5 c 128,-1,10
 586 -247 586 -247 617 -248 c 0,11,12
 640 -249 640 -249 662.5 -241.5 c 128,-1,13
 685 -234 685 -234 707 -226 c 1,14,-1
 735 -369 l 1,15,16
 695 -391 695 -391 650.5 -401 c 128,-1,17
 606 -411 606 -411 561 -410 c 0,18,19
 518 -410 518 -410 483 -396 c 128,-1,20
 448 -382 448 -382 423 -357 c 128,-1,21
 398 -332 398 -332 385 -297 c 128,-1,22
 372 -262 372 -262 374 -219 c 0,23,24
 376 -156 376 -156 406.5 -105.5 c 128,-1,25
 437 -55 437 -55 483 -15 c 1,26,27
 387 -2 387 -2 312.5 43 c 128,-1,28
 238 88 238 88 188.5 156 c 128,-1,29
 139 224 139 224 117 312 c 128,-1,30
 95 400 95 400 104 499 c 2,31,-1
 109 541 l 2,32,33
 117 614 117 614 141 685 c 128,-1,34
 165 756 165 756 202.5 819 c 128,-1,35
 240 882 240 882 290 934.5 c 128,-1,36
 340 987 340 987 401.5 1025 c 128,-1,37
 463 1063 463 1063 533.5 1083.5 c 128,-1,38
 604 1104 604 1104 683 1102 c 0,39,40
 797 1099 797 1099 876.5 1054 c 128,-1,41
 956 1009 956 1009 1003.5 935 c 128,-1,42
 1051 861 1051 861 1067.5 765.5 c 128,-1,43
 1084 670 1084 670 1071 567 c 2,44,-1
 1056 466 l 1,45,-1
 334 466 l 1,46,47
 329 408 329 408 342.5 355.5 c 128,-1,48
 356 303 356 303 386.5 262.5 c 128,-1,49
 417 222 417 222 463.5 197.5 c 128,-1,50
 510 173 510 173 572 172 c 0,51,52
 660 169 660 169 737.5 205 c 128,-1,53
 815 241 815 241 875 304 c 1,54,-1
 992 182 l 1,0,1
665 910 m 0,55,56
 605 912 605 912 557 889 c 128,-1,57
 509 866 509 866 471.5 828 c 128,-1,58
 434 790 434 790 406 741 c 128,-1,59
 378 692 378 692 359 642 c 1,60,-1
 851 641 l 1,61,-1
 855 662 l 2,62,63
 862 711 862 711 853 755 c 128,-1,64
 844 799 844 799 819 833 c 128,-1,65
 794 867 794 867 755 887.5 c 128,-1,66
 716 908 716 908 665 910 c 0,55,56
EndSplineSet
Substitution2: "'smcp' Lowercase to Small Capitals lookup 0 subtable" Eogonek.smcp
EndChar
StartChar: Hbar
Encoding: 294 294 137
Width: 1202
Flags: W
LayerCount: 2
Back
Fore
SplineSet
1139 1196 m 1,0,-1
 1295 1196 l 1,1,-1
 1266 1036 l 1,2,-1
 1111 1036 l 1,3,-1
 931 0 l 1,4,-1
 703 0 l 1,5,-1
 816 650 l 1,6,-1
 337 650 l 1,7,-1
 224 0 l 1,8,-1
 -4 0 l 1,9,-1
 176 1036 l 1,10,-1
 96 1036 l 1,11,-1
 125 1196 l 1,12,-1
 204 1196 l 1,13,-1
 249 1456 l 1,14,-1
 477 1456 l 1,15,-1
 432 1196 l 1,16,-1
 910 1196 l 1,17,-1
 955 1456 l 1,18,-1
 1184 1456 l 1,19,-1
 1139 1196 l 1,0,-1
849 847 m 1,20,-1
 882 1036 l 1,21,-1
 404 1036 l 1,22,-1
 371 847 l 1,23,-1
 849 847 l 1,20,-1
EndSplineSet
EndChar
StartChar: hbar
Encoding: 295 295 487
Width: 1232
Flags: W
LayerCount: 2
Back
Fore
SplineSet
774 1222 m 1,0,-1
 517 1222 l 1,1,-1
 462 931 l 1,2,3
 493 969 493 969 529 1001 c 128,-1,4
 565 1033 565 1033 606 1055.5 c 128,-1,5
 647 1078 647 1078 692.5 1090.5 c 128,-1,6
 738 1103 738 1103 789 1102 c 0,7,8
 883 1100 883 1100 946.5 1063.5 c 128,-1,9
 1010 1027 1010 1027 1046.5 967 c 128,-1,10
 1083 907 1083 907 1094.5 829 c 128,-1,11
 1106 751 1106 751 1097 667 c 1,12,-1
 985 0 l 1,13,-1
 752 0 l 1,14,-1
 864 670 l 2,15,16
 870 718 870 718 864 760 c 128,-1,17
 858 802 858 802 838.5 834 c 128,-1,18
 819 866 819 866 784.5 884.5 c 128,-1,19
 750 903 750 903 697 905 c 0,20,21
 621 907 621 907 559.5 874 c 128,-1,22
 498 841 498 841 447 787 c 1,23,-1
 309 0 l 1,24,-1
 76 0 l 1,25,-1
 287 1222 l 1,26,-1
 126 1222 l 1,27,-1
 156 1392 l 1,28,-1
 317 1392 l 1,29,-1
 342 1536 l 1,30,-1
 576 1536 l 1,31,-1
 549 1392 l 1,32,-1
 805 1392 l 1,33,-1
 774 1222 l 1,0,-1
EndSplineSet
EndChar
StartChar: Iogonek
Encoding: 302 302 587
Width: 1202
Flags: W
LayerCount: 2
Back
Fore
SplineSet
324 1456 m 1,0,-1
 1165 1456 l 1,1,-1
 1130 1257 l 1,2,-1
 825 1257 l 1,3,-1
 641 198 l 1,4,-1
 947 198 l 1,5,-1
 912 0 l 1,6,-1
 786 0 l 1,7,-1
 792 -3 l 1,8,9
 761 -18 761 -18 729.5 -37 c 128,-1,10
 698 -56 698 -56 672 -80.5 c 128,-1,11
 646 -105 646 -105 628 -136 c 128,-1,12
 610 -167 610 -167 606 -204 c 0,13,14
 602 -233 602 -233 614 -249.5 c 128,-1,15
 626 -266 626 -266 657 -267 c 0,16,17
 680 -268 680 -268 702.5 -260.5 c 128,-1,18
 725 -253 725 -253 747 -245 c 1,19,-1
 775 -388 l 1,20,21
 735 -410 735 -410 690.5 -420 c 128,-1,22
 646 -430 646 -430 601 -429 c 0,23,24
 558 -429 558 -429 523 -415 c 128,-1,25
 488 -401 488 -401 463 -376 c 128,-1,26
 438 -351 438 -351 425 -316 c 128,-1,27
 412 -281 412 -281 414 -238 c 0,28,29
 415 -200 415 -200 427.5 -166 c 128,-1,30
 440 -132 440 -132 460.5 -102 c 128,-1,31
 481 -72 481 -72 508.5 -46.5 c 128,-1,32
 536 -21 536 -21 566 0 c 1,33,-1
 71 0 l 1,34,-1
 106 198 l 1,35,-1
 404 198 l 1,36,-1
 588 1257 l 1,37,-1
 289 1257 l 1,38,-1
 324 1456 l 1,0,-1
EndSplineSet
Substitution2: "'smcp' Lowercase to Small Capitals lookup 0 subtable" Iogonek.smcp
EndChar
StartChar: iogonek
Encoding: 303 303 588
Width: 1202
Flags: W
LayerCount: 2
Back
Fore
SplineSet
284 1082 m 1,0,-1
 845 1082 l 1,1,-1
 692 198 l 1,2,-1
 1004 198 l 1,3,-1
 969 0 l 1,4,-1
 632 0 l 1,5,-1
 638 -3 l 1,6,7
 607 -18 607 -18 575.5 -37 c 128,-1,8
 544 -56 544 -56 518 -80.5 c 128,-1,9
 492 -105 492 -105 474 -136 c 128,-1,10
 456 -167 456 -167 452 -204 c 0,11,12
 448 -233 448 -233 460 -249.5 c 128,-1,13
 472 -266 472 -266 503 -267 c 0,14,15
 526 -268 526 -268 548.5 -260.5 c 128,-1,16
 571 -253 571 -253 593 -245 c 1,17,-1
 621 -388 l 1,18,19
 581 -410 581 -410 536.5 -420 c 128,-1,20
 492 -430 492 -430 447 -429 c 0,21,22
 404 -429 404 -429 369 -415 c 128,-1,23
 334 -401 334 -401 309 -376 c 128,-1,24
 284 -351 284 -351 271 -316 c 128,-1,25
 258 -281 258 -281 260 -238 c 0,26,27
 261 -200 261 -200 273.5 -166 c 128,-1,28
 286 -132 286 -132 306.5 -102 c 128,-1,29
 327 -72 327 -72 354.5 -46.5 c 128,-1,30
 382 -21 382 -21 412 0 c 1,31,-1
 96 0 l 1,32,-1
 131 198 l 1,33,-1
 456 198 l 1,34,-1
 575 883 l 1,35,-1
 249 883 l 1,36,-1
 284 1082 l 1,0,-1
639 1358 m 256,37,38
 639 1387 639 1387 649 1411 c 128,-1,39
 659 1435 659 1435 677 1453 c 128,-1,40
 695 1471 695 1471 719.5 1481 c 128,-1,41
 744 1491 744 1491 773 1492 c 0,42,43
 801 1493 801 1493 825.5 1484 c 128,-1,44
 850 1475 850 1475 868.5 1458.5 c 128,-1,45
 887 1442 887 1442 897.5 1418.5 c 128,-1,46
 908 1395 908 1395 908 1366 c 256,47,48
 908 1337 908 1337 897 1312.5 c 128,-1,49
 886 1288 886 1288 868 1270 c 128,-1,50
 850 1252 850 1252 825 1242 c 128,-1,51
 800 1232 800 1232 772 1232 c 0,52,53
 744 1231 744 1231 719.5 1240 c 128,-1,54
 695 1249 695 1249 677 1265.5 c 128,-1,55
 659 1282 659 1282 649 1305.5 c 128,-1,56
 639 1329 639 1329 639 1358 c 256,37,38
EndSplineSet
Substitution2: "'smcp' Lowercase to Small Capitals lookup 0 subtable" Iogonek.smcp
EndChar
StartChar: dotlessi
Encoding: 305 305 138
Width: 1202
Flags: W
LayerCount: 2
Back
Fore
SplineSet
276 1082 m 1,0,-1
 845 1082 l 1,1,-1
 692 198 l 1,2,-1
 1012 198 l 1,3,-1
 977 0 l 1,4,-1
 88 0 l 1,5,-1
 123 198 l 1,6,-1
 456 198 l 1,7,-1
 575 883 l 1,8,-1
 241 883 l 1,9,-1
 276 1082 l 1,0,-1
EndSplineSet
EndChar
StartChar: IJ
Encoding: 306 306 139
Width: 1202
Flags: W
LayerCount: 2
Back
Fore
SplineSet
213 0 m 1,0,-1
 18 0 l 1,1,-1
 270 1456 l 1,2,-1
 466 1456 l 1,3,-1
 213 0 l 1,0,-1
1023 1456 m 1,4,-1
 1218 1456 l 1,5,-1
 1026 322 l 2,6,7
 1015 243 1015 243 985.5 179.5 c 128,-1,8
 956 116 956 116 909 71 c 128,-1,9
 862 26 862 26 796.5 2.5 c 128,-1,10
 731 -21 731 -21 649 -19 c 0,11,12
 573 -18 573 -18 518 9 c 128,-1,13
 463 36 463 36 428 81.5 c 128,-1,14
 393 127 393 127 377.5 188.5 c 128,-1,15
 362 250 362 250 365 322 c 1,16,-1
 562 321 l 1,17,18
 560 291 560 291 561.5 260 c 128,-1,19
 563 229 563 229 573.5 202.5 c 128,-1,20
 584 176 584 176 605 159 c 128,-1,21
 626 142 626 142 664 141 c 0,22,23
 706 139 706 139 735.5 153.5 c 128,-1,24
 765 168 765 168 784.5 193 c 128,-1,25
 804 218 804 218 815 251.5 c 128,-1,26
 826 285 826 285 831 321 c 2,27,-1
 1023 1456 l 1,4,-1
EndSplineSet
EndChar
StartChar: ij
Encoding: 307 307 140
Width: 1202
Flags: W
LayerCount: 2
Back
Fore
SplineSet
751 1082 m 1,0,-1
 1156 1082 l 1,1,-1
 970 -6 l 2,2,3
 956 -104 956 -104 918 -183.5 c 128,-1,4
 880 -263 880 -263 819.5 -319 c 128,-1,5
 759 -375 759 -375 677.5 -405.5 c 128,-1,6
 596 -436 596 -436 494 -436 c 0,7,8
 441 -436 441 -436 389 -431.5 c 128,-1,9
 337 -427 337 -427 284 -419 c 1,10,-1
 312 -250 l 1,11,12
 356 -258 356 -258 400 -261 c 128,-1,13
 444 -264 444 -264 489 -265 c 0,14,15
 551 -266 551 -266 600 -248 c 128,-1,16
 649 -230 649 -230 685 -196.5 c 128,-1,17
 721 -163 721 -163 743.5 -115 c 128,-1,18
 766 -67 766 -67 775 -7 c 2,19,-1
 931 912 l 1,20,-1
 721 912 l 1,21,-1
 751 1082 l 1,0,-1
162 1082 m 1,22,-1
 579 1082 l 1,23,-1
 421 170 l 1,24,-1
 640 170 l 1,25,-1
 610 0 l 1,26,-1
 -32 0 l 1,27,-1
 -2 170 l 1,28,-1
 226 170 l 1,29,-1
 354 912 l 1,30,-1
 132 912 l 1,31,-1
 162 1082 l 1,22,-1
420 1357 m 0,32,33
 420 1406 420 1406 451 1438 c 128,-1,34
 482 1470 482 1470 531 1472 c 0,35,36
 556 1473 556 1473 577 1465 c 128,-1,37
 598 1457 598 1457 613 1443 c 128,-1,38
 628 1429 628 1429 636.5 1408.5 c 128,-1,39
 645 1388 645 1388 645 1363 c 0,40,41
 644 1314 644 1314 612.5 1283 c 128,-1,42
 581 1252 581 1252 532 1250 c 0,43,44
 508 1249 508 1249 487.5 1256.5 c 128,-1,45
 467 1264 467 1264 452 1278.5 c 128,-1,46
 437 1293 437 1293 428.5 1313 c 128,-1,47
 420 1333 420 1333 420 1357 c 0,32,33
985 1358 m 0,48,49
 986 1407 986 1407 1017 1439 c 128,-1,50
 1048 1471 1048 1471 1097 1473 c 0,51,52
 1121 1474 1121 1474 1142 1466 c 128,-1,53
 1163 1458 1163 1458 1178 1444 c 128,-1,54
 1193 1430 1193 1430 1201.5 1409.5 c 128,-1,55
 1210 1389 1210 1389 1210 1364 c 0,56,57
 1210 1315 1210 1315 1178 1284 c 128,-1,58
 1146 1253 1146 1253 1098 1251 c 0,59,60
 1074 1250 1074 1250 1053 1257.5 c 128,-1,61
 1032 1265 1032 1265 1017 1279.5 c 128,-1,62
 1002 1294 1002 1294 993.5 1314 c 128,-1,63
 985 1334 985 1334 985 1358 c 0,48,49
EndSplineSet
EndChar
StartChar: kgreenlandic
Encoding: 312 312 141
Width: 1202
Flags: W
LayerCount: 2
Back
Fore
SplineSet
530 448 m 1,0,-1
 346 307 l 1,1,-1
 293 0 l 1,2,-1
 59 0 l 1,3,-1
 247 1082 l 1,4,-1
 481 1082 l 1,5,-1
 396 598 l 1,6,-1
 510 708 l 1,7,-1
 903 1082 l 1,8,-1
 1206 1082 l 1,9,-1
 709 609 l 1,10,-1
 1028 0 l 1,11,-1
 747 0 l 1,12,-1
 530 448 l 1,0,-1
EndSplineSet
EndChar
StartChar: Lslash
Encoding: 321 321 142
Width: 1202
Flags: W
LayerCount: 2
Back
Fore
SplineSet
461 872 m 1,0,-1
 711 946 l 1,1,-1
 678 755 l 1,2,-1
 428 681 l 1,3,-1
 344 196 l 1,4,-1
 1018 196 l 1,5,-1
 984 0 l 1,6,-1
 76 0 l 1,7,-1
 181 608 l 1,8,-1
 46 568 l 1,9,-1
 80 759 l 1,10,-1
 214 799 l 1,11,-1
 329 1456 l 1,12,-1
 563 1456 l 1,13,-1
 461 872 l 1,0,-1
EndSplineSet
EndChar
StartChar: lslash
Encoding: 322 322 143
Width: 1202
Flags: W
LayerCount: 2
Back
Fore
SplineSet
362 1536 m 1,0,-1
 931 1536 l 1,1,-1
 839 1009 l 1,2,-1
 1132 1137 l 1,3,-1
 1098 943 l 1,4,-1
 806 815 l 1,5,-1
 699 198 l 1,6,-1
 1019 198 l 1,7,-1
 984 0 l 1,8,-1
 95 0 l 1,9,-1
 130 198 l 1,10,-1
 463 198 l 1,11,-1
 551 704 l 1,12,-1
 213 557 l 1,13,-1
 247 750 l 1,14,-1
 584 897 l 1,15,-1
 661 1337 l 1,16,-1
 327 1337 l 1,17,-1
 362 1536 l 1,0,-1
EndSplineSet
EndChar
StartChar: Eng
Encoding: 330 330 144
Width: 1202
Flags: W
LayerCount: 2
Back
Fore
SplineSet
1192 1456 m 1,0,-1
 933 -63 l 2,1,2
 922 -146 922 -146 891 -215 c 128,-1,3
 860 -284 860 -284 810.5 -333.5 c 128,-1,4
 761 -383 761 -383 692 -410.5 c 128,-1,5
 623 -438 623 -438 536 -438 c 0,6,7
 503 -438 503 -438 471 -433 c 128,-1,8
 439 -428 439 -428 407 -420 c 1,9,-1
 442 -232 l 1,10,11
 465 -238 465 -238 489.5 -242.5 c 128,-1,12
 514 -247 514 -247 539 -247 c 0,13,14
 577 -247 577 -247 604.5 -230.5 c 128,-1,15
 632 -214 632 -214 650.5 -187.5 c 128,-1,16
 669 -161 669 -161 680.5 -128.5 c 128,-1,17
 692 -96 692 -96 698 -64 c 2,18,-1
 709 0 l 1,19,-1
 455 971 l 1,20,-1
 286 0 l 1,21,-1
 52 0 l 1,22,-1
 304 1456 l 1,23,-1
 533 1456 l 1,24,-1
 789 487 l 1,25,-1
 957 1456 l 1,26,-1
 1192 1456 l 1,0,-1
EndSplineSet
EndChar
StartChar: eng
Encoding: 331 331 145
Width: 1202
Flags: W
LayerCount: 2
Back
Fore
SplineSet
455 1083 m 1,0,-1
 433 931 l 1,1,2
 494 1009 494 1009 573.5 1056.5 c 128,-1,3
 653 1104 653 1104 756 1102 c 0,4,5
 848 1100 848 1100 908 1063.5 c 128,-1,6
 968 1027 968 1027 1001 967.5 c 128,-1,7
 1034 908 1034 908 1043.5 831.5 c 128,-1,8
 1053 755 1053 755 1044 674 c 1,9,-1
 924 -64 l 2,10,11
 913 -146 913 -146 883 -215 c 128,-1,12
 853 -284 853 -284 804 -334.5 c 128,-1,13
 755 -385 755 -385 687 -412.5 c 128,-1,14
 619 -440 619 -440 532 -440 c 0,15,16
 499 -440 499 -440 467 -435 c 128,-1,17
 435 -430 435 -430 403 -422 c 1,18,-1
 435 -226 l 1,19,20
 458 -232 458 -232 482.5 -236.5 c 128,-1,21
 507 -241 507 -241 532 -241 c 0,22,23
 570 -241 570 -241 597 -225.5 c 128,-1,24
 624 -210 624 -210 643 -185 c 128,-1,25
 662 -160 662 -160 673 -128.5 c 128,-1,26
 684 -97 684 -97 689 -64 c 2,27,-1
 809 673 l 2,28,29
 814 719 814 719 811.5 760.5 c 128,-1,30
 809 802 809 802 793.5 834 c 128,-1,31
 778 866 778 866 746 885.5 c 128,-1,32
 714 905 714 905 661 906 c 0,33,34
 591 908 591 908 533.5 880 c 128,-1,35
 476 852 476 852 428 801 c 1,36,-1
 288 0 l 1,37,-1
 54 0 l 1,38,-1
 242 1082 l 1,39,-1
 455 1083 l 1,0,-1
EndSplineSet
EndChar
StartChar: OE
Encoding: 338 338 146
Width: 1202
Flags: W
LayerCount: 2
Back
Fore
SplineSet
1051 0 m 1,0,-1
 655 0 l 1,1,2
 589 -5 589 -5 524 -13 c 128,-1,3
 459 -21 459 -21 392 -20 c 0,4,5
 320 -18 320 -18 265 3.5 c 128,-1,6
 210 25 210 25 170.5 61.5 c 128,-1,7
 131 98 131 98 105.5 147.5 c 128,-1,8
 80 197 80 197 67 253.5 c 128,-1,9
 54 310 54 310 52 372 c 128,-1,10
 50 434 50 434 58 496 c 2,11,-1
 132 960 l 2,12,13
 147 1062 147 1062 182.5 1156 c 128,-1,14
 218 1250 218 1250 277.5 1322 c 128,-1,15
 337 1394 337 1394 422.5 1436.5 c 128,-1,16
 508 1479 508 1479 622 1478 c 0,17,18
 688 1478 688 1478 752 1469.5 c 128,-1,19
 816 1461 816 1461 882 1456 c 1,20,-1
 1293 1456 l 1,21,-1
 1260 1267 l 1,22,-1
 904 1267 l 1,23,-1
 832 849 l 1,24,-1
 1139 849 l 1,25,-1
 1105 660 l 1,26,-1
 799 660 l 1,27,-1
 718 196 l 1,28,-1
 1086 196 l 1,29,-1
 1051 0 l 1,0,-1
407 177 m 0,30,31
 429 176 429 176 451 176.5 c 128,-1,32
 473 177 473 177 496 177 c 1,33,-1
 695 1286 l 1,34,35
 673 1288 673 1288 651.5 1289.5 c 128,-1,36
 630 1291 630 1291 607 1291 c 0,37,38
 536 1292 536 1292 489.5 1263.5 c 128,-1,39
 443 1235 443 1235 414 1188 c 128,-1,40
 385 1141 385 1141 369.5 1082 c 128,-1,41
 354 1023 354 1023 346 963 c 2,42,-1
 275 495 l 2,43,44
 271 464 271 464 268 429 c 128,-1,45
 265 394 265 394 265.5 359.5 c 128,-1,46
 266 325 266 325 272.5 293 c 128,-1,47
 279 261 279 261 295 236 c 128,-1,48
 311 211 311 211 338 195 c 128,-1,49
 365 179 365 179 407 177 c 0,30,31
EndSplineSet
EndChar
StartChar: oe
Encoding: 339 339 147
Width: 1202
Flags: W
LayerCount: 2
Back
Fore
SplineSet
47 639 m 2,0,1
 59 724 59 724 87.5 808 c 128,-1,2
 116 892 116 892 164.5 958.5 c 128,-1,3
 213 1025 213 1025 285 1065 c 128,-1,4
 357 1105 357 1105 456 1103 c 0,5,6
 521 1101 521 1101 578.5 1077.5 c 128,-1,7
 636 1054 636 1054 675 1001 c 1,8,9
 723 1047 723 1047 779 1075 c 128,-1,10
 835 1103 835 1103 903 1102 c 0,11,12
 989 1100 989 1100 1044 1060 c 128,-1,13
 1099 1020 1099 1020 1129 958 c 128,-1,14
 1159 896 1159 896 1166.5 821 c 128,-1,15
 1174 746 1174 746 1166 674 c 2,16,-1
 1134 472 l 1,17,-1
 720 472 l 1,18,-1
 712 424 l 2,19,20
 709 402 709 402 706.5 375 c 128,-1,21
 704 348 704 348 704.5 320.5 c 128,-1,22
 705 293 705 293 710.5 267 c 128,-1,23
 716 241 716 241 728.5 220.5 c 128,-1,24
 741 200 741 200 761.5 187 c 128,-1,25
 782 174 782 174 814 173 c 0,26,27
 860 172 860 172 900.5 186.5 c 128,-1,28
 941 201 941 201 980 224 c 1,29,-1
 1023 66 l 1,30,31
 975 20 975 20 913.5 0 c 128,-1,32
 852 -20 852 -20 786 -20 c 0,33,34
 717 -19 717 -19 654 5 c 128,-1,35
 591 29 591 29 547 84 c 1,36,37
 494 34 494 34 433 6 c 128,-1,38
 372 -22 372 -22 298 -20 c 0,39,40
 205 -18 205 -18 146 25 c 128,-1,41
 87 68 87 68 55.5 134.5 c 128,-1,42
 24 201 24 201 16.5 282 c 128,-1,43
 9 363 9 363 18 440 c 2,44,-1
 47 639 l 2,0,1
246 438 m 2,45,46
 244 420 244 420 241 393.5 c 128,-1,47
 238 367 238 367 237 337.5 c 128,-1,48
 236 308 236 308 239 278 c 128,-1,49
 242 248 242 248 251.5 224 c 128,-1,50
 261 200 261 200 278.5 184.5 c 128,-1,51
 296 169 296 169 325 168 c 0,52,53
 373 166 373 166 402 195.5 c 128,-1,54
 431 225 431 225 448.5 268 c 128,-1,55
 466 311 466 311 473.5 358.5 c 128,-1,56
 481 406 481 406 485 439 c 2,57,-1
 510 642 l 2,58,59
 512 660 512 660 514.5 686.5 c 128,-1,60
 517 713 517 713 518 742.5 c 128,-1,61
 519 772 519 772 516 802 c 128,-1,62
 513 832 513 832 503.5 855.5 c 128,-1,63
 494 879 494 879 476 894.5 c 128,-1,64
 458 910 458 910 429 911 c 0,65,66
 397 912 397 912 374 899 c 128,-1,67
 351 886 351 886 334 863 c 128,-1,68
 317 840 317 840 306 811 c 128,-1,69
 295 782 295 782 288 752 c 128,-1,70
 281 722 281 722 277 693 c 128,-1,71
 273 664 273 664 270 642 c 2,72,-1
 246 438 l 2,45,46
878 911 m 0,73,74
 850 912 850 912 829 898.5 c 128,-1,75
 808 885 808 885 793.5 862 c 128,-1,76
 779 839 779 839 769 810 c 128,-1,77
 759 781 759 781 752.5 751.5 c 128,-1,78
 746 722 746 722 742 695 c 128,-1,79
 738 668 738 668 735 649 c 1,80,-1
 940 649 l 1,81,-1
 952 735 l 2,82,83
 954 757 954 757 955 787 c 128,-1,84
 956 817 956 817 949.5 844 c 128,-1,85
 943 871 943 871 926.5 890 c 128,-1,86
 910 909 910 909 878 911 c 0,73,74
EndSplineSet
EndChar
StartChar: Tbar
Encoding: 358 358 488
Width: 1202
Flags: W
LayerCount: 2
Back
Fore
SplineSet
945 788 m 1,0,-1
 744 788 l 1,1,-1
 608 0 l 1,2,-1
 375 0 l 1,3,-1
 511 788 l 1,4,-1
 297 788 l 1,5,-1
 327 958 l 1,6,-1
 541 958 l 1,7,-1
 593 1258 l 1,8,-1
 162 1258 l 1,9,-1
 197 1456 l 1,10,-1
 1294 1456 l 1,11,-1
 1259 1258 l 1,12,-1
 826 1258 l 1,13,-1
 774 958 l 1,14,-1
 976 958 l 1,15,-1
 945 788 l 1,0,-1
EndSplineSet
Substitution2: "'smcp' Lowercase to Small Capitals lookup 0 subtable" Tbar.smcp
EndChar
StartChar: tbar
Encoding: 359 359 489
Width: 1202
Flags: W
LayerCount: 2
Back
Fore
SplineSet
826 568 m 1,0,-1
 613 568 l 1,1,-1
 583 384 l 2,2,3
 578 341 578 341 582 304.5 c 128,-1,4
 586 268 586 268 602 240.5 c 128,-1,5
 618 213 618 213 647.5 196.5 c 128,-1,6
 677 180 677 180 724 179 c 0,7,8
 782 177 782 177 839 187 c 128,-1,9
 896 197 896 197 953 209 c 1,10,-1
 963 42 l 1,11,12
 929 22 929 22 890 10 c 128,-1,13
 851 -2 851 -2 810 -9 c 128,-1,14
 769 -16 769 -16 728 -18.5 c 128,-1,15
 687 -21 687 -21 648 -20 c 0,16,17
 562 -19 562 -19 501 12.5 c 128,-1,18
 440 44 440 44 403.5 97 c 128,-1,19
 367 150 367 150 353.5 220.5 c 128,-1,20
 340 291 340 291 348 372 c 1,21,-1
 380 568 l 1,22,-1
 178 568 l 1,23,-1
 208 738 l 1,24,-1
 408 738 l 1,25,-1
 435 904 l 1,26,-1
 179 904 l 1,27,-1
 210 1082 l 1,28,-1
 466 1082 l 1,29,-1
 512 1344 l 1,30,-1
 745 1344 l 1,31,-1
 699 1082 l 1,32,-1
 1097 1082 l 1,33,-1
 1065 904 l 1,34,-1
 669 904 l 1,35,-1
 641 738 l 1,36,-1
 857 738 l 1,37,-1
 826 568 l 1,0,-1
EndSplineSet
Substitution2: "'smcp' Lowercase to Small Capitals lookup 0 subtable" Tbar.smcp
EndChar
StartChar: Uogonek
Encoding: 370 370 648
Width: 1202
Flags: W
LayerCount: 2
Back
Fore
SplineSet
1213 1456 m 1,0,-1
 1048 483 l 2,1,2
 1036 400 1036 400 1005.5 325.5 c 128,-1,3
 975 251 975 251 929.5 189 c 128,-1,4
 884 127 884 127 823 81 c 128,-1,5
 762 35 762 35 688 9 c 1,6,7
 647 -19 647 -19 617 -57.5 c 128,-1,8
 587 -96 587 -96 582 -147 c 0,9,10
 578 -176 578 -176 590 -192.5 c 128,-1,11
 602 -209 602 -209 633 -210 c 0,12,13
 656 -211 656 -211 678.5 -203.5 c 128,-1,14
 701 -196 701 -196 723 -188 c 1,15,-1
 751 -331 l 1,16,17
 711 -353 711 -353 666.5 -363 c 128,-1,18
 622 -373 622 -373 577 -372 c 0,19,20
 534 -372 534 -372 499 -358 c 128,-1,21
 464 -344 464 -344 439 -319 c 128,-1,22
 414 -294 414 -294 401 -259 c 128,-1,23
 388 -224 388 -224 390 -181 c 0,24,25
 392 -133 392 -133 410.5 -92.5 c 128,-1,26
 429 -52 429 -52 458 -17 c 1,27,28
 364 -7 364 -7 293.5 37 c 128,-1,29
 223 81 223 81 178.5 148 c 128,-1,30
 134 215 134 215 115.5 300.5 c 128,-1,31
 97 386 97 386 108 480 c 1,32,-1
 276 1456 l 1,33,-1
 506 1456 l 1,34,-1
 342 480 l 2,35,36
 336 430 336 430 340.5 377 c 128,-1,37
 345 324 345 324 364.5 280 c 128,-1,38
 384 236 384 236 422 207 c 128,-1,39
 460 178 460 178 521 176 c 0,40,41
 587 173 587 173 637.5 199 c 128,-1,42
 688 225 688 225 724 268.5 c 128,-1,43
 760 312 760 312 782.5 368 c 128,-1,44
 805 424 805 424 814 482 c 2,45,-1
 982 1456 l 1,46,-1
 1213 1456 l 1,0,-1
EndSplineSet
Substitution2: "'smcp' Lowercase to Small Capitals lookup 0 subtable" Uogonek.smcp
EndChar
StartChar: uogonek
Encoding: 371 371 649
Width: 1202
Flags: W
LayerCount: 2
Back
Fore
SplineSet
928 0 m 1,0,-1
 934 -3 l 1,1,2
 903 -18 903 -18 871.5 -37 c 128,-1,3
 840 -56 840 -56 814 -80.5 c 128,-1,4
 788 -105 788 -105 770 -136 c 128,-1,5
 752 -167 752 -167 748 -204 c 0,6,7
 744 -233 744 -233 756 -249.5 c 128,-1,8
 768 -266 768 -266 799 -267 c 0,9,10
 822 -268 822 -268 844.5 -260.5 c 128,-1,11
 867 -253 867 -253 889 -245 c 1,12,-1
 917 -388 l 1,13,14
 877 -410 877 -410 832.5 -420 c 128,-1,15
 788 -430 788 -430 743 -429 c 0,16,17
 700 -429 700 -429 665 -415 c 128,-1,18
 630 -401 630 -401 605 -376 c 128,-1,19
 580 -351 580 -351 567 -316 c 128,-1,20
 554 -281 554 -281 556 -238 c 0,21,22
 557 -195 557 -195 572 -158 c 128,-1,23
 587 -121 587 -121 612 -89 c 128,-1,24
 637 -57 637 -57 669 -30 c 128,-1,25
 701 -3 701 -3 736 19 c 1,26,-1
 754 148 l 1,27,28
 724 110 724 110 688.5 78.5 c 128,-1,29
 653 47 653 47 613 24.5 c 128,-1,30
 573 2 573 2 528 -10 c 128,-1,31
 483 -22 483 -22 433 -21 c 0,32,33
 335 -19 335 -19 272.5 22 c 128,-1,34
 210 63 210 63 176.5 128.5 c 128,-1,35
 143 194 143 194 134.5 276 c 128,-1,36
 126 358 126 358 135 442 c 1,37,-1
 241 1082 l 1,38,-1
 475 1082 l 1,39,-1
 368 439 l 2,40,41
 363 394 363 394 362 347.5 c 128,-1,42
 361 301 361 301 373 263.5 c 128,-1,43
 385 226 385 226 415 201.5 c 128,-1,44
 445 177 445 177 502 176 c 0,45,46
 587 173 587 173 651.5 208.5 c 128,-1,47
 716 244 716 244 763 313 c 1,48,-1
 897 1082 l 1,49,-1
 1131 1082 l 1,50,-1
 944 0 l 1,51,-1
 928 0 l 1,0,-1
EndSplineSet
Substitution2: "'smcp' Lowercase to Small Capitals lookup 0 subtable" Uogonek.smcp
EndChar
StartChar: longs
Encoding: 383 383 148
Width: 1202
Flags: W
LayerCount: 2
Back
Fore
SplineSet
312 0 m 1,0,-1
 502 1108 l 2,1,2
 517 1215 517 1215 559.5 1303 c 128,-1,3
 602 1391 602 1391 669 1453.5 c 128,-1,4
 736 1516 736 1516 826.5 1549.5 c 128,-1,5
 917 1583 917 1583 1028 1582 c 0,6,7
 1067 1581 1067 1581 1105.5 1574.5 c 128,-1,8
 1144 1568 1144 1568 1182 1560 c 1,9,-1
 1137 1378 l 1,10,11
 1095 1389 1095 1389 1049 1391 c 0,12,13
 983 1392 983 1392 929.5 1371.5 c 128,-1,14
 876 1351 876 1351 836.5 1313.5 c 128,-1,15
 797 1276 797 1276 771.5 1223.5 c 128,-1,16
 746 1171 746 1171 736 1109 c 2,17,-1
 546 0 l 1,18,-1
 312 0 l 1,0,-1
EndSplineSet
EndChar
StartChar: florin
Encoding: 402 402 149
Width: 1202
Flags: W
LayerCount: 2
Back
Fore
SplineSet
935 904 m 1,0,-1
 741 904 l 1,1,-1
 598 -31 l 2,2,3
 587 -120 587 -120 554.5 -195.5 c 128,-1,4
 522 -271 522 -271 468.5 -325 c 128,-1,5
 415 -379 415 -379 340.5 -409 c 128,-1,6
 266 -439 266 -439 172 -438 c 0,7,8
 81 -437 81 -437 -3 -399 c 1,9,-1
 31 -211 l 1,10,11
 61 -228 61 -228 98 -237.5 c 128,-1,12
 135 -247 135 -247 170 -248 c 0,13,14
 217 -248 217 -248 251 -229.5 c 128,-1,15
 285 -211 285 -211 308 -180.5 c 128,-1,16
 331 -150 331 -150 344.5 -111 c 128,-1,17
 358 -72 358 -72 364 -31 c 2,18,-1
 507 904 l 1,19,-1
 347 904 l 1,20,-1
 374 1082 l 1,21,-1
 534 1082 l 1,22,-1
 545 1169 l 2,23,24
 557 1268 557 1268 598 1345.5 c 128,-1,25
 639 1423 639 1423 703 1476.5 c 128,-1,26
 767 1530 767 1530 851.5 1557 c 128,-1,27
 936 1584 936 1584 1035 1582 c 0,28,29
 1083 1581 1083 1581 1129 1569 c 128,-1,30
 1175 1557 1175 1557 1221 1541 c 1,31,-1
 1182 1354 l 1,32,33
 1151 1371 1151 1371 1118.5 1378.5 c 128,-1,34
 1086 1386 1086 1386 1051 1387 c 0,35,36
 942 1389 942 1389 869.5 1333.5 c 128,-1,37
 797 1278 797 1278 780 1169 c 2,38,-1
 768 1082 l 1,39,-1
 963 1082 l 1,40,-1
 935 904 l 1,0,-1
EndSplineSet
EndChar
StartChar: Ohorn
Encoding: 416 416 150
Width: 1202
Flags: W
LayerCount: 2
Back
Fore
SplineSet
1112 635 m 2,0,1
 1099 556 1099 556 1074.5 476 c 128,-1,2
 1050 396 1050 396 1013 322.5 c 128,-1,3
 976 249 976 249 925.5 185.5 c 128,-1,4
 875 122 875 122 812 75.5 c 128,-1,5
 749 29 749 29 671.5 3.5 c 128,-1,6
 594 -22 594 -22 503 -20 c 0,7,8
 416 -18 416 -18 349.5 11 c 128,-1,9
 283 40 283 40 234.5 88.5 c 128,-1,10
 186 137 186 137 155 200.5 c 128,-1,11
 124 264 124 264 108 336 c 128,-1,12
 92 408 92 408 90 484.5 c 128,-1,13
 88 561 88 561 98 634 c 2,14,-1
 127 820 l 2,15,16
 139 898 139 898 163.5 978 c 128,-1,17
 188 1058 188 1058 224.5 1131.5 c 128,-1,18
 261 1205 261 1205 310 1269 c 128,-1,19
 359 1333 359 1333 422 1379.5 c 128,-1,20
 485 1426 485 1426 561 1452 c 128,-1,21
 637 1478 637 1478 728 1476 c 0,22,23
 840 1473 840 1473 919 1427.5 c 128,-1,24
 998 1382 998 1382 1049 1308 c 1,25,26
 1079 1319 1079 1319 1100 1341 c 128,-1,27
 1121 1363 1121 1363 1135 1391 c 128,-1,28
 1149 1419 1149 1419 1157 1451 c 128,-1,29
 1165 1483 1165 1483 1171 1516 c 1,30,-1
 1346 1518 l 1,31,32
 1335 1387 1335 1387 1278.5 1297.5 c 128,-1,33
 1222 1208 1222 1208 1114 1172 c 1,34,35
 1141 1089 1141 1089 1147 998.5 c 128,-1,36
 1153 908 1153 908 1141 820 c 2,37,-1
 1112 635 l 2,0,1
906 823 m 2,38,39
 911 863 911 863 914.5 911.5 c 128,-1,40
 918 960 918 960 914.5 1009.5 c 128,-1,41
 911 1059 911 1059 899.5 1105.5 c 128,-1,42
 888 1152 888 1152 864.5 1188.5 c 128,-1,43
 841 1225 841 1225 803.5 1248 c 128,-1,44
 766 1271 766 1271 710 1273 c 0,45,46
 651 1275 651 1275 604.5 1255.5 c 128,-1,47
 558 1236 558 1236 522 1201.5 c 128,-1,48
 486 1167 486 1167 459.5 1121 c 128,-1,49
 433 1075 433 1075 414 1024 c 128,-1,50
 395 973 395 973 382.5 921 c 128,-1,51
 370 869 370 869 362 822 c 2,52,-1
 333 633 l 2,53,54
 328 594 328 594 324 545.5 c 128,-1,55
 320 497 320 497 322.5 447.5 c 128,-1,56
 325 398 325 398 336 351 c 128,-1,57
 347 304 347 304 369.5 267 c 128,-1,58
 392 230 392 230 429 206.5 c 128,-1,59
 466 183 466 183 522 181 c 0,60,61
 581 179 581 179 628.5 198.5 c 128,-1,62
 676 218 676 218 712.5 252.5 c 128,-1,63
 749 287 749 287 776.5 333.5 c 128,-1,64
 804 380 804 380 824 431 c 128,-1,65
 844 482 844 482 856.5 534.5 c 128,-1,66
 869 587 869 587 877 634 c 2,67,-1
 906 823 l 2,38,39
EndSplineSet
EndChar
StartChar: ohorn
Encoding: 417 417 151
Width: 1202
Flags: W
LayerCount: 2
Back
Fore
SplineSet
95 544 m 2,0,1
 109 656 109 656 153.5 758.5 c 128,-1,2
 198 861 198 861 270.5 938 c 128,-1,3
 343 1015 343 1015 441.5 1060 c 128,-1,4
 540 1105 540 1105 661 1102 c 0,5,6
 756 1100 756 1100 828 1067.5 c 128,-1,7
 900 1035 900 1035 951 980 c 1,8,9
 980 993 980 993 1001 1014.5 c 128,-1,10
 1022 1036 1022 1036 1036.5 1063 c 128,-1,11
 1051 1090 1051 1090 1060.5 1121.5 c 128,-1,12
 1070 1153 1070 1153 1076 1186 c 1,13,-1
 1254 1187 l 1,14,15
 1242 1062 1242 1062 1185.5 977.5 c 128,-1,16
 1129 893 1129 893 1031 854 c 1,17,18
 1059 788 1059 788 1068.5 711.5 c 128,-1,19
 1078 635 1078 635 1070 554 c 2,20,-1
 1068 532 l 2,21,22
 1054 420 1054 420 1009 318.5 c 128,-1,23
 964 217 964 217 891.5 140.5 c 128,-1,24
 819 64 819 64 720.5 20 c 128,-1,25
 622 -24 622 -24 502 -21 c 0,26,27
 388 -18 388 -18 305.5 28 c 128,-1,28
 223 74 223 74 172 149 c 128,-1,29
 121 224 121 224 101.5 321 c 128,-1,30
 82 418 82 418 93 523 c 2,31,-1
 95 544 l 2,0,1
326 523 m 2,32,33
 322 486 322 486 321.5 446 c 128,-1,34
 321 406 321 406 327 367 c 128,-1,35
 333 328 333 328 346 293 c 128,-1,36
 359 258 359 258 382 231 c 128,-1,37
 405 204 405 204 438.5 187 c 128,-1,38
 472 170 472 170 519 169 c 0,39,40
 594 166 594 166 649.5 199 c 128,-1,41
 705 232 705 232 743 285 c 128,-1,42
 781 338 781 338 803.5 404 c 128,-1,43
 826 470 826 470 834 533 c 2,44,-1
 836 553 l 2,45,46
 842 608 842 608 839 670 c 128,-1,47
 836 732 836 732 816.5 784.5 c 128,-1,48
 797 837 797 837 755.5 872.5 c 128,-1,49
 714 908 714 908 644 910 c 0,50,51
 569 912 569 912 513 879 c 128,-1,52
 457 846 457 846 419 792.5 c 128,-1,53
 381 739 381 739 358.5 673 c 128,-1,54
 336 607 336 607 328 544 c 2,55,-1
 326 523 l 2,32,33
EndSplineSet
EndChar
StartChar: Uhorn
Encoding: 431 431 152
Width: 1202
Flags: W
LayerCount: 2
Back
Fore
SplineSet
1217 1456 m 1,0,-1
 1184 1266 l 1,1,2
 1232 1273 1232 1273 1264.5 1293 c 128,-1,3
 1297 1313 1297 1313 1318 1344 c 128,-1,4
 1339 1375 1339 1375 1351 1417 c 128,-1,5
 1363 1459 1363 1459 1371 1509 c 1,6,-1
 1552 1510 l 1,7,8
 1535 1319 1535 1319 1438.5 1222.5 c 128,-1,9
 1342 1126 1342 1126 1159 1115 c 1,10,-1
 1052 483 l 2,11,12
 1036 376 1036 376 991 283.5 c 128,-1,13
 946 191 946 191 875.5 122.5 c 128,-1,14
 805 54 805 54 711.5 16 c 128,-1,15
 618 -22 618 -22 505 -20 c 0,16,17
 400 -18 400 -18 321.5 23.5 c 128,-1,18
 243 65 243 65 193 133.5 c 128,-1,19
 143 202 143 202 122 291.5 c 128,-1,20
 101 381 101 381 112 480 c 1,21,-1
 280 1456 l 1,22,-1
 510 1456 l 1,23,-1
 346 480 l 2,24,25
 340 430 340 430 344.5 377 c 128,-1,26
 349 324 349 324 368.5 280 c 128,-1,27
 388 236 388 236 426 207 c 128,-1,28
 464 178 464 178 525 176 c 0,29,30
 591 173 591 173 641.5 199 c 128,-1,31
 692 225 692 225 728 268.5 c 128,-1,32
 764 312 764 312 786.5 368 c 128,-1,33
 809 424 809 424 818 482 c 2,34,-1
 986 1456 l 1,35,-1
 1217 1456 l 1,0,-1
EndSplineSet
EndChar
StartChar: uhorn
Encoding: 432 432 153
Width: 1202
Flags: W
LayerCount: 2
Back
Fore
SplineSet
738 148 m 1,0,1
 708 110 708 110 672.5 78.5 c 128,-1,2
 637 47 637 47 597 24.5 c 128,-1,3
 557 2 557 2 512 -10 c 128,-1,4
 467 -22 467 -22 417 -21 c 0,5,6
 319 -19 319 -19 256.5 22 c 128,-1,7
 194 63 194 63 160.5 128.5 c 128,-1,8
 127 194 127 194 118.5 276 c 128,-1,9
 110 358 110 358 119 442 c 1,10,-1
 225 1082 l 1,11,-1
 459 1082 l 1,12,-1
 352 439 l 2,13,14
 347 394 347 394 346 347.5 c 128,-1,15
 345 301 345 301 357 263.5 c 128,-1,16
 369 226 369 226 399 201.5 c 128,-1,17
 429 177 429 177 486 176 c 0,18,19
 571 173 571 173 635.5 208.5 c 128,-1,20
 700 244 700 244 747 313 c 1,21,-1
 881 1082 l 1,22,-1
 1115 1082 l 1,23,-1
 1090 941 l 1,24,25
 1155 967 1155 967 1188 1027 c 128,-1,26
 1221 1087 1221 1087 1235 1173 c 1,27,-1
 1415 1174 l 1,28,29
 1398 995 1398 995 1308.5 898.5 c 128,-1,30
 1219 802 1219 802 1062 779 c 1,31,-1
 928 0 l 1,32,-1
 718 0 l 1,33,-1
 738 148 l 1,0,1
EndSplineSet
EndChar
StartChar: uni0237
Encoding: 567 567 154
Width: 1202
Flags: W
LayerCount: 2
Back
Fore
SplineSet
359 1082 m 1,0,-1
 898 1082 l 1,1,-1
 710 -17 l 2,2,3
 696 -119 696 -119 656 -198 c 128,-1,4
 616 -277 616 -277 553 -330.5 c 128,-1,5
 490 -384 490 -384 405.5 -411.5 c 128,-1,6
 321 -439 321 -439 218 -438 c 0,7,8
 168 -438 168 -438 119.5 -433 c 128,-1,9
 71 -428 71 -428 22 -420 c 1,10,-1
 57 -226 l 1,11,12
 138 -241 138 -241 220 -241 c 0,13,14
 329 -243 329 -243 394 -183 c 128,-1,15
 459 -123 459 -123 476 -18 c 2,16,-1
 629 883 l 1,17,-1
 324 883 l 1,18,-1
 359 1082 l 1,0,-1
EndSplineSet
EndChar
StartChar: schwa
Encoding: 601 601 155
Width: 1202
Flags: W
LayerCount: 2
Back
Fore
SplineSet
662 1102 m 0,0,1
 776 1100 776 1100 861 1056.5 c 128,-1,2
 946 1013 946 1013 1000 940.5 c 128,-1,3
 1054 868 1054 868 1076.5 772 c 128,-1,4
 1099 676 1099 676 1089 569 c 2,5,-1
 1085 527 l 2,6,7
 1072 420 1072 420 1026.5 320 c 128,-1,8
 981 220 981 220 908.5 143.5 c 128,-1,9
 836 67 836 67 739.5 22.5 c 128,-1,10
 643 -22 643 -22 528 -19 c 0,11,12
 421 -16 421 -16 342.5 22 c 128,-1,13
 264 60 264 60 215 125.5 c 128,-1,14
 166 191 166 191 147 278.5 c 128,-1,15
 128 366 128 366 141 468 c 2,16,-1
 162 609 l 1,17,-1
 860 609 l 1,18,19
 864 666 864 666 854 719.5 c 128,-1,20
 844 773 844 773 817 814 c 128,-1,21
 790 855 790 855 746 881 c 128,-1,22
 702 907 702 907 638 909 c 0,23,24
 548 912 548 912 467.5 887 c 128,-1,25
 387 862 387 862 311 817 c 1,26,-1
 248 976 l 1,27,28
 290 1012 290 1012 339.5 1036.5 c 128,-1,29
 389 1061 389 1061 443 1076 c 128,-1,30
 497 1091 497 1091 553 1097 c 128,-1,31
 609 1103 609 1103 662 1102 c 0,0,1
544 171 m 0,32,33
 602 169 602 169 647.5 192.5 c 128,-1,34
 693 216 693 216 728.5 253.5 c 128,-1,35
 764 291 764 291 790.5 338.5 c 128,-1,36
 817 386 817 386 835 433 c 1,37,-1
 368 434 l 1,38,-1
 363 406 l 2,39,40
 355 357 355 357 363 314.5 c 128,-1,41
 371 272 371 272 394 240.5 c 128,-1,42
 417 209 417 209 454.5 190.5 c 128,-1,43
 492 172 492 172 544 171 c 0,32,33
EndSplineSet
EndChar
StartChar: circumflex
Encoding: 710 710 156
Width: 1202
Flags: W
LayerCount: 2
Back
Fore
SplineSet
925 1276 m 1,0,-1
 922 1247 l 1,1,-1
 740 1248 l 1,2,-1
 620 1384 l 1,3,-1
 451 1249 l 1,4,-1
 260 1248 l 1,5,-1
 263 1278 l 1,6,-1
 556 1517 l 1,7,-1
 690 1517 l 1,8,-1
 925 1276 l 1,0,-1
EndSplineSet
EndChar
StartChar: caron
Encoding: 711 711 157
Width: 1202
Flags: W
LayerCount: 2
Back
Fore
SplineSet
730 1382 m 1,0,-1
 895 1516 l 1,1,-1
 1101 1518 l 1,2,-1
 1100 1497 l 1,3,-1
 797 1248 l 1,4,-1
 653 1248 l 1,5,-1
 419 1496 l 1,6,-1
 420 1518 l 1,7,-1
 612 1517 l 1,8,-1
 730 1382 l 1,0,-1
EndSplineSet
EndChar
StartChar: breve
Encoding: 728 728 158
Width: 1202
Flags: W
LayerCount: 2
Back
Fore
SplineSet
1043 1450 m 1,0,1
 1038 1382 1038 1382 1010.5 1329.5 c 128,-1,2
 983 1277 983 1277 939 1240.5 c 128,-1,3
 895 1204 895 1204 836.5 1185.5 c 128,-1,4
 778 1167 778 1167 712 1168 c 0,5,6
 648 1169 648 1169 595 1189 c 128,-1,7
 542 1209 542 1209 503.5 1245.5 c 128,-1,8
 465 1282 465 1282 444.5 1333.5 c 128,-1,9
 424 1385 424 1385 425 1450 c 1,10,-1
 600 1449 l 1,11,12
 598 1389 598 1389 624 1349.5 c 128,-1,13
 650 1310 650 1310 716 1309 c 0,14,15
 749 1309 749 1309 775 1319 c 128,-1,16
 801 1329 801 1329 820 1347.5 c 128,-1,17
 839 1366 839 1366 851.5 1392 c 128,-1,18
 864 1418 864 1418 870 1448 c 1,19,-1
 1043 1450 l 1,0,1
EndSplineSet
EndChar
StartChar: dotaccent
Encoding: 729 729 159
Width: 1202
Flags: W
LayerCount: 2
Back
Fore
SplineSet
599 1355 m 256,0,1
 599 1383 599 1383 609 1407.5 c 128,-1,2
 619 1432 619 1432 636.5 1449.5 c 128,-1,3
 654 1467 654 1467 678 1477 c 128,-1,4
 702 1487 702 1487 731 1488 c 0,5,6
 759 1489 759 1489 783 1480 c 128,-1,7
 807 1471 807 1471 825 1454.5 c 128,-1,8
 843 1438 843 1438 852.5 1414.5 c 128,-1,9
 862 1391 862 1391 862 1363 c 0,10,11
 862 1305 862 1305 824.5 1268.5 c 128,-1,12
 787 1232 787 1232 730 1231 c 0,13,14
 702 1230 702 1230 678 1239 c 128,-1,15
 654 1248 654 1248 636.5 1264.5 c 128,-1,16
 619 1281 619 1281 609 1304 c 128,-1,17
 599 1327 599 1327 599 1355 c 256,0,1
EndSplineSet
EndChar
StartChar: ring
Encoding: 730 730 160
Width: 1202
Flags: W
LayerCount: 2
Back
Fore
SplineSet
508 1261 m 0,0,1
 509 1305 509 1305 527.5 1343 c 128,-1,2
 546 1381 546 1381 576 1409 c 128,-1,3
 606 1437 606 1437 645.5 1452.5 c 128,-1,4
 685 1468 685 1468 729 1468 c 0,5,6
 769 1468 769 1468 803.5 1453 c 128,-1,7
 838 1438 838 1438 863 1412.5 c 128,-1,8
 888 1387 888 1387 902 1352 c 128,-1,9
 916 1317 916 1317 915 1277 c 0,10,11
 914 1233 914 1233 896 1195.5 c 128,-1,12
 878 1158 878 1158 849 1130.5 c 128,-1,13
 820 1103 820 1103 781 1088 c 128,-1,14
 742 1073 742 1073 699 1073 c 0,15,16
 659 1073 659 1073 623.5 1087 c 128,-1,17
 588 1101 588 1101 562 1126 c 128,-1,18
 536 1151 536 1151 521 1185.5 c 128,-1,19
 506 1220 506 1220 508 1261 c 0,0,1
615 1264 m 0,20,21
 613 1245 613 1245 618 1227.5 c 128,-1,22
 623 1210 623 1210 634.5 1196.5 c 128,-1,23
 646 1183 646 1183 662 1175 c 128,-1,24
 678 1167 678 1167 698 1167 c 0,25,26
 720 1167 720 1167 739 1176 c 128,-1,27
 758 1185 758 1185 772.5 1200 c 128,-1,28
 787 1215 787 1215 796 1234 c 128,-1,29
 805 1253 805 1253 808 1274 c 0,30,31
 810 1293 810 1293 805.5 1310.5 c 128,-1,32
 801 1328 801 1328 791 1342 c 128,-1,33
 781 1356 781 1356 765.5 1364.5 c 128,-1,34
 750 1373 750 1373 729 1373 c 0,35,36
 707 1373 707 1373 687.5 1364 c 128,-1,37
 668 1355 668 1355 652.5 1340 c 128,-1,38
 637 1325 637 1325 627 1305 c 128,-1,39
 617 1285 617 1285 615 1264 c 0,20,21
EndSplineSet
EndChar
StartChar: ogonek
Encoding: 731 731 161
Width: 1202
Flags: W
LayerCount: 2
Back
Fore
SplineSet
627 -3 m 1,0,1
 596 -18 596 -18 564.5 -37 c 128,-1,2
 533 -56 533 -56 507 -80.5 c 128,-1,3
 481 -105 481 -105 463 -136 c 128,-1,4
 445 -167 445 -167 441 -204 c 0,5,6
 437 -233 437 -233 449 -249.5 c 128,-1,7
 461 -266 461 -266 492 -267 c 0,8,9
 515 -268 515 -268 537.5 -260.5 c 128,-1,10
 560 -253 560 -253 582 -245 c 1,11,-1
 610 -388 l 1,12,13
 570 -410 570 -410 525.5 -420 c 128,-1,14
 481 -430 481 -430 436 -429 c 0,15,16
 393 -429 393 -429 358 -415 c 128,-1,17
 323 -401 323 -401 298 -376 c 128,-1,18
 273 -351 273 -351 260 -316 c 128,-1,19
 247 -281 247 -281 249 -238 c 0,20,21
 250 -184 250 -184 274 -138.5 c 128,-1,22
 298 -93 298 -93 334.5 -56 c 128,-1,23
 371 -19 371 -19 416 10.5 c 128,-1,24
 461 40 461 40 505 61 c 1,25,-1
 627 -3 l 1,0,1
EndSplineSet
EndChar
StartChar: tilde
Encoding: 732 732 162
Width: 1202
Flags: W
LayerCount: 2
Back
Fore
SplineSet
955 1504 m 1,0,1
 951 1459 951 1459 934.5 1415.5 c 128,-1,2
 918 1372 918 1372 889.5 1338.5 c 128,-1,3
 861 1305 861 1305 821.5 1284.5 c 128,-1,4
 782 1264 782 1264 732 1264 c 0,5,6
 694 1264 694 1264 661.5 1279 c 128,-1,7
 629 1294 629 1294 598 1312 c 128,-1,8
 567 1330 567 1330 535 1344.5 c 128,-1,9
 503 1359 503 1359 466 1358 c 0,10,11
 443 1357 443 1357 425 1348 c 128,-1,12
 407 1339 407 1339 394 1324.5 c 128,-1,13
 381 1310 381 1310 372.5 1291 c 128,-1,14
 364 1272 364 1272 358 1252 c 1,15,-1
 235 1280 l 1,16,17
 240 1325 240 1325 257 1368.5 c 128,-1,18
 274 1412 274 1412 302.5 1446.5 c 128,-1,19
 331 1481 331 1481 371 1501.5 c 128,-1,20
 411 1522 411 1522 461 1522 c 0,21,22
 498 1522 498 1522 530.5 1507 c 128,-1,23
 563 1492 563 1492 594.5 1474 c 128,-1,24
 626 1456 626 1456 658.5 1441.5 c 128,-1,25
 691 1427 691 1427 728 1428 c 0,26,27
 751 1429 751 1429 769 1438 c 128,-1,28
 787 1447 787 1447 800.5 1461.5 c 128,-1,29
 814 1476 814 1476 823.5 1494.5 c 128,-1,30
 833 1513 833 1513 839 1533 c 1,31,-1
 955 1504 l 1,0,1
EndSplineSet
EndChar
StartChar: hungarumlaut
Encoding: 733 733 163
Width: 1202
Flags: W
LayerCount: 2
Back
Fore
SplineSet
892 1518 m 1,0,-1
 1160 1518 l 1,1,-1
 816 1252 l 1,2,-1
 607 1252 l 1,3,-1
 892 1518 l 1,0,-1
556 1518 m 1,4,-1
 807 1518 l 1,5,-1
 517 1252 l 1,6,-1
 322 1252 l 1,7,-1
 556 1518 l 1,4,-1
EndSplineSet
EndChar
StartChar: uni02F3
Encoding: 755 755 164
Width: 1202
Flags: W
LayerCount: 2
Back
Fore
SplineSet
274 -234 m 0,0,1
 275 -201 275 -201 288.5 -172 c 128,-1,2
 302 -143 302 -143 325 -121.5 c 128,-1,3
 348 -100 348 -100 378 -87.5 c 128,-1,4
 408 -75 408 -75 441 -75 c 0,5,6
 472 -75 472 -75 499 -86 c 128,-1,7
 526 -97 526 -97 546 -116.5 c 128,-1,8
 566 -136 566 -136 577 -163.5 c 128,-1,9
 588 -191 588 -191 587 -222 c 0,10,11
 586 -255 586 -255 573 -283 c 128,-1,12
 560 -311 560 -311 538.5 -332 c 128,-1,13
 517 -353 517 -353 488 -365 c 128,-1,14
 459 -377 459 -377 426 -377 c 0,15,16
 395 -377 395 -377 367 -367 c 128,-1,17
 339 -357 339 -357 318 -338 c 128,-1,18
 297 -319 297 -319 285 -292.5 c 128,-1,19
 273 -266 273 -266 274 -234 c 0,0,1
373 -231 m 1,20,21
 375 -253 375 -253 384.5 -270.5 c 128,-1,22
 394 -288 394 -288 421 -288 c 0,23,24
 446 -287 446 -287 465.5 -268 c 128,-1,25
 485 -249 485 -249 489 -225 c 0,26,27
 492 -204 492 -204 480.5 -184.5 c 128,-1,28
 469 -165 469 -165 445 -165 c 0,29,30
 430 -165 430 -165 418.5 -170.5 c 128,-1,31
 407 -176 407 -176 398.5 -185.5 c 128,-1,32
 390 -195 390 -195 384 -207 c 128,-1,33
 378 -219 378 -219 373 -231 c 1,20,21
EndSplineSet
EndChar
StartChar: gravecomb
Encoding: 768 768 165
Width: 1202
Flags: W
LayerCount: 2
Back
Fore
SplineSet
-379 1210 m 1,0,-1
 -516 1210 l 1,1,-1
 -648 1560 l 1,2,-1
 -457 1560 l 1,3,-1
 -379 1210 l 1,0,-1
EndSplineSet
EndChar
StartChar: acutecomb
Encoding: 769 769 166
Width: 1202
Flags: W
LayerCount: 2
Back
Fore
SplineSet
-343 1561 m 1,0,-1
 -134 1561 l 1,1,-1
 -386 1209 l 1,2,-1
 -537 1209 l 1,3,-1
 -343 1561 l 1,0,-1
EndSplineSet
EndChar
StartChar: hook
Encoding: 777 777 168
Width: 1202
Flags: W
LayerCount: 2
Back
Fore
SplineSet
-551 1253 m 1,0,-1
 -537 1400 l 1,1,2
 -518 1402 -518 1402 -493 1404.5 c 128,-1,3
 -468 1407 -468 1407 -445 1414 c 128,-1,4
 -422 1421 -422 1421 -405 1435 c 128,-1,5
 -388 1449 -388 1449 -385 1474 c 0,6,7
 -381 1499 -381 1499 -395.5 1512.5 c 128,-1,8
 -410 1526 -410 1526 -432 1532 c 128,-1,9
 -454 1538 -454 1538 -478 1539 c 128,-1,10
 -502 1540 -502 1540 -518 1540 c 1,11,-1
 -501 1662 l 1,12,13
 -458 1661 -458 1661 -404.5 1653.5 c 128,-1,14
 -351 1646 -351 1646 -304.5 1626 c 128,-1,15
 -258 1606 -258 1606 -227.5 1570 c 128,-1,16
 -197 1534 -197 1534 -199 1476 c 0,17,18
 -200 1440 -200 1440 -213.5 1413.5 c 128,-1,19
 -227 1387 -227 1387 -249.5 1368.5 c 128,-1,20
 -272 1350 -272 1350 -301 1339 c 128,-1,21
 -330 1328 -330 1328 -362 1322 c 1,22,-1
 -373 1252 l 1,23,-1
 -551 1253 l 1,0,-1
EndSplineSet
EndChar
StartChar: uni030F
Encoding: 783 783 169
Width: 1202
Flags: W
LayerCount: 2
Back
Fore
SplineSet
-368 1252 m 1,0,-1
 -584 1252 l 1,1,-1
 -829 1518 l 1,2,-1
 -559 1518 l 1,3,-1
 -368 1252 l 1,0,-1
-81 1252 m 1,4,-1
 -281 1252 l 1,5,-1
 -472 1518 l 1,6,-1
 -218 1518 l 1,7,-1
 -81 1252 l 1,4,-1
EndSplineSet
EndChar
StartChar: dotbelow
Encoding: 803 803 170
Width: 1202
Flags: W
LayerCount: 2
Back
Fore
SplineSet
-859 -234 m 0,0,1
 -859 -204 -859 -204 -848.5 -180 c 128,-1,2
 -838 -156 -838 -156 -819 -138.5 c 128,-1,3
 -800 -121 -800 -121 -775 -111 c 128,-1,4
 -750 -101 -750 -101 -721 -100 c 0,5,6
 -693 -99 -693 -99 -667.5 -108 c 128,-1,7
 -642 -117 -642 -117 -623.5 -133.5 c 128,-1,8
 -605 -150 -605 -150 -594.5 -173.5 c 128,-1,9
 -584 -197 -584 -197 -584 -226 c 0,10,11
 -584 -256 -584 -256 -595 -280 c 128,-1,12
 -606 -304 -606 -304 -624.5 -321.5 c 128,-1,13
 -643 -339 -643 -339 -668.5 -348.5 c 128,-1,14
 -694 -358 -694 -358 -722 -358 c 0,15,16
 -750 -359 -750 -359 -775 -350.5 c 128,-1,17
 -800 -342 -800 -342 -818.5 -326 c 128,-1,18
 -837 -310 -837 -310 -848 -286.5 c 128,-1,19
 -859 -263 -859 -263 -859 -234 c 0,0,1
EndSplineSet
EndChar
StartChar: tonos
Encoding: 900 900 171
Width: 1202
Flags: W
LayerCount: 2
Back
Fore
SplineSet
797 1665 m 1,0,-1
 1043 1665 l 1,1,-1
 782 1267 l 1,2,-1
 660 1267 l 1,3,-1
 797 1665 l 1,0,-1
EndSplineSet
EndChar
StartChar: dieresistonos
Encoding: 901 901 172
Width: 1202
Flags: W
LayerCount: 2
Back
Fore
SplineSet
817 1767 m 1,0,-1
 1064 1767 l 1,1,-1
 869 1472 l 1,2,-1
 720 1472 l 1,3,-1
 817 1767 l 1,0,-1
383 1350 m 0,4,5
 383 1378 383 1378 393 1401 c 128,-1,6
 403 1424 403 1424 420 1441.5 c 128,-1,7
 437 1459 437 1459 460.5 1468.5 c 128,-1,8
 484 1478 484 1478 511 1479 c 256,9,10
 538 1480 538 1480 561.5 1471 c 128,-1,11
 585 1462 585 1462 602 1446 c 128,-1,12
 619 1430 619 1430 629 1407.5 c 128,-1,13
 639 1385 639 1385 639 1358 c 256,14,15
 639 1331 639 1331 629 1308 c 128,-1,16
 619 1285 619 1285 602 1268 c 128,-1,17
 585 1251 585 1251 561.5 1241.5 c 128,-1,18
 538 1232 538 1232 511 1231 c 0,19,20
 485 1230 485 1230 461.5 1238.5 c 128,-1,21
 438 1247 438 1247 420.5 1262.5 c 128,-1,22
 403 1278 403 1278 393 1300.5 c 128,-1,23
 383 1323 383 1323 383 1350 c 0,4,5
900 1351 m 0,24,25
 900 1379 900 1379 910 1402 c 128,-1,26
 920 1425 920 1425 937 1442 c 128,-1,27
 954 1459 954 1459 978 1469 c 128,-1,28
 1002 1479 1002 1479 1029 1479 c 0,29,30
 1055 1480 1055 1480 1078 1471.5 c 128,-1,31
 1101 1463 1101 1463 1118.5 1447 c 128,-1,32
 1136 1431 1136 1431 1146 1408.5 c 128,-1,33
 1156 1386 1156 1386 1156 1359 c 256,34,35
 1156 1332 1156 1332 1146 1308.5 c 128,-1,36
 1136 1285 1136 1285 1119 1268 c 128,-1,37
 1102 1251 1102 1251 1078.5 1241.5 c 128,-1,38
 1055 1232 1055 1232 1028 1231 c 256,39,40
 1001 1230 1001 1230 978 1238.5 c 128,-1,41
 955 1247 955 1247 937.5 1263 c 128,-1,42
 920 1279 920 1279 910 1301.5 c 128,-1,43
 900 1324 900 1324 900 1351 c 0,24,25
EndSplineSet
EndChar
StartChar: Delta
Encoding: 916 916 175
AltUni2: 002206.ffffffff.0
Width: 1202
Flags: W
LayerCount: 2
Back
Fore
SplineSet
669 1456 m 1,0,-1
 891 1456 l 1,1,-1
 1099 0 l 1,2,-1
 -71 0 l 1,3,-1
 669 1456 l 1,0,-1
274 193 m 1,4,-1
 840 193 l 1,5,-1
 729 1128 l 1,6,-1
 274 193 l 1,4,-1
EndSplineSet
EndChar
StartChar: Theta
Encoding: 920 920 176
Width: 1202
Flags: W
LayerCount: 2
Back
Fore
SplineSet
813 635 m 1,0,-1
 400 635 l 1,1,-1
 434 827 l 1,2,-1
 847 827 l 1,3,-1
 813 635 l 1,0,-1
1116 635 m 2,4,5
 1103 556 1103 556 1078.5 476 c 128,-1,6
 1054 396 1054 396 1017 322.5 c 128,-1,7
 980 249 980 249 930 185.5 c 128,-1,8
 880 122 880 122 816.5 75.5 c 128,-1,9
 753 29 753 29 675.5 3.5 c 128,-1,10
 598 -22 598 -22 507 -20 c 0,11,12
 420 -18 420 -18 353.5 11 c 128,-1,13
 287 40 287 40 238.5 88.5 c 128,-1,14
 190 137 190 137 159 200.5 c 128,-1,15
 128 264 128 264 112 336 c 128,-1,16
 96 408 96 408 94 484.5 c 128,-1,17
 92 561 92 561 102 634 c 2,18,-1
 131 820 l 2,19,20
 143 898 143 898 167.5 978 c 128,-1,21
 192 1058 192 1058 228.5 1131.5 c 128,-1,22
 265 1205 265 1205 314 1269 c 128,-1,23
 363 1333 363 1333 426 1379.5 c 128,-1,24
 489 1426 489 1426 565 1452 c 128,-1,25
 641 1478 641 1478 732 1476 c 0,26,27
 820 1474 820 1474 887 1445 c 128,-1,28
 954 1416 954 1416 1003.5 1368 c 128,-1,29
 1053 1320 1053 1320 1085 1256 c 128,-1,30
 1117 1192 1117 1192 1133.5 1119.5 c 128,-1,31
 1150 1047 1150 1047 1152.5 970.5 c 128,-1,32
 1155 894 1155 894 1145 820 c 2,33,-1
 1116 635 l 2,4,5
910 823 m 2,34,35
 915 863 915 863 918.5 911.5 c 128,-1,36
 922 960 922 960 918.5 1009.5 c 128,-1,37
 915 1059 915 1059 903.5 1105.5 c 128,-1,38
 892 1152 892 1152 868.5 1188.5 c 128,-1,39
 845 1225 845 1225 807.5 1248 c 128,-1,40
 770 1271 770 1271 714 1273 c 0,41,42
 655 1275 655 1275 608.5 1255.5 c 128,-1,43
 562 1236 562 1236 526 1201.5 c 128,-1,44
 490 1167 490 1167 463.5 1121 c 128,-1,45
 437 1075 437 1075 418 1024 c 128,-1,46
 399 973 399 973 386.5 921 c 128,-1,47
 374 869 374 869 366 822 c 2,48,-1
 337 633 l 2,49,50
 331 594 331 594 327.5 545.5 c 128,-1,51
 324 497 324 497 326.5 447.5 c 128,-1,52
 329 398 329 398 340 351 c 128,-1,53
 351 304 351 304 373.5 267 c 128,-1,54
 396 230 396 230 433 206.5 c 128,-1,55
 470 183 470 183 526 181 c 0,56,57
 585 179 585 179 632.5 198.5 c 128,-1,58
 680 218 680 218 716.5 252.5 c 128,-1,59
 753 287 753 287 780.5 333.5 c 128,-1,60
 808 380 808 380 828 431 c 128,-1,61
 848 482 848 482 860.5 534.5 c 128,-1,62
 873 587 873 587 881 634 c 2,63,-1
 910 823 l 2,34,35
EndSplineSet
EndChar
StartChar: Lambda
Encoding: 923 923 177
Width: 1202
Flags: W
LayerCount: 2
Back
Fore
SplineSet
690 1115 m 1,0,-1
 176 0 l 1,1,-1
 -74 0 l 1,2,-1
 631 1456 l 1,3,-1
 854 1456 l 1,4,-1
 1053 0 l 1,5,-1
 818 0 l 1,6,-1
 690 1115 l 1,0,-1
EndSplineSet
EndChar
StartChar: Xi
Encoding: 926 926 178
Width: 1202
Flags: W
LayerCount: 2
Back
Fore
SplineSet
57 193 m 1,0,-1
 986 193 l 1,1,-1
 952 0 l 1,2,-1
 23 0 l 1,3,-1
 57 193 l 1,0,-1
262 843 m 1,4,-1
 1001 843 l 1,5,-1
 967 654 l 1,6,-1
 229 654 l 1,7,-1
 262 843 l 1,4,-1
286 1456 m 1,8,-1
 1183 1456 l 1,9,-1
 1148 1262 l 1,10,-1
 252 1262 l 1,11,-1
 286 1456 l 1,8,-1
EndSplineSet
EndChar
StartChar: Pi
Encoding: 928 928 179
Width: 1202
Flags: W
LayerCount: 2
Back
Fore
SplineSet
946 0 m 1,0,-1
 711 0 l 1,1,-1
 930 1262 l 1,2,-1
 485 1262 l 1,3,-1
 266 0 l 1,4,-1
 31 0 l 1,5,-1
 284 1456 l 1,6,-1
 1199 1456 l 1,7,-1
 946 0 l 1,0,-1
EndSplineSet
EndChar
StartChar: Sigma
Encoding: 931 931 180
Width: 1202
Flags: W
LayerCount: 2
Back
Fore
SplineSet
825 718 m 1,0,-1
 348 193 l 1,1,-1
 1037 193 l 1,2,-1
 1003 1 l 1,3,-1
 3 1 l 1,4,-1
 31 162 l 1,5,-1
 581 739 l 1,6,-1
 230 1314 l 1,7,-1
 256 1456 l 1,8,-1
 1218 1456 l 1,9,-1
 1183 1262 l 1,10,-1
 519 1262 l 1,11,-1
 827 739 l 1,12,-1
 825 718 l 1,0,-1
EndSplineSet
EndChar
StartChar: Phi
Encoding: 934 934 181
Width: 1202
Flags: W
LayerCount: 2
Back
Fore
SplineSet
845 1252 m 1,0,1
 942 1237 942 1237 1013 1188 c 128,-1,2
 1084 1139 1084 1139 1127.5 1068 c 128,-1,3
 1171 997 1171 997 1188.5 909.5 c 128,-1,4
 1206 822 1206 822 1197 730 c 0,5,6
 1186 621 1186 621 1143.5 527.5 c 128,-1,7
 1101 434 1101 434 1033 363.5 c 128,-1,8
 965 293 965 293 873 248.5 c 128,-1,9
 781 204 781 204 672 193 c 1,10,-1
 633 0 l 1,11,-1
 399 0 l 1,12,-1
 438 194 l 1,13,14
 340 209 340 209 269.5 257 c 128,-1,15
 199 305 199 305 155 375.5 c 128,-1,16
 111 446 111 446 93.5 533 c 128,-1,17
 76 620 76 620 85 712 c 0,18,19
 96 821 96 821 138 915.5 c 128,-1,20
 180 1010 180 1010 248.5 1082 c 128,-1,21
 317 1154 317 1154 409 1199 c 128,-1,22
 501 1244 501 1244 611 1254 c 1,23,-1
 652 1456 l 1,24,-1
 886 1456 l 1,25,-1
 845 1252 l 1,0,1
317 712 m 0,26,27
 311 663 311 663 312.5 612.5 c 128,-1,28
 314 562 314 562 329.5 518.5 c 128,-1,29
 345 475 345 475 376.5 442 c 128,-1,30
 408 409 408 409 462 394 c 1,31,-1
 587 1055 l 1,32,33
 524 1041 524 1041 476.5 1008.5 c 128,-1,34
 429 976 429 976 396 930.5 c 128,-1,35
 363 885 363 885 343.5 829 c 128,-1,36
 324 773 324 773 317 712 c 0,26,27
964 730 m 0,37,38
 970 779 970 779 968.5 829.5 c 128,-1,39
 967 880 967 880 952 924.5 c 128,-1,40
 937 969 937 969 906 1003 c 128,-1,41
 875 1037 875 1037 821 1052 c 1,42,-1
 696 391 l 1,43,44
 758 405 758 405 805 437 c 128,-1,45
 852 469 852 469 885 514 c 128,-1,46
 918 559 918 559 937 614.5 c 128,-1,47
 956 670 956 670 964 730 c 0,37,38
EndSplineSet
EndChar
StartChar: Psi
Encoding: 936 936 182
Width: 1202
Flags: W
LayerCount: 2
Back
Fore
SplineSet
723 525 m 1,0,1
 783 542 783 542 825.5 575 c 128,-1,2
 868 608 868 608 897.5 652.5 c 128,-1,3
 927 697 927 697 944.5 750.5 c 128,-1,4
 962 804 962 804 971 862 c 2,5,-1
 1072 1456 l 1,6,-1
 1307 1456 l 1,7,-1
 1206 862 l 2,8,9
 1190 754 1190 754 1150.5 663 c 128,-1,10
 1111 572 1111 572 1048 503 c 128,-1,11
 985 434 985 434 898 389.5 c 128,-1,12
 811 345 811 345 700 331 c 1,13,-1
 637 0 l 1,14,-1
 402 0 l 1,15,-1
 466 332 l 1,16,17
 364 348 364 348 294 397 c 128,-1,18
 224 446 224 446 183.5 517.5 c 128,-1,19
 143 589 143 589 129.5 677.5 c 128,-1,20
 116 766 116 766 128 862 c 1,21,-1
 229 1456 l 1,22,-1
 463 1456 l 1,23,-1
 363 861 l 2,24,25
 357 813 357 813 356 762 c 128,-1,26
 355 711 355 711 367.5 665.5 c 128,-1,27
 380 620 380 620 408.5 583.5 c 128,-1,28
 437 547 437 547 489 528 c 1,29,-1
 655 1456 l 1,30,-1
 890 1456 l 1,31,-1
 723 525 l 1,0,1
EndSplineSet
EndChar
StartChar: Omega
Encoding: 937 937 183
AltUni2: 002126.ffffffff.0
Width: 1202
Flags: W
LayerCount: 2
Back
Fore
SplineSet
590 237 m 1,0,1
 645 253 645 253 687 286 c 128,-1,2
 729 319 729 319 760.5 363.5 c 128,-1,3
 792 408 792 408 814.5 461 c 128,-1,4
 837 514 837 514 852.5 569.5 c 128,-1,5
 868 625 868 625 877.5 679.5 c 128,-1,6
 887 734 887 734 894 783 c 2,7,-1
 903 850 l 2,8,9
 907 888 907 888 910 934.5 c 128,-1,10
 913 981 913 981 910 1028 c 128,-1,11
 907 1075 907 1075 897 1120 c 128,-1,12
 887 1165 887 1165 864.5 1200 c 128,-1,13
 842 1235 842 1235 806 1257.5 c 128,-1,14
 770 1280 770 1280 717 1282 c 0,15,16
 659 1284 659 1284 613 1265.5 c 128,-1,17
 567 1247 567 1247 531 1214 c 128,-1,18
 495 1181 495 1181 468.5 1137 c 128,-1,19
 442 1093 442 1093 423.5 1043.5 c 128,-1,20
 405 994 405 994 393 943.5 c 128,-1,21
 381 893 381 893 375 847 c 2,22,-1
 367 782 l 2,23,24
 363 746 363 746 357 696.5 c 128,-1,25
 351 647 351 647 348 592 c 128,-1,26
 345 537 345 537 348 481 c 128,-1,27
 351 425 351 425 365 376.5 c 128,-1,28
 379 328 379 328 406.5 291 c 128,-1,29
 434 254 434 254 481 238 c 1,30,-1
 443 0 l 1,31,-1
 -8 0 l 1,32,-1
 27 194 l 1,33,-1
 280 197 l 1,34,35
 178 322 178 322 139 473 c 128,-1,36
 100 624 100 624 120 783 c 2,37,-1
 128 847 l 2,38,39
 144 965 144 965 191.5 1079 c 128,-1,40
 239 1193 239 1193 315.5 1282.5 c 128,-1,41
 392 1372 392 1372 497 1425.5 c 128,-1,42
 602 1479 602 1479 734 1476 c 0,43,44
 818 1474 818 1474 884.5 1447 c 128,-1,45
 951 1420 951 1420 1000.5 1374.5 c 128,-1,46
 1050 1329 1050 1329 1083 1268 c 128,-1,47
 1116 1207 1116 1207 1134.5 1138 c 128,-1,48
 1153 1069 1153 1069 1157 994.5 c 128,-1,49
 1161 920 1161 920 1152 847 c 2,50,-1
 1143 783 l 2,51,52
 1130 693 1130 693 1100 608 c 128,-1,53
 1070 523 1070 523 1024 446.5 c 128,-1,54
 978 370 978 370 916 305 c 128,-1,55
 854 240 854 240 777 191 c 1,56,-1
 1038 194 l 1,57,-1
 1003 0 l 1,58,-1
 552 0 l 1,59,-1
 590 237 l 1,0,1
EndSplineSet
EndChar
StartChar: alpha
Encoding: 945 945 184
Width: 1202
Flags: W
LayerCount: 2
Back
Fore
SplineSet
1074 1082 m 1,0,-1
 941 299 l 2,1,2
 939 284 939 284 938 264.5 c 128,-1,3
 937 245 937 245 940 228 c 128,-1,4
 943 211 943 211 953 198.5 c 128,-1,5
 963 186 963 186 984 185 c 0,6,7
 995 183 995 183 1006.5 184.5 c 128,-1,8
 1018 186 1018 186 1029 188 c 1,9,-1
 1035 9 l 1,10,11
 979 -20 979 -20 916 -19 c 0,12,13
 880 -19 880 -19 848.5 -11 c 128,-1,14
 817 -3 817 -3 790.5 13.5 c 128,-1,15
 764 30 764 30 745 55 c 128,-1,16
 726 80 726 80 716 116 c 1,17,18
 654 50 654 50 579.5 14 c 128,-1,19
 505 -22 505 -22 412 -20 c 0,20,21
 342 -19 342 -19 290 4.5 c 128,-1,22
 238 28 238 28 201 67.5 c 128,-1,23
 164 107 164 107 141 158.5 c 128,-1,24
 118 210 118 210 106.5 267.5 c 128,-1,25
 95 325 95 325 93.5 385 c 128,-1,26
 92 445 92 445 98 502 c 2,27,-1
 100 524 l 2,28,29
 108 588 108 588 125 656.5 c 128,-1,30
 142 725 142 725 169 790 c 128,-1,31
 196 855 196 855 234 912.5 c 128,-1,32
 272 970 272 970 322 1013 c 128,-1,33
 372 1056 372 1056 435 1080 c 128,-1,34
 498 1104 498 1104 575 1102 c 0,35,36
 657 1100 657 1100 725.5 1066 c 128,-1,37
 794 1032 794 1032 839 962 c 1,38,-1
 917 1082 l 1,39,-1
 1074 1082 l 1,0,-1
333 499 m 2,40,41
 328 452 328 452 327 396 c 128,-1,42
 326 340 326 340 340 290.5 c 128,-1,43
 354 241 354 241 388 207 c 128,-1,44
 422 173 422 173 485 171 c 0,45,46
 551 169 551 169 603.5 196.5 c 128,-1,47
 656 224 656 224 699 272 c 1,48,-1
 704 301 l 1,49,-1
 795 812 l 1,50,51
 766 861 766 861 721 885 c 128,-1,52
 676 909 676 909 619 911 c 0,53,54
 569 912 569 912 529.5 894.5 c 128,-1,55
 490 877 490 877 460.5 847 c 128,-1,56
 431 817 431 817 409.5 777 c 128,-1,57
 388 737 388 737 373 693 c 128,-1,58
 358 649 358 649 349 604 c 128,-1,59
 340 559 340 559 335 520 c 2,60,-1
 333 499 l 2,40,41
EndSplineSet
EndChar
StartChar: beta
Encoding: 946 946 185
Width: 1202
Flags: W
LayerCount: 2
Back
Fore
SplineSet
746 1477 m 0,0,1
 831 1475 831 1475 904.5 1448 c 128,-1,2
 978 1421 978 1421 1030.5 1371.5 c 128,-1,3
 1083 1322 1083 1322 1110 1251 c 128,-1,4
 1137 1180 1137 1180 1130 1090 c 0,5,6
 1125 1035 1125 1035 1105.5 989 c 128,-1,7
 1086 943 1086 943 1054.5 904.5 c 128,-1,8
 1023 866 1023 866 982.5 835 c 128,-1,9
 942 804 942 804 896 780 c 1,10,11
 947 754 947 754 982.5 716.5 c 128,-1,12
 1018 679 1018 679 1040 633.5 c 128,-1,13
 1062 588 1062 588 1070 536 c 128,-1,14
 1078 484 1078 484 1074 429 c 0,15,16
 1066 327 1066 327 1026 243 c 128,-1,17
 986 159 986 159 920.5 99.5 c 128,-1,18
 855 40 855 40 767.5 8 c 128,-1,19
 680 -24 680 -24 577 -22 c 0,20,21
 504 -20 504 -20 435 0.5 c 128,-1,22
 366 21 366 21 306 63 c 1,23,-1
 220 -392 l 1,24,-1
 -13 -392 l 1,25,-1
 234 1056 l 2,26,27
 247 1150 247 1150 294 1228 c 128,-1,28
 341 1306 341 1306 410 1362.5 c 128,-1,29
 479 1419 479 1419 565.5 1449 c 128,-1,30
 652 1479 652 1479 746 1477 c 0,0,1
642 859 m 2,31,32
 748 861 748 861 815 918.5 c 128,-1,33
 882 976 882 976 893 1082 c 0,34,35
 897 1123 897 1123 888 1159.5 c 128,-1,36
 879 1196 879 1196 858 1224 c 128,-1,37
 837 1252 837 1252 804 1268.5 c 128,-1,38
 771 1285 771 1285 728 1286 c 0,39,40
 677 1287 677 1287 633.5 1269.5 c 128,-1,41
 590 1252 590 1252 556 1221 c 128,-1,42
 522 1190 522 1190 499 1147.5 c 128,-1,43
 476 1105 476 1105 468 1057 c 2,44,-1
 330 252 l 1,45,46
 373 207 373 207 432 188 c 128,-1,47
 491 169 491 169 552 168 c 0,48,49
 610 167 610 167 660 186.5 c 128,-1,50
 710 206 710 206 748.5 241 c 128,-1,51
 787 276 787 276 812 324 c 128,-1,52
 837 372 837 372 844 429 c 0,53,54
 850 474 850 474 843.5 517 c 128,-1,55
 837 560 837 560 817.5 595 c 128,-1,56
 798 630 798 630 763.5 652 c 128,-1,57
 729 674 729 674 679 677 c 2,58,-1
 547 678 l 1,59,-1
 579 860 l 1,60,-1
 642 859 l 2,31,32
EndSplineSet
EndChar
StartChar: gamma
Encoding: 947 947 186
Width: 1202
Flags: W
LayerCount: 2
Back
Fore
SplineSet
996 1082 m 1,0,-1
 1246 1082 l 1,1,-1
 621 25 l 1,2,-1
 544 -417 l 1,3,-1
 311 -417 l 1,4,-1
 393 53 l 1,5,-1
 140 1082 l 1,6,-1
 372 1082 l 1,7,-1
 538 295 l 1,8,-1
 541 236 l 1,9,-1
 576 319 l 1,10,-1
 996 1082 l 1,0,-1
EndSplineSet
EndChar
StartChar: delta
Encoding: 948 948 187
Width: 1202
Flags: W
LayerCount: 2
Back
Fore
SplineSet
357 1250 m 0,0,1
 361 1334 361 1334 399 1394.5 c 128,-1,2
 437 1455 437 1455 495.5 1494 c 128,-1,3
 554 1533 554 1533 627.5 1551 c 128,-1,4
 701 1569 701 1569 777 1568 c 0,5,6
 856 1567 856 1567 930.5 1542 c 128,-1,7
 1005 1517 1005 1517 1076 1485 c 1,8,-1
 1016 1325 l 1,9,10
 959 1349 959 1349 898.5 1367 c 128,-1,11
 838 1385 838 1385 775 1384 c 0,12,13
 745 1384 745 1384 713.5 1376.5 c 128,-1,14
 682 1369 682 1369 655 1354 c 128,-1,15
 628 1339 628 1339 608.5 1315 c 128,-1,16
 589 1291 589 1291 583 1257 c 0,17,18
 577 1225 577 1225 591.5 1200.5 c 128,-1,19
 606 1176 606 1176 629.5 1157 c 128,-1,20
 653 1138 653 1138 681 1124.5 c 128,-1,21
 709 1111 709 1111 732 1101 c 0,22,23
 825 1062 825 1062 897.5 1008 c 128,-1,24
 970 954 970 954 1017 884.5 c 128,-1,25
 1064 815 1064 815 1084.5 729 c 128,-1,26
 1105 643 1105 643 1095 539 c 1,27,-1
 1092 518 l 2,28,29
 1078 404 1078 404 1031 304.5 c 128,-1,30
 984 205 984 205 909 132 c 128,-1,31
 834 59 834 59 734.5 18 c 128,-1,32
 635 -23 635 -23 516 -20 c 0,33,34
 402 -17 402 -17 317 25.5 c 128,-1,35
 232 68 232 68 177.5 139 c 128,-1,36
 123 210 123 210 100 305 c 128,-1,37
 77 400 77 400 87 507 c 2,38,-1
 89 528 l 2,39,40
 99 612 99 612 131.5 686 c 128,-1,41
 164 760 164 760 216 818.5 c 128,-1,42
 268 877 268 877 337.5 917.5 c 128,-1,43
 407 958 407 958 490 975 c 1,44,-1
 501 995 l 1,45,46
 429 1034 429 1034 390.5 1100.5 c 128,-1,47
 352 1167 352 1167 357 1250 c 0,0,1
323 515 m 2,48,49
 319 476 319 476 319.5 435.5 c 128,-1,50
 320 395 320 395 327.5 357 c 128,-1,51
 335 319 335 319 350 285.5 c 128,-1,52
 365 252 365 252 389.5 226.5 c 128,-1,53
 414 201 414 201 449 185.5 c 128,-1,54
 484 170 484 170 532 169 c 0,55,56
 607 167 607 167 664.5 197.5 c 128,-1,57
 722 228 722 228 762 279 c 128,-1,58
 802 330 802 330 826.5 394.5 c 128,-1,59
 851 459 851 459 860 525 c 2,60,-1
 863 544 l 2,61,62
 869 595 869 595 859.5 652.5 c 128,-1,63
 850 710 850 710 824.5 760 c 128,-1,64
 799 810 799 810 757 846 c 128,-1,65
 715 882 715 882 656 890 c 0,66,67
 606 896 606 896 564 883.5 c 128,-1,68
 522 871 522 871 487 845.5 c 128,-1,69
 452 820 452 820 424.5 783 c 128,-1,70
 397 746 397 746 377 704.5 c 128,-1,71
 357 663 357 663 344 619 c 128,-1,72
 331 575 331 575 326 535 c 2,73,-1
 323 515 l 2,48,49
EndSplineSet
EndChar
StartChar: epsilon
Encoding: 949 949 188
Width: 1202
Flags: W
LayerCount: 2
Back
Fore
SplineSet
80 298 m 0,0,1
 83 354 83 354 104.5 396 c 128,-1,2
 126 438 126 438 160 469.5 c 128,-1,3
 194 501 194 501 238.5 523.5 c 128,-1,4
 283 546 283 546 331 562 c 1,5,6
 299 578 299 578 271.5 599.5 c 128,-1,7
 244 621 244 621 223.5 648 c 128,-1,8
 203 675 203 675 192 707.5 c 128,-1,9
 181 740 181 740 183 778 c 0,10,11
 185 843 185 843 210 893 c 128,-1,12
 235 943 235 943 274.5 979 c 128,-1,13
 314 1015 314 1015 366 1039 c 128,-1,14
 418 1063 418 1063 474.5 1077 c 128,-1,15
 531 1091 531 1091 589.5 1096.5 c 128,-1,16
 648 1102 648 1102 701 1101 c 0,17,18
 751 1100 751 1100 803 1091.5 c 128,-1,19
 855 1083 855 1083 903 1066 c 128,-1,20
 951 1049 951 1049 993 1023 c 128,-1,21
 1035 997 1035 997 1066.5 961 c 128,-1,22
 1098 925 1098 925 1115.5 878.5 c 128,-1,23
 1133 832 1133 832 1133 774 c 1,24,-1
 903 775 l 1,25,26
 903 817 903 817 881.5 843.5 c 128,-1,27
 860 870 860 870 827.5 886 c 128,-1,28
 795 902 795 902 756.5 908.5 c 128,-1,29
 718 915 718 915 684 915 c 0,30,31
 646 916 646 916 601.5 910.5 c 128,-1,32
 557 905 557 905 517 889 c 128,-1,33
 477 873 477 873 447.5 844 c 128,-1,34
 418 815 418 815 411 769 c 0,35,36
 404 725 404 725 422.5 699.5 c 128,-1,37
 441 674 441 674 472 661 c 128,-1,38
 503 648 503 648 541 644 c 128,-1,39
 579 640 579 640 611 639 c 2,40,-1
 857 638 l 1,41,-1
 826 466 l 1,42,-1
 605 467 l 2,43,44
 561 467 561 467 513 462 c 128,-1,45
 465 457 465 457 423 440.5 c 128,-1,46
 381 424 381 424 351 393 c 128,-1,47
 321 362 321 362 314 309 c 0,48,49
 308 264 308 264 330.5 235.5 c 128,-1,50
 353 207 353 207 389 190.5 c 128,-1,51
 425 174 425 174 467 168 c 128,-1,52
 509 162 509 162 542 162 c 0,53,54
 582 162 582 162 629 169 c 128,-1,55
 676 176 676 176 717.5 194.5 c 128,-1,56
 759 213 759 213 790 243.5 c 128,-1,57
 821 274 821 274 831 320 c 1,58,-1
 1065 321 l 1,59,60
 1056 224 1056 224 1004 158 c 128,-1,61
 952 92 952 92 876 52 c 128,-1,62
 800 12 800 12 710.5 -5 c 128,-1,63
 621 -22 621 -22 537 -20 c 0,64,65
 489 -19 489 -19 435 -12.5 c 128,-1,66
 381 -6 381 -6 329 9 c 128,-1,67
 277 24 277 24 230.5 48 c 128,-1,68
 184 72 184 72 149.5 107 c 128,-1,69
 115 142 115 142 95.5 189 c 128,-1,70
 76 236 76 236 80 298 c 0,0,1
EndSplineSet
EndChar
StartChar: zeta
Encoding: 950 950 189
Width: 1202
Flags: W
LayerCount: 2
Back
Fore
SplineSet
1187 1456 m 1,0,-1
 1161 1303 l 1,1,-1
 702 892 l 2,2,3
 643 842 643 842 583 791 c 128,-1,4
 523 740 523 740 472.5 683 c 128,-1,5
 422 626 422 626 386 559 c 128,-1,6
 350 492 350 492 339 410 c 0,7,8
 334 372 334 372 336.5 341 c 128,-1,9
 339 310 339 310 352 285.5 c 128,-1,10
 365 261 365 261 389 243.5 c 128,-1,11
 413 226 413 226 451 216 c 2,12,-1
 645 170 l 2,13,14
 692 158 692 158 736.5 142 c 128,-1,15
 781 126 781 126 814 100 c 128,-1,16
 847 74 847 74 866 35.5 c 128,-1,17
 885 -3 885 -3 881 -60 c 0,18,19
 878 -110 878 -110 855 -157 c 128,-1,20
 832 -204 832 -204 798.5 -246 c 128,-1,21
 765 -288 765 -288 724.5 -323.5 c 128,-1,22
 684 -359 684 -359 646 -386 c 1,23,-1
 529 -282 l 1,24,25
 546 -263 546 -263 564.5 -242.5 c 128,-1,26
 583 -222 583 -222 599.5 -199.5 c 128,-1,27
 616 -177 616 -177 628 -153 c 128,-1,28
 640 -129 640 -129 644 -102 c 0,29,30
 647 -79 647 -79 639 -63.5 c 128,-1,31
 631 -48 631 -48 616 -37.5 c 128,-1,32
 601 -27 601 -27 582 -20.5 c 128,-1,33
 563 -14 563 -14 545 -9 c 2,34,-1
 379 25 l 2,35,36
 233 57 233 57 158 147 c 128,-1,37
 83 237 83 237 99 390 c 0,38,39
 109 486 109 486 154 570.5 c 128,-1,40
 199 655 199 655 262.5 729 c 128,-1,41
 326 803 326 803 400 868 c 128,-1,42
 474 933 474 933 542 991 c 2,43,-1
 843 1264 l 1,44,-1
 209 1264 l 1,45,-1
 243 1456 l 1,46,-1
 1187 1456 l 1,0,-1
EndSplineSet
EndChar
StartChar: eta
Encoding: 951 951 190
Width: 1202
Flags: W
LayerCount: 2
Back
Fore
SplineSet
436 1083 m 1,0,-1
 413 925 l 1,1,2
 478 1007 478 1007 563.5 1055.5 c 128,-1,3
 649 1104 649 1104 756 1102 c 0,4,5
 850 1100 850 1100 913 1067 c 128,-1,6
 976 1034 976 1034 1013 977.5 c 128,-1,7
 1050 921 1050 921 1061.5 845.5 c 128,-1,8
 1073 770 1073 770 1064 684 c 1,9,-1
 878 -415 l 1,10,-1
 644 -415 l 1,11,-1
 831 683 l 2,12,13
 837 732 837 732 831 772.5 c 128,-1,14
 825 813 825 813 805.5 842.5 c 128,-1,15
 786 872 786 872 751 889 c 128,-1,16
 716 906 716 906 664 908 c 0,17,18
 589 910 589 910 526 883 c 128,-1,19
 463 856 463 856 410 804 c 1,20,-1
 268 0 l 1,21,-1
 35 0 l 1,22,-1
 223 1082 l 1,23,-1
 436 1083 l 1,0,-1
EndSplineSet
EndChar
StartChar: theta
Encoding: 952 952 191
Width: 1202
Flags: W
LayerCount: 2
Back
Fore
SplineSet
1033 538 m 2,0,1
 1017 431 1017 431 980 329.5 c 128,-1,2
 943 228 943 228 881 149 c 128,-1,3
 819 70 819 70 729.5 23 c 128,-1,4
 640 -24 640 -24 518 -21 c 0,5,6
 441 -19 441 -19 382.5 5 c 128,-1,7
 324 29 324 29 282.5 69 c 128,-1,8
 241 109 241 109 214 162.5 c 128,-1,9
 187 216 187 216 173.5 277.5 c 128,-1,10
 160 339 160 339 158.5 405 c 128,-1,11
 157 471 157 471 165 537 c 2,12,-1
 225 914 l 2,13,14
 241 1020 241 1020 278 1122 c 128,-1,15
 315 1224 315 1224 377 1304 c 128,-1,16
 439 1384 439 1384 529 1432 c 128,-1,17
 619 1480 619 1480 741 1477 c 0,18,19
 819 1475 819 1475 877.5 1450.5 c 128,-1,20
 936 1426 936 1426 978 1385.5 c 128,-1,21
 1020 1345 1020 1345 1046 1291 c 128,-1,22
 1072 1237 1072 1237 1085.5 1175 c 128,-1,23
 1099 1113 1099 1113 1100 1046 c 128,-1,24
 1101 979 1101 979 1093 914 c 2,25,-1
 1033 538 l 2,0,1
816 644 m 1,26,-1
 415 644 l 1,27,-1
 393 492 l 2,28,29
 389 461 389 461 386.5 425.5 c 128,-1,30
 384 390 384 390 386 354.5 c 128,-1,31
 388 319 388 319 396 286.5 c 128,-1,32
 404 254 404 254 421 228.5 c 128,-1,33
 438 203 438 203 466 187 c 128,-1,34
 494 171 494 171 537 169 c 0,35,36
 605 166 605 166 651 195.5 c 128,-1,37
 697 225 697 225 726 272.5 c 128,-1,38
 755 320 755 320 770.5 378 c 128,-1,39
 786 436 786 436 794 492 c 2,40,-1
 816 644 l 1,26,-1
447 832 m 1,41,-1
 848 832 l 1,42,-1
 867 962 l 2,43,44
 871 994 871 994 873.5 1029.5 c 128,-1,45
 876 1065 876 1065 874 1100 c 128,-1,46
 872 1135 872 1135 864 1168 c 128,-1,47
 856 1201 856 1201 838.5 1226.5 c 128,-1,48
 821 1252 821 1252 792.5 1267.5 c 128,-1,49
 764 1283 764 1283 722 1285 c 0,50,51
 654 1288 654 1288 608.5 1258.5 c 128,-1,52
 563 1229 563 1229 534 1181.5 c 128,-1,53
 505 1134 505 1134 489.5 1075.5 c 128,-1,54
 474 1017 474 1017 466 962 c 2,55,-1
 447 832 l 1,41,-1
EndSplineSet
EndChar
